<?xml version="1.0" encoding="utf-8"?>
<!-- Generator: Adobe Illustrator 16.0.0, SVG Export Plug-In . SVG Version: 6.00 Build 0)  -->
<!DOCTYPE svg PUBLIC "-//W3C//DTD SVG 1.0//EN" "http://www.w3.org/TR/2001/REC-SVG-20010904/DTD/svg10.dtd">
<svg version="1.0" id="Layer_1" xmlns="http://www.w3.org/2000/svg" xmlns:xlink="http://www.w3.org/1999/xlink" x="0px" y="0px"
	 width="166.333px" height="34.307px" viewBox="102.235 0 166.333 34.307" enable-background="new 102.235 0 166.333 34.307"
	 xml:space="preserve">
<g>
	<g>
		<path fill="#FFFFFF" d="M107.989,22.264c0,0.154,0.03,0.273,0.092,0.357c0.061,0.084,0.176,0.126,0.345,0.126h1.288v2.001h-1.909
			c-0.751,0-1.323-0.211-1.713-0.633c-0.391-0.422-0.587-0.977-0.587-1.667v-3.128c0-0.461,0.111-0.886,0.333-1.277
			c0.222-0.391,0.518-0.693,0.886-0.908l-1.863-1.564c0.138-0.506,0.387-0.997,0.748-1.472c0.36-0.475,0.801-0.897,1.323-1.265
			c0.521-0.368,1.119-0.663,1.794-0.885c0.674-0.222,1.395-0.333,2.162-0.333c0.889,0,1.679,0.126,2.369,0.379
			c0.69,0.253,1.265,0.602,1.725,1.046c0.46,0.445,0.809,0.978,1.046,1.599s0.357,1.307,0.357,2.059v8.05h-2.484v-8.05
			c0-1.012-0.268-1.771-0.805-2.277c-0.537-0.506-1.288-0.759-2.254-0.759c-0.384,0-0.751,0.046-1.104,0.138
			c-0.353,0.092-0.679,0.223-0.978,0.391c-0.299,0.169-0.56,0.365-0.782,0.586c-0.223,0.223-0.387,0.457-0.495,0.702l1.84,1.61
			c-0.445,0.184-0.779,0.445-1,0.782c-0.223,0.338-0.333,0.774-0.333,1.311V22.264z"/>
		<path fill="#FFFFFF" d="M124.963,24.749v-8.28c0-1.871-0.805-2.806-2.415-2.806c-0.706,0-1.384,0.13-2.036,0.391
			c-0.652,0.261-1.223,0.567-1.713,0.92l-0.644-1.817c0.537-0.399,1.219-0.755,2.047-1.07c0.828-0.314,1.687-0.471,2.576-0.471
			c1.533,0,2.694,0.437,3.484,1.311c0.79,0.874,1.185,2.085,1.185,3.634v8.188H124.963z"/>
		<path fill="#FFFFFF" d="M139.061,11.869h2.484v8.165c0,1.595-0.379,2.821-1.138,3.68c-0.759,0.859-1.859,1.288-3.301,1.288
			c-0.905,0-1.683-0.195-2.334-0.587c-0.652-0.391-1.177-0.854-1.575-1.391l-0.23,1.725h-2.254v-12.88h2.484v8.739
			c0.307,0.645,0.774,1.197,1.403,1.656c0.628,0.461,1.303,0.69,2.024,0.69c1.625,0,2.438-0.997,2.438-2.99V11.869z"/>
		<path fill="#FFFFFF" d="M150.101,17.711v1.955h-6.371v-1.955H150.101z"/>
		<path fill="#FFFFFF" d="M158.404,13.065l2.208-1.449c1.104,0.261,1.936,0.751,2.496,1.472c0.56,0.721,0.839,1.641,0.839,2.76
			v8.901h-2.484v-8.97c0-1.073-0.391-1.725-1.173-1.955l-1.886,1.173l-1.84-1.15c-0.706,0.23-1.277,0.736-1.714,1.518
			c-0.437,0.782-0.655,1.794-0.655,3.036c0,0.844,0.092,1.549,0.276,2.115c0.184,0.568,0.421,1.023,0.713,1.369
			c0.292,0.345,0.617,0.594,0.978,0.747s0.717,0.229,1.07,0.229c0.306,0,0.59-0.019,0.851-0.057s0.521-0.119,0.782-0.242l0.46,1.863
			c-0.292,0.154-0.625,0.272-1,0.357c-0.376,0.084-0.801,0.126-1.276,0.126c-0.721,0-1.407-0.123-2.059-0.368
			c-0.652-0.245-1.219-0.633-1.702-1.162c-0.483-0.528-0.866-1.203-1.15-2.023s-0.425-1.806-0.425-2.955
			c0-0.859,0.107-1.668,0.322-2.427c0.215-0.759,0.525-1.434,0.932-2.024c0.406-0.59,0.893-1.089,1.46-1.495
			c0.567-0.406,1.204-0.686,1.909-0.839L158.404,13.065z"/>
		<path fill="#FFFFFF" d="M169.536,19.367c-0.337,0-0.506,0.184-0.506,0.552v0.346c0,1.793,1.027,2.69,3.082,2.69
			c1.15,0,2.058-0.376,2.725-1.127s1-1.955,1-3.611c0-1.472-0.345-2.599-1.035-3.381c-0.69-0.782-1.618-1.173-2.783-1.173
			c-0.966,0-1.833,0.153-2.599,0.46s-1.441,0.683-2.024,1.127l-0.805-1.84c0.291-0.23,0.628-0.452,1.012-0.667
			s0.809-0.406,1.276-0.575c0.468-0.168,0.974-0.303,1.518-0.402s1.116-0.149,1.714-0.149c0.966,0,1.832,0.149,2.599,0.448
			s1.418,0.736,1.955,1.311s0.947,1.276,1.23,2.104s0.426,1.771,0.426,2.83c0,2.223-0.533,3.895-1.599,5.014
			c-1.066,1.119-2.557,1.679-4.474,1.679c-1.917,0-3.339-0.417-4.267-1.253s-1.391-1.998-1.391-3.484v-0.529
			c0-1.61,0.782-2.416,2.346-2.416h2.507v2.047H169.536z"/>
		<path fill="#FFFFFF" d="M186.394,25.002c-1.748,0-3.093-0.425-4.036-1.276s-1.415-2.112-1.415-3.783v-8.073h2.484v8.073
			c0,0.951,0.253,1.689,0.759,2.219s1.242,0.794,2.208,0.794c0.967,0,1.703-0.265,2.209-0.794s0.758-1.268,0.758-2.219v-8.073h2.484
			v8.073c0,1.671-0.471,2.932-1.414,3.783S188.142,25.002,186.394,25.002z"/>
		<path fill="#FFFFFF" d="M206.818,6.671h0.461v22.977h-0.461V6.671z"/>
		<path fill="#FFFFFF" d="M221.9,10.469h8.961v0.76h-8.08v5.72h7.279v0.76h-7.279v7.04H221.9V10.469z"/>
		<path fill="#FFFFFF" d="M235.34,10.469h0.96l5.641,14.28H241l-1.8-4.58h-6.84l-1.82,4.58h-0.94L235.34,10.469z M238.92,19.409
			l-3.06-8.08h-0.041l-3.18,8.08H238.92z"/>
		<path fill="#FFFFFF" d="M252.8,23.789c-1.107,0.866-2.453,1.3-4.04,1.3c-1.067,0-2.023-0.193-2.87-0.58s-1.56-0.916-2.14-1.59
			c-0.58-0.673-1.023-1.467-1.33-2.38c-0.308-0.913-0.46-1.89-0.46-2.93c0-1.04,0.152-2.017,0.46-2.93
			c0.307-0.913,0.75-1.707,1.33-2.38c0.58-0.673,1.293-1.203,2.14-1.59s1.803-0.58,2.87-0.58c1.066,0,2.021,0.193,2.86,0.58
			s1.55,0.917,2.13,1.59c0.58,0.674,1.022,1.467,1.33,2.38c0.306,0.913,0.46,1.89,0.46,2.93c0,1.173-0.184,2.24-0.551,3.201
			c-0.366,0.959-0.896,1.779-1.59,2.459l2.221,1.601l-0.461,0.62L252.8,23.789z M252.7,22.768c0.64-0.64,1.126-1.399,1.459-2.279
			c0.334-0.881,0.5-1.84,0.5-2.88c0-0.92-0.133-1.787-0.399-2.6c-0.267-0.813-0.653-1.523-1.16-2.13
			c-0.507-0.606-1.123-1.09-1.85-1.45c-0.728-0.36-1.558-0.54-2.49-0.54c-0.934,0-1.767,0.18-2.5,0.54
			c-0.733,0.36-1.354,0.843-1.86,1.45c-0.506,0.607-0.893,1.317-1.16,2.13c-0.266,0.813-0.399,1.68-0.399,2.6
			c0,0.919,0.134,1.787,0.399,2.6c0.268,0.813,0.654,1.523,1.16,2.13c0.507,0.607,1.127,1.09,1.86,1.45s1.566,0.54,2.5,0.54
			c1.32,0,2.433-0.354,3.34-1.061l-2.159-1.539l0.459-0.621L252.7,22.768z"/>
		<path fill="#FFFFFF" d="M257.64,21.329c0.026,0.48,0.133,0.903,0.32,1.27c0.186,0.367,0.43,0.68,0.729,0.94
			c0.3,0.26,0.65,0.457,1.05,0.59c0.4,0.134,0.834,0.2,1.301,0.2c0.332,0,0.689-0.03,1.07-0.09c0.379-0.061,0.732-0.17,1.059-0.33
			c0.327-0.16,0.598-0.383,0.811-0.67s0.32-0.65,0.32-1.09c0-0.574-0.174-1.007-0.52-1.301c-0.348-0.293-0.784-0.52-1.311-0.68
			c-0.527-0.16-1.094-0.29-1.7-0.391c-0.606-0.1-1.173-0.25-1.7-0.449c-0.526-0.2-0.963-0.483-1.31-0.85
			c-0.347-0.367-0.521-0.904-0.521-1.61c0-0.507,0.113-0.93,0.34-1.27c0.227-0.34,0.518-0.61,0.871-0.81
			c0.353-0.2,0.75-0.343,1.189-0.43c0.439-0.086,0.88-0.13,1.32-0.13c0.533,0,1.033,0.06,1.5,0.18
			c0.467,0.12,0.869,0.313,1.209,0.58c0.341,0.267,0.607,0.606,0.801,1.02c0.193,0.414,0.29,0.914,0.29,1.5h-0.761
			c0-0.466-0.076-0.866-0.229-1.2c-0.153-0.333-0.366-0.603-0.64-0.81c-0.273-0.207-0.598-0.36-0.971-0.46s-0.773-0.15-1.199-0.15
			c-0.348,0-0.697,0.033-1.051,0.1c-0.354,0.066-0.67,0.18-0.949,0.34c-0.28,0.16-0.51,0.367-0.69,0.62
			c-0.18,0.253-0.271,0.56-0.271,0.92c0,0.413,0.101,0.747,0.301,1c0.199,0.253,0.463,0.456,0.79,0.61
			c0.326,0.152,0.692,0.276,1.1,0.369c0.407,0.094,0.817,0.188,1.229,0.28c0.508,0.094,0.984,0.204,1.431,0.33
			c0.446,0.127,0.833,0.3,1.16,0.521c0.327,0.22,0.583,0.503,0.771,0.85c0.186,0.347,0.279,0.787,0.279,1.32
			c0,0.56-0.127,1.02-0.38,1.379c-0.253,0.361-0.573,0.65-0.96,0.871c-0.387,0.22-0.816,0.373-1.29,0.459
			c-0.474,0.088-0.937,0.131-1.39,0.131c-0.588,0-1.131-0.077-1.631-0.23c-0.5-0.152-0.937-0.387-1.31-0.699
			c-0.374-0.313-0.667-0.697-0.88-1.15s-0.327-0.98-0.34-1.58H257.64z"/>
	</g>
</g>
</svg>
