<?xml version="1.0" encoding="utf-8"?>
<!-- Generator: Adobe Illustrator 16.0.0, SVG Export Plug-In . SVG Version: 6.00 Build 0)  -->
<!DOCTYPE svg PUBLIC "-//W3C//DTD SVG 1.0//EN" "http://www.w3.org/TR/2001/REC-SVG-20010904/DTD/svg10.dtd">
<svg version="1.0" id="Layer_1" xmlns="http://www.w3.org/2000/svg" xmlns:xlink="http://www.w3.org/1999/xlink" x="0px" y="0px"
	 width="215px" height="34.307px" viewBox="79.235 0 215 34.307" enable-background="new 79.235 0 215 34.307" xml:space="preserve"
	>
<g>
	<g>
		<path fill="#FFFFFF" d="M91.368,24.41v-8.05c0-1.012-0.264-1.771-0.793-2.277c-0.529-0.506-1.276-0.759-2.242-0.759
			c-0.384,0-0.751,0.046-1.104,0.138c-0.353,0.092-0.679,0.223-0.978,0.391c-0.299,0.169-0.56,0.365-0.782,0.586
			c-0.223,0.223-0.387,0.457-0.495,0.702l1.84,1.61c-0.445,0.184-0.779,0.445-1,0.782c-0.223,0.337-0.333,0.774-0.333,1.312v5.565
			h-2.484v-5.429c0-0.459,0.111-0.885,0.333-1.275c0.222-0.392,0.518-0.694,0.886-0.909l-1.863-1.564
			c0.138-0.506,0.387-0.997,0.748-1.472c0.36-0.475,0.801-0.897,1.323-1.265c0.521-0.368,1.115-0.663,1.782-0.885
			s1.384-0.333,2.151-0.333c0.889,0,1.679,0.126,2.369,0.379s1.265,0.602,1.725,1.046c0.46,0.445,0.809,0.978,1.046,1.599
			s0.356,1.307,0.356,2.059v8.05H91.368z"/>
		<path fill="#FFFFFF" d="M92.564,10.173c-0.337,0-0.656-0.061-0.955-0.184c-0.299-0.123-0.556-0.295-0.771-0.518
			c-0.214-0.222-0.387-0.479-0.518-0.771c-0.13-0.291-0.195-0.613-0.195-0.966c0-0.69,0.234-1.265,0.702-1.725
			s1.046-0.69,1.736-0.69s1.269,0.23,1.736,0.69c0.468,0.46,0.702,1.035,0.702,1.725c0,0.353-0.065,0.675-0.195,0.966
			c-0.13,0.292-0.303,0.548-0.518,0.771c-0.215,0.223-0.472,0.395-0.771,0.518C93.219,10.112,92.902,10.173,92.564,10.173z
			 M92.564,8.678c0.261,0,0.483-0.096,0.667-0.288c0.184-0.191,0.276-0.417,0.276-0.679c0-0.26-0.092-0.483-0.276-0.667
			c-0.184-0.184-0.406-0.276-0.667-0.276s-0.479,0.092-0.656,0.276c-0.176,0.184-0.264,0.407-0.264,0.667
			c0,0.261,0.088,0.487,0.264,0.679C92.085,8.582,92.303,8.678,92.564,8.678z M102.431,24.41v-8.28c0-1.871-0.805-2.806-2.415-2.806
			c-0.706,0-1.384,0.13-2.036,0.391c-0.652,0.261-1.223,0.567-1.713,0.92l-0.644-1.817c0.537-0.399,1.219-0.755,2.047-1.07
			c0.828-0.314,1.687-0.471,2.576-0.471c1.533,0,2.694,0.437,3.484,1.311c0.79,0.874,1.185,2.085,1.185,3.634v8.188H102.431z"/>
		<path fill="#FFFFFF" d="M117.151,24.41l-1.748-5.658c-0.414-1.303-1.143-1.97-2.185-2.001l-2.553,2.162v5.497h-2.484V11.53h2.484
			v4.715l5.658-4.715h3.22l-4.6,3.795c0.797,0.169,1.415,0.514,1.852,1.035s0.778,1.165,1.023,1.932l1.932,6.118H117.151z"/>
		<path fill="#FFFFFF" d="M124.35,19.856c0,0.98,0.199,1.687,0.598,2.115c0.398,0.43,1.004,0.645,1.817,0.645
			c0.721,0,1.399-0.227,2.036-0.679s1.107-1.008,1.415-1.667v-8.74h2.484v12.88h-2.254l-0.23-1.726
			c-0.399,0.537-0.932,1.001-1.599,1.393c-0.667,0.391-1.483,0.586-2.449,0.586c-1.396,0-2.461-0.391-3.197-1.173
			c-0.736-0.782-1.104-1.97-1.104-3.565V11.53h2.484V19.856z"/>
		<path fill="#FFFFFF" d="M144.957,24.41v-7.728c0-0.981-0.272-1.786-0.816-2.415c-0.544-0.628-1.338-0.943-2.381-0.943
			c-1.242,0-2.2,0.429-2.875,1.288s-1.012,2.032-1.012,3.52c0,0.827,0.092,1.521,0.276,2.081s0.421,1.012,0.713,1.356
			c0.292,0.346,0.617,0.591,0.978,0.736c0.36,0.146,0.717,0.219,1.07,0.219c0.306,0,0.59-0.02,0.851-0.058s0.521-0.118,0.782-0.241
			l0.46,1.863c-0.292,0.152-0.625,0.271-1,0.355c-0.376,0.084-0.801,0.127-1.276,0.127c-0.69,0-1.357-0.127-2.001-0.379
			c-0.644-0.254-1.215-0.645-1.713-1.174c-0.499-0.529-0.894-1.199-1.185-2.012c-0.292-0.812-0.437-1.771-0.437-2.875
			c0-0.967,0.134-1.867,0.402-2.703c0.268-0.835,0.667-1.56,1.196-2.173c0.529-0.613,1.188-1.096,1.978-1.449
			c0.79-0.353,1.698-0.529,2.726-0.529c0.951,0,1.786,0.142,2.507,0.425c0.72,0.284,1.322,0.671,1.805,1.162
			s0.843,1.066,1.081,1.725s0.356,1.365,0.356,2.116v7.705H144.957z"/>
		<path fill="#FFFFFF" d="M158.964,24.41v-8.05c0-1.012-0.264-1.771-0.793-2.277c-0.529-0.506-1.276-0.759-2.242-0.759
			c-0.384,0-0.751,0.046-1.104,0.138c-0.353,0.092-0.679,0.223-0.978,0.391c-0.299,0.169-0.56,0.365-0.782,0.586
			c-0.223,0.223-0.387,0.457-0.495,0.702l1.84,1.61c-0.445,0.184-0.779,0.445-1,0.782c-0.223,0.337-0.333,0.774-0.333,1.312v5.565
			h-2.484v-5.429c0-0.459,0.111-0.885,0.333-1.275c0.222-0.392,0.518-0.694,0.886-0.909l-1.863-1.564
			c0.138-0.506,0.387-0.997,0.748-1.472c0.36-0.475,0.801-0.897,1.323-1.265c0.521-0.368,1.115-0.663,1.782-0.885
			s1.384-0.333,2.151-0.333c0.889,0,1.679,0.126,2.369,0.379s1.265,0.602,1.725,1.046c0.46,0.445,0.809,0.978,1.046,1.599
			s0.356,1.307,0.356,2.059v8.05H158.964z"/>
		<path fill="#FFFFFF" d="M170.028,24.41v-8.28c0-1.871-0.805-2.806-2.415-2.806c-0.706,0-1.384,0.13-2.036,0.391
			c-0.652,0.261-1.223,0.567-1.713,0.92l-0.644-1.817c0.537-0.399,1.219-0.755,2.047-1.07c0.828-0.314,1.687-0.471,2.576-0.471
			c1.533,0,2.694,0.437,3.484,1.311c0.79,0.874,1.185,2.085,1.185,3.634v8.188H170.028z"/>
		<path fill="#FFFFFF" d="M179.388,22.639c0.92,0,1.622-0.15,2.104-0.449s0.725-0.717,0.725-1.254c0-0.291-0.088-0.547-0.265-0.77
			s-0.411-0.422-0.702-0.598c-0.292-0.177-0.613-0.326-0.966-0.449c-0.353-0.123-0.713-0.245-1.081-0.368
			c-0.583-0.184-1.127-0.383-1.633-0.598c-0.506-0.215-0.943-0.476-1.311-0.782c-0.368-0.307-0.66-0.674-0.874-1.104
			c-0.215-0.429-0.322-0.951-0.322-1.564c0-0.506,0.115-0.97,0.345-1.392c0.23-0.421,0.556-0.782,0.978-1.081
			c0.421-0.299,0.931-0.532,1.529-0.701c0.598-0.168,1.257-0.253,1.978-0.253c0.843,0,1.625,0.092,2.346,0.276
			c0.72,0.184,1.372,0.429,1.955,0.736l-0.644,1.84c-0.537-0.292-1.089-0.499-1.656-0.621s-1.181-0.184-1.84-0.184
			c-0.782,0-1.407,0.123-1.875,0.368c-0.468,0.245-0.702,0.59-0.702,1.035c0,0.261,0.073,0.487,0.219,0.679
			c0.146,0.192,0.341,0.364,0.586,0.518c0.245,0.153,0.537,0.295,0.874,0.425c0.337,0.13,0.705,0.257,1.104,0.379
			c0.69,0.23,1.303,0.468,1.84,0.713c0.537,0.246,0.993,0.533,1.369,0.863c0.375,0.33,0.663,0.717,0.862,1.162
			c0.199,0.444,0.299,0.965,0.299,1.563c0,1.073-0.418,1.947-1.254,2.622s-2.112,1.012-3.829,1.012c-1.81,0-3.282-0.33-4.416-0.988
			l0.598-1.91c0.521,0.262,1.093,0.473,1.714,0.633C178.065,22.558,178.713,22.639,179.388,22.639z"/>
		<path fill="#FFFFFF" d="M198.984,6.332h0.46v22.978h-0.46V6.332z"/>
		<path fill="#FFFFFF" d="M223.386,14.21c-0.027-0.613-0.157-1.146-0.391-1.6s-0.55-0.833-0.949-1.14
			c-0.4-0.307-0.877-0.537-1.431-0.69s-1.157-0.23-1.81-0.23c-0.4,0-0.83,0.047-1.291,0.14c-0.459,0.094-0.887,0.257-1.279,0.49
			c-0.394,0.233-0.717,0.547-0.971,0.94c-0.253,0.394-0.379,0.883-0.379,1.47c0,0.573,0.14,1.04,0.42,1.4
			c0.279,0.36,0.646,0.65,1.1,0.87c0.453,0.22,0.973,0.396,1.561,0.53c0.586,0.133,1.18,0.26,1.779,0.38
			c0.613,0.12,1.21,0.264,1.79,0.43c0.58,0.167,1.101,0.394,1.56,0.68c0.461,0.287,0.83,0.66,1.11,1.12s0.42,1.037,0.42,1.729
			c0,0.748-0.159,1.374-0.479,1.881s-0.724,0.92-1.211,1.24c-0.486,0.319-1.026,0.55-1.619,0.689
			c-0.594,0.141-1.164,0.21-1.711,0.21c-0.84,0-1.626-0.09-2.359-0.271c-0.733-0.18-1.373-0.473-1.92-0.879
			c-0.547-0.407-0.977-0.931-1.29-1.57c-0.313-0.641-0.464-1.42-0.45-2.34h0.881c-0.041,0.787,0.072,1.449,0.34,1.99
			c0.266,0.539,0.637,0.982,1.109,1.33c0.473,0.346,1.03,0.596,1.67,0.75c0.641,0.152,1.313,0.229,2.02,0.229
			c0.428,0,0.884-0.054,1.371-0.16c0.486-0.106,0.933-0.286,1.34-0.54c0.406-0.253,0.746-0.586,1.02-1
			c0.273-0.413,0.41-0.934,0.41-1.561c0-0.6-0.141-1.09-0.42-1.469c-0.279-0.381-0.65-0.688-1.109-0.92
			c-0.461-0.234-0.98-0.421-1.561-0.561c-0.58-0.14-1.177-0.27-1.79-0.39c-0.601-0.12-1.193-0.26-1.78-0.42
			c-0.586-0.16-1.106-0.376-1.56-0.65c-0.454-0.273-0.82-0.627-1.101-1.06c-0.279-0.433-0.42-0.99-0.42-1.67
			c0-0.68,0.144-1.263,0.43-1.75c0.287-0.487,0.66-0.88,1.121-1.18c0.459-0.3,0.977-0.52,1.549-0.66
			c0.574-0.14,1.141-0.21,1.701-0.21c0.746,0,1.443,0.083,2.09,0.25c0.646,0.167,1.213,0.427,1.699,0.78s0.877,0.81,1.17,1.37
			c0.293,0.56,0.461,1.234,0.5,2.02H223.386z"/>
		<path fill="#FFFFFF" d="M234.265,17.31c-0.039-0.453-0.156-0.853-0.35-1.2s-0.443-0.633-0.75-0.86
			c-0.307-0.227-0.663-0.4-1.07-0.52c-0.406-0.12-0.843-0.18-1.31-0.18c-0.64,0-1.206,0.13-1.7,0.39
			c-0.493,0.26-0.906,0.607-1.24,1.04c-0.333,0.434-0.586,0.927-0.76,1.48c-0.174,0.554-0.26,1.123-0.26,1.71
			c0,0.694,0.08,1.333,0.24,1.921c0.16,0.586,0.406,1.096,0.74,1.529c0.332,0.434,0.746,0.77,1.24,1.01
			c0.492,0.24,1.072,0.36,1.739,0.36c0.479,0,0.923-0.08,1.33-0.24c0.407-0.159,0.767-0.38,1.08-0.659
			c0.313-0.281,0.569-0.617,0.771-1.011c0.199-0.394,0.332-0.823,0.399-1.29h0.761c-0.08,0.613-0.248,1.16-0.5,1.641
			c-0.254,0.479-0.574,0.883-0.961,1.209c-0.387,0.327-0.826,0.577-1.32,0.75c-0.492,0.174-1.013,0.261-1.56,0.261
			c-0.84,0-1.557-0.15-2.149-0.45c-0.594-0.3-1.08-0.703-1.461-1.21c-0.379-0.507-0.66-1.09-0.84-1.75s-0.27-1.351-0.27-2.07
			s0.104-1.399,0.311-2.04c0.206-0.64,0.51-1.2,0.909-1.68s0.894-0.86,1.479-1.14c0.588-0.28,1.261-0.42,2.021-0.42
			c0.56,0,1.083,0.07,1.57,0.21c0.486,0.14,0.92,0.35,1.3,0.63c0.38,0.28,0.689,0.637,0.93,1.07s0.387,0.937,0.44,1.51H234.265z"/>
		<path fill="#FFFFFF" d="M237.665,10.13v6.2h0.04c0.134-0.387,0.323-0.73,0.57-1.03c0.246-0.3,0.532-0.557,0.86-0.77
			c0.326-0.213,0.683-0.373,1.069-0.48s0.78-0.16,1.181-0.16c0.6,0,1.109,0.073,1.529,0.22c0.42,0.146,0.764,0.34,1.03,0.58
			c0.267,0.24,0.477,0.51,0.63,0.81c0.153,0.3,0.264,0.604,0.33,0.91s0.106,0.604,0.12,0.89c0.013,0.287,0.02,0.537,0.02,0.75v6.36
			h-0.76v-6.5c0-0.253-0.021-0.573-0.06-0.96c-0.041-0.387-0.157-0.757-0.351-1.11c-0.193-0.354-0.487-0.657-0.88-0.91
			c-0.394-0.253-0.938-0.38-1.63-0.38c-0.587,0-1.106,0.107-1.56,0.32c-0.454,0.213-0.84,0.51-1.16,0.89s-0.564,0.833-0.73,1.36
			c-0.167,0.527-0.25,1.104-0.25,1.73v5.56h-0.76V10.13H237.665z"/>
		<path fill="#FFFFFF" d="M247.566,19.37v0.12c0,0.601,0.08,1.173,0.24,1.72s0.397,1.027,0.712,1.44
			c0.313,0.413,0.708,0.739,1.183,0.979s1.026,0.36,1.654,0.36c1.029,0,1.846-0.271,2.447-0.81c0.602-0.541,1.016-1.291,1.243-2.25
			h0.761c-0.228,1.199-0.717,2.119-1.471,2.76c-0.754,0.64-1.75,0.96-2.99,0.96c-0.76,0-1.424-0.138-1.99-0.41
			c-0.566-0.273-1.039-0.646-1.42-1.12c-0.379-0.473-0.663-1.033-0.85-1.68c-0.188-0.646-0.279-1.344-0.279-2.09
			c0-0.721,0.096-1.41,0.289-2.07s0.483-1.24,0.87-1.74s0.87-0.9,1.45-1.2c0.58-0.3,1.264-0.45,2.05-0.45
			c0.72,0,1.356,0.133,1.91,0.4c0.554,0.267,1.017,0.63,1.39,1.09c0.373,0.46,0.656,0.993,0.851,1.6
			c0.192,0.607,0.29,1.257,0.29,1.951c0,0.066-0.004,0.143-0.01,0.229c-0.008,0.087-0.01,0.157-0.01,0.21H247.566z M255.125,18.71
			c-0.026-0.56-0.12-1.09-0.28-1.59c-0.161-0.5-0.398-0.94-0.713-1.32c-0.313-0.38-0.695-0.683-1.143-0.91
			c-0.447-0.227-0.959-0.34-1.533-0.34c-0.615,0-1.157,0.117-1.625,0.35c-0.469,0.233-0.863,0.54-1.184,0.92
			c-0.32,0.38-0.568,0.823-0.742,1.33c-0.173,0.507-0.28,1.026-0.32,1.56H255.125z"/>
		<path fill="#FFFFFF" d="M265.605,22.21h-0.039c-0.428,0.813-0.961,1.424-1.601,1.83s-1.42,0.61-2.34,0.61
			c-0.773,0-1.44-0.147-2-0.44s-1.021-0.687-1.38-1.18c-0.36-0.493-0.627-1.063-0.801-1.71c-0.173-0.646-0.26-1.323-0.26-2.03
			c0-0.76,0.094-1.47,0.28-2.13s0.47-1.23,0.851-1.71c0.379-0.48,0.855-0.86,1.43-1.14c0.572-0.28,1.246-0.42,2.02-0.42
			c0.414,0,0.82,0.057,1.221,0.17c0.399,0.114,0.77,0.277,1.109,0.49s0.637,0.48,0.891,0.8c0.253,0.32,0.446,0.68,0.58,1.08h0.039
			v-6.3h0.76v14.28h-0.76V22.21z M261.785,23.99c0.653,0,1.216-0.134,1.69-0.399c0.473-0.268,0.865-0.621,1.18-1.061
			c0.312-0.439,0.547-0.943,0.699-1.51c0.153-0.566,0.23-1.144,0.23-1.73c0-0.6-0.077-1.184-0.23-1.75
			c-0.152-0.566-0.383-1.073-0.689-1.52c-0.307-0.446-0.703-0.803-1.189-1.07c-0.487-0.267-1.058-0.4-1.711-0.4
			c-0.68,0-1.26,0.13-1.74,0.39c-0.479,0.26-0.877,0.61-1.189,1.05c-0.313,0.44-0.54,0.947-0.68,1.52
			c-0.141,0.573-0.211,1.167-0.211,1.78c0,0.6,0.077,1.184,0.23,1.75s0.387,1.07,0.7,1.51c0.313,0.44,0.71,0.791,1.19,1.051
			C260.545,23.86,261.118,23.99,261.785,23.99z"/>
		<path fill="#FFFFFF" d="M276.925,24.41h-0.76v-2.2h-0.04c-0.134,0.387-0.323,0.73-0.569,1.03c-0.248,0.3-0.534,0.557-0.861,0.771
			c-0.326,0.213-0.683,0.373-1.069,0.479s-0.78,0.16-1.181,0.16c-0.6,0-1.109-0.073-1.529-0.22s-0.764-0.34-1.029-0.58
			c-0.268-0.24-0.478-0.51-0.631-0.811c-0.153-0.3-0.264-0.604-0.33-0.91s-0.106-0.604-0.119-0.89
			c-0.014-0.286-0.021-0.536-0.021-0.75v-6.36h0.76v6.5c0,0.268,0.021,0.59,0.06,0.971c0.041,0.379,0.157,0.746,0.351,1.1
			c0.192,0.354,0.483,0.656,0.87,0.91s0.934,0.38,1.64,0.38c0.573,0,1.091-0.106,1.55-0.32c0.461-0.213,0.851-0.51,1.17-0.89
			c0.32-0.38,0.563-0.833,0.73-1.36c0.166-0.526,0.25-1.103,0.25-1.729v-5.56h0.76V24.41z"/>
		<path fill="#FFFFFF" d="M280.105,10.13v14.28h-0.76V10.13H280.105z"/>
		<path fill="#FFFFFF" d="M282.805,19.37v0.12c0,0.601,0.08,1.173,0.241,1.72c0.16,0.547,0.396,1.027,0.711,1.44
			s0.709,0.739,1.184,0.979s1.025,0.36,1.654,0.36c1.029,0,1.846-0.271,2.447-0.81c0.602-0.541,1.016-1.291,1.242-2.25h0.761
			c-0.228,1.199-0.717,2.119-1.47,2.76c-0.754,0.64-1.75,0.96-2.99,0.96c-0.76,0-1.424-0.138-1.99-0.41
			c-0.566-0.273-1.04-0.646-1.42-1.12c-0.38-0.473-0.664-1.033-0.85-1.68c-0.188-0.646-0.28-1.344-0.28-2.09
			c0-0.721,0.097-1.41,0.29-2.07s0.482-1.24,0.869-1.74s0.871-0.9,1.451-1.2c0.58-0.3,1.263-0.45,2.049-0.45
			c0.721,0,1.357,0.133,1.91,0.4c0.554,0.267,1.018,0.63,1.391,1.09c0.373,0.46,0.656,0.993,0.85,1.6
			c0.193,0.607,0.291,1.257,0.291,1.951c0,0.066-0.004,0.143-0.011,0.229s-0.01,0.157-0.01,0.21H282.805z M290.365,18.71
			c-0.026-0.56-0.119-1.09-0.28-1.59s-0.397-0.94-0.712-1.32c-0.314-0.38-0.695-0.683-1.143-0.91
			c-0.448-0.227-0.959-0.34-1.534-0.34c-0.615,0-1.157,0.117-1.624,0.35c-0.469,0.233-0.863,0.54-1.184,0.92
			c-0.32,0.38-0.568,0.823-0.742,1.33s-0.281,1.026-0.32,1.56H290.365z"/>
	</g>
</g>
</svg>
