<?xml version="1.0" encoding="utf-8"?>
<!-- Generator: Adobe Illustrator 16.0.0, SVG Export Plug-In . SVG Version: 6.00 Build 0)  -->
<!DOCTYPE svg PUBLIC "-//W3C//DTD SVG 1.0//EN" "http://www.w3.org/TR/2001/REC-SVG-20010904/DTD/svg10.dtd">
<svg version="1.0" id="Layer_1" xmlns="http://www.w3.org/2000/svg" xmlns:xlink="http://www.w3.org/1999/xlink" x="0px" y="0px"
	 width="203px" height="34.307px" viewBox="14 0 203 34.307" enable-background="new 14 0 203 34.307" xml:space="preserve">
<g>
	<g>
		<path fill="#3C3C3B" d="M29.93,24.001v-5.912h-3.013c-0.966,0-1.736,0.166-2.312,0.495c-0.575,0.33-0.862,0.886-0.862,1.667
			c0,0.66,0.203,1.158,0.609,1.496c0.406,0.337,0.9,0.506,1.483,0.506c0.307,0,0.625-0.035,0.955-0.104
			c0.33-0.069,0.64-0.165,0.932-0.288l0.391,1.909c-0.736,0.307-1.579,0.46-2.53,0.46c-0.598,0-1.158-0.081-1.679-0.241
			c-0.521-0.161-0.974-0.406-1.357-0.736s-0.687-0.744-0.908-1.242c-0.223-0.498-0.333-1.076-0.333-1.736
			c0-2.791,1.947-4.186,5.842-4.186h2.783v-0.368c0-0.874-0.223-1.572-0.667-2.093c-0.445-0.521-1.196-0.782-2.254-0.782
			c-0.92,0-1.744,0.138-2.472,0.414c-0.729,0.276-1.384,0.614-1.967,1.012l-0.805-1.725c0.276-0.199,0.602-0.402,0.978-0.609
			c0.375-0.207,0.793-0.387,1.253-0.541s0.955-0.28,1.483-0.379s1.084-0.149,1.667-0.149c1.671,0,2.963,0.437,3.875,1.311
			c0.912,0.874,1.369,2.047,1.369,3.519v8.304H29.93z"/>
		<path fill="#3C3C3B" d="M38.025,24.001l-3.887-12.88h2.484l3.266,10.833h0.276c0.429,0,0.843-0.107,1.242-0.322
			c0.399-0.215,0.751-0.529,1.058-0.943s0.552-0.916,0.736-1.506c0.184-0.591,0.276-1.254,0.276-1.99c0-1.548-0.25-2.648-0.748-3.3
			c-0.499-0.652-1.124-0.978-1.875-0.978c-0.506,0-0.997,0.092-1.472,0.276l-0.368-1.886c0.276-0.138,0.609-0.245,1-0.322
			c0.391-0.077,0.771-0.115,1.138-0.115c0.69,0,1.33,0.142,1.921,0.425c0.59,0.284,1.1,0.698,1.529,1.242
			c0.429,0.544,0.763,1.208,1,1.989c0.237,0.782,0.356,1.671,0.356,2.668c0,1.059-0.149,2.005-0.448,2.841
			c-0.299,0.835-0.709,1.549-1.231,2.139c-0.521,0.591-1.138,1.043-1.851,1.356c-0.713,0.314-1.492,0.473-2.334,0.473H38.025z"/>
		<path fill="#3C3C3B" d="M57.184,15.721c0-0.966-0.172-1.675-0.518-2.128c-0.345-0.452-0.839-0.678-1.483-0.678
			c-0.828,0-1.599,0.218-2.312,0.655s-1.299,0.978-1.759,1.622v8.81h-2.484v-12.88h2.254l0.23,1.748
			c0.245-0.245,0.529-0.487,0.851-0.725c0.322-0.238,0.667-0.452,1.035-0.644c0.368-0.191,0.767-0.345,1.196-0.46
			c0.429-0.115,0.889-0.172,1.38-0.172c1.288,0,2.292,0.425,3.013,1.276c0.72,0.851,1.081,2.021,1.081,3.507v8.35h-2.484V15.721z"/>
		<path fill="#3C3C3B" d="M64.567,13.582c0,0.322,0.161,0.483,0.483,0.483h2.346v1.932h-2.829c-0.675,0-1.23-0.168-1.667-0.506
			s-0.656-0.912-0.656-1.725v-1.104h2.323V13.582z M64.567,19.861c0,0.322,0.161,0.482,0.483,0.482h2.346v1.933h-2.829
			c-0.675,0-1.23-0.169-1.667-0.506s-0.656-0.912-0.656-1.726v-1.104h2.323V19.861z"/>
		<path fill="#3C3C3B" d="M72.617,11.121v12.88h-2.484v-12.88H72.617z"/>
		<path fill="#3C3C3B" d="M81.357,24.253c-1.748,0-3.094-0.425-4.037-1.275c-0.943-0.852-1.415-2.113-1.415-3.784v-8.073h2.484
			v8.073c0,0.951,0.253,1.69,0.759,2.22s1.242,0.793,2.208,0.793s1.702-0.264,2.208-0.793s0.759-1.269,0.759-2.22v-8.073h2.484
			v8.073c0,1.671-0.472,2.933-1.415,3.784C84.45,23.828,83.105,24.253,81.357,24.253z"/>
		<path fill="#3C3C3B" d="M76.642,9.419V7.487h7.889V5.348h2.254v4.071H76.642z"/>
		<path fill="#3C3C3B" d="M97.894,11.121h2.484v8.003c0,0.768-0.107,1.465-0.322,2.094c-0.215,0.629-0.552,1.169-1.012,1.621
			c-0.46,0.453-1.058,0.802-1.794,1.047c-0.736,0.244-1.625,0.367-2.668,0.367c-1.58,0-2.84-0.359-3.784-1.08
			c-0.943-0.721-1.415-1.771-1.415-3.151c0-0.751,0.203-1.396,0.61-1.933c0.406-0.536,0.946-0.889,1.621-1.058
			c-0.291-0.076-0.571-0.203-0.839-0.379c-0.269-0.176-0.506-0.395-0.713-0.655s-0.372-0.56-0.495-0.897
			c-0.123-0.337-0.184-0.705-0.184-1.104c0-0.429,0.077-0.828,0.23-1.196c0.153-0.368,0.376-0.69,0.667-0.966
			c0.292-0.276,0.648-0.491,1.07-0.644c0.421-0.153,0.9-0.23,1.438-0.23c0.506,0,0.95,0.042,1.334,0.126
			c0.383,0.084,0.72,0.188,1.012,0.311l-0.276,1.955c-0.215-0.092-0.448-0.168-0.702-0.23c-0.253-0.061-0.502-0.092-0.747-0.092
			c-0.537,0-0.943,0.123-1.219,0.368c-0.276,0.246-0.414,0.567-0.414,0.966c0,0.261,0.054,0.491,0.161,0.69
			c0.107,0.199,0.249,0.368,0.425,0.506c0.176,0.138,0.375,0.241,0.598,0.311c0.222,0.069,0.44,0.104,0.656,0.104h1.863l0.207,2.001
			h-1.702c-0.644,0-1.166,0.177-1.564,0.528c-0.399,0.354-0.598,0.828-0.598,1.427c0,0.368,0.077,0.694,0.23,0.978
			s0.357,0.521,0.61,0.713s0.552,0.338,0.897,0.438c0.345,0.1,0.709,0.148,1.092,0.148c1.089,0,1.901-0.271,2.438-0.816
			c0.537-0.544,0.805-1.307,0.805-2.288V11.121z"/>
		<path fill="#3C3C3B" d="M106.082,19.447c0,0.981,0.199,1.688,0.598,2.116c0.398,0.429,1.004,0.644,1.817,0.644
			c0.721,0,1.399-0.226,2.036-0.678c0.636-0.453,1.107-1.008,1.415-1.668v-8.74h2.484v12.88h-2.254l-0.23-1.726
			c-0.399,0.537-0.932,1.001-1.599,1.392s-1.483,0.586-2.449,0.586c-1.396,0-2.461-0.391-3.197-1.172
			c-0.736-0.783-1.104-1.971-1.104-3.565v-8.395h2.484V19.447z"/>
		<path fill="#3C3C3B" d="M129.449,5.923h0.461V28.9h-0.461V5.923z"/>
		<path fill="#3C3C3B" d="M144.531,9.721h5.961c0.626,0,1.213,0.063,1.76,0.19c0.546,0.127,1.025,0.333,1.439,0.62
			c0.413,0.287,0.736,0.664,0.971,1.13c0.232,0.467,0.35,1.047,0.35,1.74c0,0.96-0.27,1.77-0.811,2.43
			c-0.539,0.66-1.289,1.07-2.25,1.23v0.04c0.653,0.08,1.17,0.253,1.551,0.52c0.379,0.267,0.662,0.593,0.85,0.98
			c0.187,0.387,0.307,0.813,0.359,1.279c0.054,0.467,0.08,0.934,0.08,1.4c0,0.28,0,0.554,0,0.82s0.014,0.517,0.041,0.75
			c0.025,0.233,0.069,0.449,0.129,0.65c0.061,0.199,0.144,0.366,0.25,0.5h-0.979c-0.187-0.334-0.29-0.724-0.31-1.17
			c-0.021-0.447-0.03-0.91-0.03-1.391s-0.021-0.957-0.06-1.43c-0.041-0.473-0.168-0.896-0.381-1.27
			c-0.213-0.374-0.55-0.674-1.01-0.9c-0.46-0.227-1.109-0.34-1.949-0.34h-5.08v6.5h-0.881V9.721z M150.492,16.741
			c0.52,0,1.002-0.063,1.449-0.19c0.447-0.126,0.83-0.323,1.15-0.59c0.32-0.267,0.572-0.606,0.76-1.02
			c0.187-0.413,0.279-0.907,0.279-1.48c0-0.533-0.1-0.99-0.299-1.37c-0.201-0.38-0.467-0.69-0.801-0.93
			c-0.333-0.24-0.72-0.413-1.16-0.52c-0.439-0.107-0.899-0.16-1.379-0.16h-5.08v6.26H150.492z"/>
		<path fill="#3C3C3B" d="M157.271,18.96v0.121c0,0.6,0.08,1.173,0.24,1.719c0.16,0.547,0.397,1.027,0.712,1.441
			c0.313,0.412,0.708,0.739,1.183,0.979c0.475,0.239,1.026,0.36,1.654,0.36c1.029,0,1.846-0.271,2.447-0.811s1.016-1.29,1.243-2.25
			h0.761c-0.228,1.2-0.717,2.12-1.471,2.76c-0.754,0.641-1.75,0.961-2.99,0.961c-0.76,0-1.424-0.138-1.99-0.41
			c-0.566-0.273-1.039-0.646-1.42-1.121c-0.379-0.473-0.663-1.033-0.85-1.68c-0.188-0.646-0.279-1.343-0.279-2.09
			c0-0.72,0.096-1.41,0.289-2.07c0.193-0.66,0.483-1.24,0.87-1.74s0.87-0.9,1.45-1.2c0.58-0.3,1.264-0.45,2.05-0.45
			c0.72,0,1.356,0.133,1.91,0.4c0.554,0.267,1.017,0.63,1.39,1.09c0.373,0.46,0.656,0.993,0.851,1.6
			c0.192,0.607,0.29,1.257,0.29,1.95c0,0.066-0.004,0.144-0.01,0.23c-0.008,0.086-0.01,0.156-0.01,0.209H157.271z M164.831,18.3
			c-0.026-0.559-0.12-1.089-0.28-1.589c-0.161-0.5-0.398-0.94-0.713-1.32c-0.313-0.38-0.695-0.683-1.143-0.91
			c-0.447-0.227-0.959-0.34-1.533-0.34c-0.615,0-1.157,0.117-1.625,0.35c-0.469,0.233-0.863,0.54-1.184,0.92
			c-0.32,0.38-0.568,0.823-0.742,1.33c-0.173,0.507-0.28,1.027-0.32,1.559H164.831z"/>
		<path fill="#3C3C3B" d="M175.852,13.721v9.739c0,0.574-0.067,1.131-0.2,1.67c-0.134,0.541-0.362,1.018-0.688,1.431
			s-0.775,0.743-1.347,0.989c-0.572,0.247-1.297,0.371-2.175,0.371c-0.545,0-1.058-0.057-1.536-0.17
			c-0.479-0.113-0.897-0.294-1.257-0.541c-0.359-0.246-0.648-0.572-0.868-0.979s-0.343-0.91-0.369-1.51h0.76
			c0.04,0.453,0.153,0.84,0.34,1.159c0.187,0.32,0.431,0.584,0.73,0.791c0.3,0.206,0.636,0.355,1.01,0.449
			c0.373,0.094,0.772,0.141,1.2,0.141c0.707,0,1.297-0.107,1.77-0.32c0.474-0.213,0.85-0.49,1.131-0.83
			c0.279-0.34,0.477-0.727,0.59-1.16s0.17-0.869,0.17-1.31v-2.36h-0.059c-0.359,0.76-0.848,1.34-1.467,1.74s-1.367,0.6-2.245,0.6
			c-0.758,0-1.413-0.129-1.966-0.39c-0.552-0.26-1.011-0.62-1.377-1.08c-0.365-0.46-0.639-0.997-0.818-1.61s-0.269-1.279-0.269-2
			c0-0.68,0.097-1.326,0.29-1.939s0.477-1.15,0.85-1.61c0.373-0.46,0.837-0.827,1.391-1.1c0.553-0.273,1.189-0.41,1.91-0.41
			c0.812,0,1.562,0.207,2.25,0.62c0.686,0.414,1.176,1,1.469,1.76h0.041v-2.14H175.852z M171.352,14.141
			c-0.627,0-1.17,0.127-1.631,0.38c-0.46,0.253-0.84,0.587-1.14,1c-0.3,0.414-0.526,0.883-0.681,1.41
			c-0.152,0.527-0.229,1.063-0.229,1.609c0,0.601,0.077,1.17,0.229,1.711c0.154,0.539,0.387,1.01,0.701,1.41
			c0.312,0.399,0.699,0.717,1.159,0.949c0.46,0.233,0.99,0.35,1.591,0.35c0.626,0,1.172-0.119,1.64-0.359
			c0.466-0.24,0.856-0.566,1.17-0.98c0.313-0.412,0.546-0.883,0.7-1.41c0.152-0.525,0.229-1.082,0.229-1.67
			c0-0.572-0.077-1.126-0.229-1.66c-0.154-0.533-0.387-1.003-0.7-1.41s-0.704-0.73-1.17-0.97
			C172.523,14.26,171.978,14.141,171.352,14.141z"/>
		<path fill="#3C3C3B" d="M178.291,11.781v-2.06h0.76v2.06H178.291z M178.291,24.001v-10.28h0.76v10.28H178.291z"/>
		<path fill="#3C3C3B" d="M181.831,20.581c0.026,0.479,0.134,0.902,0.319,1.27c0.188,0.367,0.431,0.68,0.73,0.939
			c0.301,0.26,0.65,0.457,1.051,0.59c0.399,0.135,0.832,0.201,1.299,0.201c0.334,0,0.69-0.031,1.07-0.09
			c0.381-0.061,0.733-0.171,1.061-0.33c0.326-0.16,0.596-0.384,0.81-0.67c0.214-0.287,0.32-0.65,0.32-1.091
			c0-0.573-0.173-1.007-0.521-1.3c-0.347-0.293-0.783-0.52-1.31-0.68s-1.093-0.291-1.7-0.391s-1.174-0.25-1.699-0.449
			c-0.527-0.201-0.964-0.484-1.311-0.851c-0.348-0.367-0.52-0.903-0.52-1.61c0-0.507,0.113-0.93,0.34-1.27
			c0.227-0.34,0.516-0.61,0.869-0.81s0.75-0.343,1.19-0.43c0.44-0.086,0.88-0.13,1.319-0.13c0.533,0,1.033,0.06,1.5,0.18
			c0.467,0.12,0.871,0.313,1.211,0.58s0.606,0.606,0.8,1.02c0.192,0.414,0.29,0.914,0.29,1.5h-0.76c0-0.466-0.077-0.866-0.23-1.2
			c-0.153-0.333-0.367-0.603-0.64-0.81c-0.273-0.207-0.597-0.36-0.97-0.46c-0.374-0.1-0.773-0.15-1.201-0.15
			c-0.346,0-0.696,0.033-1.049,0.1c-0.354,0.066-0.67,0.18-0.951,0.34c-0.279,0.16-0.51,0.367-0.689,0.62s-0.27,0.56-0.27,0.92
			c0,0.413,0.1,0.747,0.3,1s0.463,0.457,0.79,0.61c0.326,0.153,0.693,0.276,1.1,0.37s0.816,0.188,1.23,0.279
			c0.506,0.094,0.982,0.204,1.43,0.33c0.447,0.127,0.833,0.301,1.16,0.521c0.326,0.22,0.583,0.503,0.77,0.851
			c0.188,0.346,0.28,0.786,0.28,1.319c0,0.56-0.127,1.021-0.38,1.38c-0.254,0.36-0.573,0.65-0.96,0.87s-0.817,0.373-1.29,0.46
			c-0.474,0.087-0.938,0.131-1.391,0.131c-0.586,0-1.129-0.078-1.629-0.23c-0.5-0.153-0.938-0.387-1.311-0.7
			s-0.667-0.696-0.88-1.149c-0.214-0.453-0.327-0.98-0.34-1.58H181.831z"/>
		<path fill="#3C3C3B" d="M194.871,14.381h-2.24v7.18c0,0.413,0.047,0.739,0.14,0.979s0.237,0.424,0.431,0.551
			s0.426,0.203,0.699,0.229s0.59,0.034,0.95,0.021v0.66c-0.387,0.025-0.763,0.022-1.13-0.01c-0.367-0.033-0.689-0.134-0.971-0.301
			c-0.279-0.166-0.503-0.416-0.67-0.75c-0.166-0.333-0.236-0.793-0.209-1.38v-7.18h-1.9v-0.66h1.9v-3.2h0.76v3.2h2.24V14.381z"/>
		<path fill="#3C3C3B" d="M196.271,18.96v0.121c0,0.6,0.08,1.173,0.241,1.719c0.16,0.547,0.396,1.027,0.711,1.441
			c0.314,0.412,0.709,0.739,1.184,0.979c0.475,0.239,1.025,0.36,1.654,0.36c1.029,0,1.846-0.271,2.447-0.811s1.016-1.29,1.242-2.25
			h0.761c-0.228,1.2-0.717,2.12-1.47,2.76c-0.754,0.641-1.75,0.961-2.99,0.961c-0.76,0-1.424-0.138-1.99-0.41
			c-0.566-0.273-1.04-0.646-1.42-1.121c-0.38-0.473-0.664-1.033-0.85-1.68c-0.188-0.646-0.28-1.343-0.28-2.09
			c0-0.72,0.097-1.41,0.29-2.07c0.193-0.66,0.482-1.24,0.869-1.74s0.871-0.9,1.451-1.2c0.58-0.3,1.263-0.45,2.049-0.45
			c0.721,0,1.357,0.133,1.91,0.4c0.554,0.267,1.018,0.63,1.391,1.09c0.373,0.46,0.656,0.993,0.85,1.6
			c0.193,0.607,0.291,1.257,0.291,1.95c0,0.066-0.004,0.144-0.011,0.23c-0.007,0.086-0.01,0.156-0.01,0.209H196.271z M203.83,18.3
			c-0.026-0.559-0.119-1.089-0.28-1.589s-0.397-0.94-0.712-1.32c-0.314-0.38-0.695-0.683-1.143-0.91
			c-0.448-0.227-0.959-0.34-1.534-0.34c-0.615,0-1.157,0.117-1.624,0.35c-0.469,0.233-0.863,0.54-1.184,0.92
			c-0.32,0.38-0.568,0.823-0.742,1.33s-0.281,1.027-0.32,1.559H203.83z"/>
		<path fill="#3C3C3B" d="M207.131,16.001h0.06c0.093-0.333,0.263-0.646,0.511-0.94c0.246-0.293,0.546-0.546,0.899-0.76
			c0.353-0.213,0.747-0.376,1.18-0.49s0.884-0.163,1.351-0.15v0.76c-0.4-0.053-0.857-0.013-1.371,0.12
			c-0.513,0.133-1.003,0.427-1.469,0.88c-0.188,0.2-0.351,0.394-0.49,0.58c-0.141,0.187-0.258,0.394-0.35,0.62
			c-0.094,0.227-0.168,0.48-0.221,0.76c-0.053,0.281-0.087,0.614-0.1,1v5.621h-0.76v-10.28h0.76V16.001z"/>
	</g>
</g>
</svg>
