<?xml version="1.0" encoding="utf-8"?>
<!-- Generator: Adobe Illustrator 16.0.0, SVG Export Plug-In . SVG Version: 6.00 Build 0)  -->
<!DOCTYPE svg PUBLIC "-//W3C//DTD SVG 1.0//EN" "http://www.w3.org/TR/2001/REC-SVG-20010904/DTD/svg10.dtd">
<svg version="1.0" id="Layer_1" xmlns="http://www.w3.org/2000/svg" xmlns:xlink="http://www.w3.org/1999/xlink" x="0px" y="0px"
	 width="239px" height="34.307px" viewBox="89.902 0 239 34.307" enable-background="new 89.902 0 239 34.307" xml:space="preserve"
	>
<g>
	<g>
		<path fill="#FFFFFF" d="M100.665,13.804l2.208-1.449c1.104,0.261,1.936,0.751,2.496,1.472c0.56,0.721,0.839,1.641,0.839,2.76
			v8.901h-2.484v-8.971c0-1.073-0.391-1.725-1.173-1.955l-1.886,1.173l-1.84-1.15c-0.706,0.23-1.277,0.736-1.714,1.518
			c-0.437,0.782-0.655,1.794-0.655,3.036c0,0.844,0.092,1.549,0.276,2.116s0.421,1.023,0.713,1.369
			c0.292,0.344,0.617,0.594,0.978,0.746c0.36,0.154,0.717,0.23,1.07,0.23c0.306,0,0.59-0.02,0.851-0.057
			c0.261-0.039,0.521-0.119,0.782-0.242l0.46,1.863c-0.292,0.153-0.625,0.271-1,0.356c-0.376,0.084-0.801,0.126-1.276,0.126
			c-0.721,0-1.407-0.123-2.059-0.367c-0.652-0.246-1.219-0.633-1.702-1.162s-0.866-1.203-1.15-2.023s-0.425-1.807-0.425-2.956
			c0-0.858,0.107-1.667,0.322-2.426c0.215-0.759,0.525-1.434,0.932-2.024c0.406-0.59,0.893-1.089,1.46-1.495
			c0.567-0.406,1.204-0.686,1.909-0.839L100.665,13.804z"/>
		<path fill="#FFFFFF" d="M96.065,10.906V8.974h10.166v1.932H96.065z"/>
		<path fill="#FFFFFF" d="M118.444,25.489V17.76c0-0.981-0.272-1.786-0.816-2.415c-0.544-0.628-1.338-0.943-2.381-0.943
			c-1.242,0-2.2,0.429-2.875,1.288s-1.012,2.032-1.012,3.519c0,0.828,0.092,1.521,0.276,2.082c0.184,0.559,0.421,1.012,0.713,1.356
			s0.617,0.591,0.978,0.735c0.36,0.146,0.717,0.219,1.07,0.219c0.306,0,0.59-0.02,0.851-0.057c0.261-0.039,0.521-0.119,0.782-0.242
			l0.46,1.863c-0.292,0.153-0.625,0.271-1,0.356c-0.376,0.084-0.801,0.126-1.276,0.126c-0.69,0-1.357-0.126-2.001-0.379
			c-0.644-0.254-1.215-0.645-1.713-1.174c-0.499-0.528-0.894-1.199-1.185-2.012c-0.292-0.812-0.437-1.771-0.437-2.875
			c0-0.967,0.134-1.867,0.402-2.703c0.268-0.835,0.667-1.56,1.196-2.173c0.529-0.613,1.188-1.096,1.978-1.449
			c0.79-0.353,1.698-0.529,2.726-0.529c0.951,0,1.786,0.142,2.507,0.425c0.72,0.284,1.322,0.671,1.805,1.162
			s0.843,1.066,1.081,1.725s0.356,1.365,0.356,2.116v7.705H118.444z"/>
		<path fill="#FFFFFF" d="M130.174,13.804l2.208-1.449c1.104,0.261,1.936,0.751,2.496,1.472c0.56,0.721,0.839,1.641,0.839,2.76
			v8.901h-2.484v-8.971c0-1.073-0.391-1.725-1.173-1.955l-1.886,1.173l-1.84-1.15c-0.706,0.23-1.277,0.736-1.714,1.518
			c-0.437,0.782-0.655,1.794-0.655,3.036c0,0.844,0.092,1.549,0.276,2.116s0.421,1.023,0.713,1.369
			c0.292,0.344,0.617,0.594,0.978,0.746c0.36,0.154,0.717,0.23,1.07,0.23c0.306,0,0.59-0.02,0.851-0.057
			c0.261-0.039,0.521-0.119,0.782-0.242l0.46,1.863c-0.292,0.153-0.625,0.271-1,0.356c-0.376,0.084-0.801,0.126-1.276,0.126
			c-0.721,0-1.407-0.123-2.059-0.367c-0.652-0.246-1.219-0.633-1.702-1.162s-0.866-1.203-1.15-2.023s-0.425-1.807-0.425-2.956
			c0-0.858,0.107-1.667,0.322-2.426c0.215-0.759,0.525-1.434,0.932-2.024c0.406-0.59,0.893-1.089,1.46-1.495
			c0.567-0.406,1.204-0.686,1.909-0.839L130.174,13.804z"/>
		<path fill="#FFFFFF" d="M133.394,10.906v-4.14h2.346v4.14H133.394z"/>
		<path fill="#FFFFFF" d="M141.306,20.106c-0.337,0-0.506,0.184-0.506,0.553v0.345c0,1.794,1.027,2.69,3.082,2.69
			c1.15,0,2.058-0.375,2.725-1.127c0.667-0.75,1-1.955,1-3.611c0-1.471-0.345-2.598-1.035-3.38c-0.69-0.782-1.618-1.173-2.783-1.173
			c-0.966,0-1.833,0.153-2.599,0.46s-1.441,0.683-2.024,1.127l-0.805-1.84c0.291-0.23,0.628-0.452,1.012-0.667
			s0.809-0.406,1.276-0.575c0.468-0.168,0.974-0.303,1.518-0.402s1.116-0.149,1.714-0.149c0.966,0,1.832,0.149,2.599,0.448
			s1.418,0.736,1.955,1.311s0.947,1.276,1.23,2.104s0.426,1.771,0.426,2.829c0,2.224-0.533,3.896-1.599,5.015
			c-1.066,1.119-2.557,1.678-4.474,1.678c-1.917,0-3.339-0.417-4.267-1.253c-0.928-0.835-1.391-1.997-1.391-3.484v-0.529
			c0-1.61,0.782-2.415,2.346-2.415h2.507v2.047H141.306z"/>
		<path fill="#FFFFFF" d="M160.511,25.489v-5.912h-3.013c-0.966,0-1.736,0.166-2.312,0.495c-0.575,0.33-0.862,0.886-0.862,1.667
			c0,0.66,0.203,1.158,0.609,1.496c0.406,0.337,0.9,0.506,1.483,0.506c0.307,0,0.625-0.035,0.955-0.104
			c0.33-0.069,0.64-0.165,0.932-0.288l0.391,1.909c-0.736,0.307-1.579,0.46-2.53,0.46c-0.598,0-1.158-0.081-1.679-0.241
			c-0.521-0.161-0.974-0.406-1.357-0.736s-0.687-0.744-0.908-1.242c-0.223-0.498-0.333-1.076-0.333-1.736
			c0-2.791,1.947-4.186,5.842-4.186h2.783v-0.368c0-0.414-0.054-0.794-0.161-1.139c-0.107-0.345-0.276-0.647-0.506-0.909
			c-0.23-0.26-0.529-0.463-0.897-0.609c-0.368-0.146-0.812-0.218-1.334-0.218c-0.935,0-1.767,0.138-2.495,0.414
			c-0.729,0.276-1.384,0.614-1.967,1.012l-0.805-1.725c0.276-0.214,0.609-0.421,1-0.621c0.391-0.199,0.816-0.379,1.276-0.541
			c0.46-0.161,0.951-0.287,1.472-0.379c0.521-0.092,1.05-0.138,1.587-0.138c0.889,0,1.648,0.146,2.277,0.437l0.897-1.081h2.76
			l-1.84,2.231c0.398,0.414,0.698,0.897,0.897,1.449c0.199,0.552,0.299,1.15,0.299,1.794v8.304H160.511z"/>
		<path fill="#FFFFFF" d="M168.538,20.106c-0.337,0-0.506,0.184-0.506,0.553v0.345c0,1.794,1.027,2.69,3.082,2.69
			c1.15,0,2.058-0.375,2.725-1.127c0.667-0.75,1-1.955,1-3.611c0-1.471-0.345-2.598-1.035-3.38c-0.69-0.782-1.618-1.173-2.783-1.173
			c-0.966,0-1.833,0.153-2.599,0.46s-1.441,0.683-2.024,1.127l-0.805-1.84c0.291-0.23,0.628-0.452,1.012-0.667
			s0.809-0.406,1.276-0.575c0.468-0.168,0.974-0.303,1.518-0.402s1.116-0.149,1.714-0.149c0.966,0,1.832,0.149,2.599,0.448
			s1.418,0.736,1.955,1.311s0.947,1.276,1.23,2.104s0.426,1.771,0.426,2.829c0,2.224-0.533,3.896-1.599,5.015
			c-1.066,1.119-2.557,1.678-4.474,1.678c-1.917,0-3.339-0.417-4.267-1.253c-0.928-0.835-1.391-1.997-1.391-3.484v-0.529
			c0-1.61,0.782-2.415,2.346-2.415h2.507v2.047H168.538z"/>
		<path fill="#FFFFFF" d="M185.397,25.741c-1.748,0-3.094-0.425-4.037-1.275c-0.943-0.852-1.415-2.113-1.415-3.784v-8.073h2.484
			v8.073c0,0.951,0.253,1.69,0.759,2.22s1.242,0.793,2.208,0.793s1.702-0.264,2.208-0.793s0.759-1.269,0.759-2.22v-8.073h2.484
			v8.073c0,1.671-0.472,2.933-1.415,3.784C188.49,25.316,187.145,25.741,185.397,25.741z"/>
		<path fill="#FFFFFF" d="M196.574,23.005c0,0.153,0.03,0.272,0.092,0.356c0.062,0.085,0.177,0.126,0.345,0.126h1.288v2.002h-1.909
			c-0.751,0-1.322-0.211-1.713-0.633s-0.587-0.978-0.587-1.668V20.06c0-0.46,0.111-0.886,0.333-1.276
			c0.223-0.391,0.518-0.693,0.887-0.908l-1.863-1.564c0.138-0.506,0.387-0.997,0.747-1.472c0.36-0.475,0.802-0.897,1.323-1.265
			c0.521-0.368,1.119-0.663,1.793-0.885c0.675-0.222,1.396-0.333,2.162-0.333c0.89,0,1.68,0.126,2.369,0.379
			c0.69,0.253,1.266,0.602,1.725,1.046c0.461,0.445,0.809,0.978,1.047,1.599s0.357,1.307,0.357,2.059v8.05h-2.484v-8.05
			c0-1.012-0.269-1.771-0.805-2.277c-0.537-0.506-1.289-0.759-2.254-0.759c-0.385,0-0.752,0.046-1.104,0.138
			c-0.353,0.092-0.679,0.223-0.978,0.391c-0.299,0.169-0.561,0.365-0.782,0.586c-0.223,0.223-0.388,0.457-0.495,0.702l1.841,1.609
			c-0.445,0.185-0.778,0.445-1.001,0.783c-0.223,0.337-0.333,0.773-0.333,1.311V23.005z"/>
		<path fill="#FFFFFF" d="M213.548,25.489v-8.28c0-1.871-0.805-2.806-2.414-2.806c-0.706,0-1.385,0.13-2.036,0.391
			s-1.224,0.567-1.714,0.92l-0.644-1.817c0.536-0.399,1.219-0.755,2.047-1.07c0.828-0.314,1.687-0.471,2.576-0.471
			c1.532,0,2.694,0.437,3.484,1.311c0.79,0.874,1.185,2.085,1.185,3.634v8.188H213.548z"/>
		<path fill="#FFFFFF" d="M227.648,12.609h2.483v8.166c0,1.594-0.38,2.82-1.138,3.68c-0.76,0.858-1.859,1.287-3.301,1.287
			c-0.905,0-1.684-0.195-2.335-0.586s-1.177-0.854-1.575-1.392l-0.23,1.726h-2.254v-12.88h2.484v8.74
			c0.307,0.645,0.773,1.196,1.402,1.656s1.304,0.689,2.024,0.689c1.625,0,2.438-0.996,2.438-2.99V12.609z"/>
		<path fill="#FFFFFF" d="M245.104,7.41h0.46v22.977h-0.46V7.41z"/>
		<path fill="#FFFFFF" d="M259.646,18.348c0-1.04,0.152-2.017,0.46-2.93c0.306-0.913,0.75-1.707,1.329-2.38
			c0.58-0.673,1.294-1.203,2.141-1.59s1.803-0.58,2.87-0.58c0.84,0,1.566,0.11,2.181,0.33c0.612,0.22,1.129,0.494,1.549,0.82
			c0.42,0.327,0.764,0.684,1.03,1.07s0.47,0.75,0.61,1.09c0.14,0.34,0.236,0.633,0.29,0.88c0.053,0.247,0.079,0.384,0.079,0.41
			h-0.879c-0.094-0.6-0.287-1.137-0.58-1.61c-0.294-0.473-0.66-0.876-1.1-1.21c-0.441-0.333-0.931-0.587-1.471-0.76
			c-0.54-0.173-1.109-0.26-1.71-0.26c-0.934,0-1.767,0.18-2.5,0.54c-0.733,0.36-1.354,0.843-1.86,1.45
			c-0.506,0.607-0.893,1.317-1.16,2.13c-0.267,0.813-0.399,1.68-0.399,2.6s0.133,1.787,0.399,2.6
			c0.268,0.814,0.654,1.523,1.16,2.131c0.507,0.606,1.127,1.09,1.86,1.449c0.733,0.36,1.566,0.541,2.5,0.541
			c0.692,0,1.343-0.144,1.95-0.431c0.606-0.286,1.137-0.667,1.59-1.14s0.816-1.02,1.09-1.641c0.273-0.619,0.43-1.263,0.471-1.93
			h0.879c-0.08,0.854-0.289,1.641-0.629,2.359c-0.341,0.721-0.773,1.344-1.301,1.871c-0.527,0.526-1.137,0.937-1.83,1.229
			c-0.693,0.294-1.434,0.44-2.22,0.44c-1.067,0-2.023-0.193-2.87-0.58s-1.561-0.917-2.141-1.59
			c-0.579-0.674-1.023-1.467-1.329-2.381C259.798,20.366,259.646,19.388,259.646,18.348z"/>
		<path fill="#FFFFFF" d="M273.646,20.348c0-0.732,0.104-1.423,0.311-2.07c0.206-0.646,0.51-1.216,0.909-1.709
			s0.894-0.883,1.479-1.17c0.588-0.287,1.261-0.43,2.021-0.43c0.761,0,1.433,0.144,2.021,0.43c0.586,0.287,1.08,0.677,1.479,1.17
			s0.703,1.063,0.91,1.709c0.206,0.647,0.31,1.338,0.31,2.07c0,0.733-0.104,1.428-0.31,2.08c-0.207,0.653-0.511,1.224-0.91,1.71
			c-0.399,0.487-0.894,0.874-1.479,1.16c-0.588,0.286-1.26,0.431-2.021,0.431c-0.76,0-1.433-0.145-2.021-0.431
			c-0.586-0.286-1.08-0.673-1.479-1.16c-0.399-0.486-0.703-1.057-0.909-1.71C273.749,21.776,273.646,21.082,273.646,20.348z
			 M274.406,20.348c0,0.613,0.086,1.203,0.26,1.77c0.174,0.567,0.427,1.07,0.76,1.511c0.334,0.44,0.747,0.79,1.24,1.05
			c0.494,0.26,1.061,0.391,1.7,0.391s1.206-0.131,1.7-0.391c0.493-0.26,0.906-0.609,1.24-1.05c0.333-0.44,0.586-0.943,0.76-1.511
			c0.173-0.566,0.26-1.156,0.26-1.77s-0.087-1.203-0.26-1.77c-0.174-0.566-0.427-1.07-0.76-1.51c-0.334-0.44-0.747-0.79-1.24-1.05
			c-0.494-0.26-1.061-0.39-1.7-0.39s-1.206,0.13-1.7,0.39c-0.493,0.26-0.906,0.61-1.24,1.05c-0.333,0.44-0.586,0.944-0.76,1.51
			S274.406,19.735,274.406,20.348z"/>
		<path fill="#FFFFFF" d="M284.865,15.209h0.76v2.2h0.04c0.133-0.387,0.323-0.73,0.57-1.03c0.246-0.3,0.533-0.557,0.859-0.77
			c0.327-0.213,0.684-0.373,1.07-0.48s0.78-0.16,1.18-0.16c0.601,0,1.11,0.073,1.53,0.22c0.42,0.146,0.763,0.34,1.03,0.58
			c0.267,0.24,0.477,0.51,0.63,0.81c0.153,0.3,0.263,0.604,0.33,0.91c0.066,0.307,0.106,0.604,0.12,0.89
			c0.013,0.286,0.02,0.536,0.02,0.75v6.36h-0.76v-6.5c0-0.254-0.02-0.574-0.061-0.961c-0.039-0.386-0.156-0.756-0.35-1.109
			c-0.193-0.354-0.486-0.657-0.88-0.91c-0.394-0.253-0.937-0.38-1.63-0.38c-0.587,0-1.107,0.107-1.561,0.32
			c-0.453,0.213-0.84,0.51-1.16,0.89c-0.319,0.38-0.562,0.834-0.729,1.359c-0.167,0.527-0.25,1.104-0.25,1.73v5.561h-0.76V15.209z"
			/>
		<path fill="#FFFFFF" d="M299.025,15.868h-2.239v7.18c0,0.413,0.046,0.739,0.14,0.979s0.236,0.424,0.43,0.551
			s0.428,0.203,0.701,0.229c0.272,0.026,0.59,0.034,0.949,0.021v0.66c-0.387,0.025-0.764,0.022-1.13-0.01
			c-0.366-0.033-0.69-0.134-0.97-0.301c-0.28-0.166-0.504-0.416-0.67-0.75c-0.167-0.333-0.237-0.793-0.211-1.38v-7.18h-1.899v-0.66
			h1.899v-3.2h0.761v3.2h2.239V15.868z"/>
		<path fill="#FFFFFF" d="M307.245,23.448h-0.041c-0.119,0.308-0.293,0.598-0.52,0.871s-0.504,0.516-0.83,0.729
			s-0.697,0.38-1.109,0.5c-0.414,0.12-0.867,0.181-1.36,0.181c-1.094,0-1.94-0.238-2.54-0.711s-0.9-1.203-0.9-2.189
			c0-0.6,0.12-1.09,0.36-1.471c0.24-0.379,0.543-0.68,0.91-0.899c0.366-0.22,0.772-0.377,1.22-0.47
			c0.447-0.094,0.877-0.16,1.29-0.201l1.181-0.1c0.546-0.039,0.977-0.104,1.289-0.189c0.313-0.087,0.551-0.207,0.711-0.36
			c0.159-0.153,0.26-0.351,0.299-0.59c0.041-0.24,0.061-0.54,0.061-0.9c0-0.28-0.053-0.54-0.16-0.78
			c-0.106-0.24-0.273-0.453-0.5-0.64c-0.227-0.187-0.52-0.333-0.88-0.44c-0.36-0.106-0.8-0.16-1.319-0.16
			c-0.92,0-1.664,0.227-2.23,0.68c-0.566,0.454-0.877,1.14-0.93,2.06h-0.76c0.053-1.132,0.416-1.982,1.09-2.549
			c0.673-0.566,1.629-0.85,2.869-0.85s2.144,0.244,2.711,0.73c0.566,0.487,0.85,1.124,0.85,1.91v5.98
			c0,0.146,0.003,0.293,0.01,0.439c0.007,0.147,0.03,0.28,0.07,0.4c0.039,0.12,0.106,0.217,0.199,0.29
			c0.094,0.073,0.227,0.11,0.4,0.11c0.133,0,0.32-0.021,0.561-0.061v0.641c-0.2,0.053-0.407,0.08-0.621,0.08
			c-0.307,0-0.549-0.041-0.729-0.121c-0.18-0.08-0.317-0.186-0.409-0.319c-0.094-0.134-0.158-0.29-0.19-0.47
			c-0.034-0.18-0.05-0.377-0.05-0.59V23.448z M307.245,19.649c-0.188,0.227-0.471,0.379-0.851,0.459s-0.804,0.141-1.271,0.18
			l-1.279,0.121c-0.373,0.039-0.747,0.097-1.12,0.17c-0.374,0.073-0.71,0.197-1.01,0.369c-0.3,0.174-0.544,0.41-0.729,0.711
			c-0.188,0.3-0.281,0.689-0.281,1.17c0,0.76,0.24,1.323,0.721,1.689c0.48,0.367,1.14,0.551,1.98,0.551
			c0.866,0,1.553-0.157,2.06-0.471c0.507-0.312,0.894-0.673,1.159-1.08c0.268-0.406,0.438-0.8,0.511-1.18s0.11-0.637,0.11-0.77
			V19.649z"/>
		<path fill="#FFFFFF" d="M318.165,18.388c-0.041-0.453-0.157-0.853-0.351-1.2s-0.443-0.633-0.75-0.86
			c-0.307-0.227-0.663-0.4-1.069-0.52c-0.407-0.12-0.844-0.18-1.311-0.18c-0.64,0-1.207,0.13-1.699,0.39
			c-0.494,0.26-0.908,0.607-1.24,1.04c-0.334,0.434-0.588,0.927-0.76,1.479c-0.174,0.555-0.261,1.124-0.261,1.711
			c0,0.693,0.08,1.333,0.24,1.92c0.159,0.587,0.406,1.097,0.739,1.529c0.334,0.434,0.747,0.771,1.24,1.011
			c0.494,0.239,1.073,0.36,1.74,0.36c0.48,0,0.924-0.08,1.33-0.24s0.767-0.381,1.08-0.66c0.312-0.28,0.57-0.617,0.77-1.01
			c0.2-0.394,0.334-0.824,0.4-1.291h0.76c-0.08,0.614-0.246,1.16-0.5,1.641c-0.253,0.48-0.573,0.883-0.96,1.21
			s-0.827,0.577-1.319,0.75c-0.494,0.173-1.014,0.261-1.561,0.261c-0.84,0-1.557-0.15-2.15-0.451
			c-0.593-0.299-1.08-0.703-1.459-1.209c-0.381-0.508-0.66-1.09-0.84-1.75c-0.181-0.66-0.271-1.351-0.271-2.07
			c0-0.721,0.103-1.4,0.31-2.04c0.207-0.64,0.51-1.2,0.91-1.68s0.893-0.86,1.48-1.14c0.586-0.28,1.26-0.42,2.02-0.42
			c0.561,0,1.083,0.07,1.57,0.21c0.486,0.14,0.92,0.35,1.3,0.63c0.38,0.28,0.69,0.637,0.931,1.07
			c0.239,0.433,0.386,0.937,0.439,1.51H318.165z"/>
		<path fill="#FFFFFF" d="M324.585,15.868h-2.24v7.18c0,0.413,0.047,0.739,0.14,0.979s0.237,0.424,0.431,0.551
			s0.426,0.203,0.699,0.229s0.59,0.034,0.95,0.021v0.66c-0.387,0.025-0.763,0.022-1.13-0.01c-0.367-0.033-0.689-0.134-0.971-0.301
			c-0.279-0.166-0.503-0.416-0.67-0.75c-0.166-0.333-0.236-0.793-0.209-1.38v-7.18h-1.9v-0.66h1.9v-3.2h0.76v3.2h2.24V15.868z"/>
	</g>
</g>
</svg>
