<?xml version="1.0" encoding="utf-8"?>
<!-- Generator: Adobe Illustrator 16.0.0, SVG Export Plug-In . SVG Version: 6.00 Build 0)  -->
<!DOCTYPE svg PUBLIC "-//W3C//DTD SVG 1.0//EN" "http://www.w3.org/TR/2001/REC-SVG-20010904/DTD/svg10.dtd">
<svg version="1.0" id="Layer_1" xmlns="http://www.w3.org/2000/svg" xmlns:xlink="http://www.w3.org/1999/xlink" x="0px" y="0px"
	 width="258.333px" height="34.307px" viewBox="81.568 0 258.333 34.307" enable-background="new 81.568 0 258.333 34.307"
	 xml:space="preserve">
<g>
	<g>
		<path fill="#FFFFFF" d="M93.804,25.489v-8.05c0-1.012-0.264-1.771-0.793-2.277c-0.529-0.506-1.276-0.759-2.242-0.759
			c-0.384,0-0.751,0.046-1.104,0.138c-0.353,0.092-0.679,0.223-0.978,0.391c-0.299,0.169-0.56,0.365-0.782,0.586
			c-0.223,0.223-0.387,0.457-0.495,0.702l1.84,1.61c-0.445,0.185-0.779,0.445-1,0.782c-0.223,0.338-0.333,0.774-0.333,1.311v5.566
			h-2.484v-5.428c0-0.461,0.111-0.886,0.333-1.277c0.222-0.391,0.518-0.693,0.886-0.908l-1.863-1.563
			c0.138-0.506,0.387-0.997,0.748-1.472c0.36-0.475,0.801-0.897,1.323-1.265c0.521-0.368,1.115-0.663,1.782-0.885
			s1.384-0.333,2.151-0.333c0.889,0,1.679,0.126,2.369,0.379s1.265,0.602,1.725,1.046c0.46,0.445,0.809,0.978,1.046,1.599
			s0.356,1.307,0.356,2.059v8.05H93.804z"/>
		<path fill="#FFFFFF" d="M104.867,25.489v-8.28c0-1.871-0.805-2.806-2.415-2.806c-0.706,0-1.384,0.13-2.036,0.391
			c-0.652,0.261-1.223,0.567-1.713,0.92l-0.644-1.817c0.537-0.399,1.219-0.755,2.047-1.07c0.828-0.314,1.687-0.471,2.576-0.471
			c1.533,0,2.694,0.437,3.484,1.311c0.79,0.874,1.185,2.085,1.185,3.634v8.188H104.867z"/>
		<path fill="#FFFFFF" d="M114.228,23.718c0.92,0,1.622-0.148,2.104-0.448c0.483-0.299,0.725-0.716,0.725-1.253
			c0-0.291-0.088-0.549-0.265-0.771c-0.176-0.222-0.411-0.421-0.702-0.598c-0.292-0.176-0.613-0.325-0.966-0.448
			c-0.353-0.122-0.713-0.245-1.081-0.368c-0.583-0.184-1.127-0.383-1.633-0.598c-0.506-0.215-0.943-0.475-1.311-0.782
			c-0.368-0.307-0.66-0.675-0.874-1.104c-0.215-0.429-0.322-0.951-0.322-1.564c0-0.506,0.115-0.97,0.345-1.392
			c0.23-0.421,0.556-0.782,0.978-1.081c0.421-0.299,0.931-0.532,1.529-0.701c0.598-0.168,1.257-0.253,1.978-0.253
			c0.843,0,1.625,0.092,2.346,0.276c0.72,0.184,1.372,0.429,1.955,0.736l-0.644,1.84c-0.537-0.292-1.089-0.499-1.656-0.621
			s-1.181-0.184-1.84-0.184c-0.782,0-1.407,0.123-1.875,0.368c-0.468,0.245-0.702,0.59-0.702,1.035c0,0.261,0.073,0.487,0.219,0.679
			c0.146,0.192,0.341,0.364,0.586,0.518c0.245,0.153,0.537,0.295,0.874,0.425c0.337,0.13,0.705,0.257,1.104,0.38
			c0.69,0.229,1.303,0.468,1.84,0.713s0.993,0.533,1.369,0.862c0.375,0.33,0.663,0.717,0.862,1.161
			c0.199,0.445,0.299,0.967,0.299,1.564c0,1.073-0.418,1.947-1.254,2.622s-2.112,1.012-3.829,1.012c-1.81,0-3.282-0.329-4.416-0.989
			l0.598-1.908c0.521,0.26,1.093,0.471,1.714,0.632C112.906,23.637,113.553,23.718,114.228,23.718z"/>
		<path fill="#FFFFFF" d="M124.624,12.609v12.88h-2.484v-12.88H124.624z"/>
		<path fill="#FFFFFF" d="M136.906,25.489V17.76c0-0.98-0.272-1.786-0.816-2.415c-0.544-0.628-1.338-0.943-2.381-0.943
			c-1.242,0-2.2,0.429-2.875,1.288s-1.012,2.032-1.012,3.519c0,0.828,0.092,1.522,0.276,2.082s0.421,1.012,0.713,1.357
			c0.292,0.344,0.617,0.59,0.978,0.735s0.717,0.218,1.07,0.218c0.306,0,0.59-0.019,0.851-0.057s0.521-0.119,0.782-0.242l0.46,1.863
			c-0.292,0.154-0.625,0.272-1,0.357c-0.376,0.084-0.801,0.126-1.276,0.126c-0.69,0-1.357-0.126-2.001-0.38
			c-0.644-0.253-1.215-0.644-1.713-1.173c-0.499-0.528-0.894-1.2-1.185-2.013c-0.292-0.812-0.437-1.771-0.437-2.875
			c0-0.966,0.134-1.866,0.402-2.702c0.268-0.835,0.667-1.56,1.196-2.173c0.529-0.613,1.188-1.096,1.978-1.449
			c0.79-0.353,1.698-0.529,2.726-0.529c0.951,0,1.786,0.142,2.507,0.425c0.72,0.284,1.322,0.671,1.805,1.162
			s0.843,1.066,1.081,1.725s0.356,1.365,0.356,2.116v7.705H136.906z"/>
		<path fill="#FFFFFF" d="M129.132,10.907V8.975h10.166v1.932H129.132z"/>
		<path fill="#FFFFFF" d="M145.002,20.934c0,0.982,0.199,1.688,0.598,2.117c0.398,0.429,1.004,0.644,1.817,0.644
			c0.721,0,1.399-0.226,2.036-0.679c0.636-0.452,1.107-1.008,1.415-1.668v-8.739h2.484v12.88h-2.254l-0.23-1.725
			c-0.399,0.537-0.932,1-1.599,1.391c-0.667,0.392-1.483,0.587-2.449,0.587c-1.396,0-2.461-0.392-3.197-1.173
			c-0.736-0.782-1.104-1.971-1.104-3.564v-8.396h2.484V20.934z"/>
		<path fill="#FFFFFF" d="M165.219,17.209c0-0.966-0.172-1.675-0.518-2.128c-0.345-0.452-0.839-0.678-1.483-0.678
			c-0.828,0-1.599,0.218-2.312,0.655s-1.299,0.978-1.759,1.622v8.809h-2.484v-12.88h2.254l0.23,1.748
			c0.245-0.245,0.529-0.487,0.851-0.725c0.322-0.238,0.667-0.452,1.035-0.644c0.368-0.191,0.767-0.345,1.196-0.46
			c0.429-0.115,0.889-0.172,1.38-0.172c1.288,0,2.292,0.425,3.013,1.276c0.72,0.851,1.081,2.021,1.081,3.507v8.349h-2.484V17.209z"
			/>
		<path fill="#FFFFFF" d="M176.282,25.489v-8.28c0-1.871-0.805-2.806-2.415-2.806c-0.706,0-1.384,0.13-2.036,0.391
			c-0.652,0.261-1.223,0.567-1.713,0.92l-0.644-1.817c0.537-0.399,1.219-0.755,2.047-1.07c0.828-0.314,1.687-0.471,2.576-0.471
			c1.533,0,2.694,0.437,3.484,1.311c0.79,0.874,1.185,2.085,1.185,3.634v8.188H176.282z"/>
		<path fill="#FFFFFF" d="M184.4,25.489l-3.887-12.88h2.484l3.266,10.833h0.276c0.429,0,0.843-0.107,1.241-0.322
			c0.399-0.215,0.752-0.529,1.059-0.943s0.553-0.916,0.736-1.506s0.275-1.254,0.275-1.99c0-1.548-0.249-2.648-0.747-3.3
			c-0.499-0.652-1.124-0.978-1.874-0.978c-0.506,0-0.998,0.092-1.473,0.276l-0.368-1.886c0.276-0.138,0.61-0.245,1-0.322
			c0.391-0.077,0.771-0.115,1.139-0.115c0.689,0,1.33,0.142,1.92,0.425s1.1,0.698,1.529,1.242s0.764,1.208,1.001,1.989
			c0.237,0.782,0.356,1.671,0.356,2.667c0,1.059-0.149,2.006-0.448,2.842c-0.3,0.835-0.71,1.549-1.231,2.139
			c-0.521,0.59-1.138,1.043-1.851,1.356c-0.714,0.314-1.491,0.472-2.335,0.472H184.4z"/>
		<path fill="#FFFFFF" d="M206.71,7.411h0.46v22.977h-0.46V7.411z"/>
		<path fill="#FFFFFF" d="M220.252,11.969v-0.76h10.94v0.76h-5.041v13.52h-0.879v-13.52H220.252z"/>
		<path fill="#FFFFFF" d="M230.872,17.489h0.06c0.093-0.333,0.263-0.646,0.511-0.94c0.246-0.293,0.546-0.546,0.899-0.76
			c0.353-0.213,0.747-0.376,1.18-0.49s0.884-0.163,1.351-0.15v0.76c-0.4-0.053-0.857-0.013-1.371,0.12
			c-0.513,0.133-1.003,0.427-1.469,0.88c-0.188,0.2-0.351,0.394-0.49,0.58c-0.141,0.188-0.258,0.394-0.35,0.62
			c-0.094,0.227-0.168,0.479-0.221,0.76s-0.087,0.614-0.1,1v5.62h-0.76v-10.28h0.76V17.489z"/>
		<path fill="#FFFFFF" d="M242.092,23.449h-0.04c-0.12,0.308-0.293,0.597-0.52,0.87s-0.504,0.517-0.83,0.73
			c-0.327,0.213-0.697,0.379-1.11,0.5c-0.413,0.119-0.866,0.18-1.36,0.18c-1.094,0-1.939-0.237-2.539-0.711
			c-0.601-0.473-0.9-1.203-0.9-2.189c0-0.6,0.119-1.09,0.359-1.47s0.543-0.681,0.91-0.899c0.367-0.221,0.773-0.377,1.221-0.471
			c0.446-0.094,0.876-0.16,1.289-0.2l1.181-0.1c0.546-0.04,0.977-0.104,1.29-0.19c0.312-0.086,0.55-0.207,0.71-0.359
			c0.159-0.153,0.26-0.351,0.3-0.59c0.04-0.24,0.061-0.541,0.061-0.9c0-0.28-0.054-0.54-0.16-0.78c-0.107-0.24-0.273-0.453-0.5-0.64
			c-0.227-0.187-0.521-0.333-0.881-0.44c-0.359-0.106-0.799-0.16-1.319-0.16c-0.92,0-1.663,0.227-2.229,0.68
			c-0.567,0.454-0.877,1.14-0.931,2.06h-0.76c0.053-1.133,0.417-1.983,1.09-2.55c0.673-0.566,1.63-0.85,2.87-0.85
			s2.143,0.244,2.71,0.73c0.566,0.487,0.851,1.124,0.851,1.91v5.979c0,0.147,0.002,0.294,0.01,0.44
			c0.006,0.147,0.029,0.28,0.069,0.399c0.04,0.121,0.106,0.217,0.2,0.291c0.094,0.072,0.227,0.109,0.4,0.109
			c0.133,0,0.32-0.02,0.56-0.061v0.641c-0.2,0.054-0.407,0.08-0.62,0.08c-0.307,0-0.55-0.04-0.73-0.12
			c-0.18-0.08-0.316-0.187-0.409-0.319c-0.094-0.134-0.157-0.291-0.19-0.471s-0.05-0.377-0.05-0.59V23.449z M242.092,19.649
			c-0.187,0.227-0.47,0.38-0.851,0.46c-0.379,0.08-0.803,0.14-1.27,0.18l-1.279,0.12c-0.374,0.04-0.748,0.098-1.121,0.17
			c-0.373,0.074-0.709,0.197-1.01,0.37c-0.3,0.173-0.543,0.41-0.729,0.71c-0.187,0.301-0.28,0.689-0.28,1.17
			c0,0.76,0.24,1.324,0.721,1.689c0.479,0.367,1.139,0.551,1.979,0.551c0.866,0,1.554-0.156,2.06-0.471
			c0.507-0.312,0.894-0.672,1.16-1.08c0.267-0.406,0.437-0.799,0.51-1.18c0.074-0.379,0.11-0.637,0.11-0.77V19.649z"/>
		<path fill="#FFFFFF" d="M245.273,15.209h0.76v2.2h0.039c0.134-0.387,0.324-0.73,0.57-1.03c0.246-0.3,0.533-0.557,0.86-0.77
			s0.683-0.373,1.069-0.48s0.781-0.16,1.181-0.16c0.601,0,1.11,0.073,1.53,0.22c0.42,0.146,0.763,0.34,1.029,0.58
			c0.268,0.24,0.477,0.51,0.631,0.81c0.152,0.3,0.263,0.604,0.33,0.91c0.066,0.307,0.105,0.604,0.119,0.891
			c0.014,0.286,0.02,0.536,0.02,0.75v6.359h-0.76v-6.5c0-0.253-0.02-0.573-0.06-0.96s-0.157-0.757-0.351-1.11
			c-0.193-0.354-0.486-0.657-0.879-0.91c-0.395-0.253-0.938-0.38-1.631-0.38c-0.586,0-1.106,0.107-1.56,0.32
			c-0.454,0.213-0.84,0.51-1.16,0.89c-0.319,0.38-0.563,0.833-0.729,1.36c-0.168,0.526-0.25,1.104-0.25,1.729v5.561h-0.76V15.209z"
			/>
		<path fill="#FFFFFF" d="M256.012,22.069c0.026,0.48,0.134,0.903,0.319,1.27c0.188,0.367,0.431,0.68,0.73,0.94
			c0.301,0.26,0.65,0.457,1.051,0.59c0.399,0.134,0.832,0.2,1.299,0.2c0.334,0,0.69-0.03,1.07-0.09
			c0.381-0.061,0.733-0.17,1.061-0.33c0.326-0.16,0.596-0.383,0.81-0.67s0.32-0.65,0.32-1.09c0-0.574-0.173-1.007-0.521-1.301
			c-0.347-0.293-0.783-0.52-1.31-0.68s-1.093-0.29-1.7-0.391c-0.607-0.1-1.174-0.25-1.699-0.449c-0.527-0.2-0.964-0.483-1.311-0.85
			c-0.348-0.367-0.52-0.904-0.52-1.61c0-0.507,0.113-0.93,0.34-1.27c0.227-0.34,0.516-0.61,0.869-0.81s0.75-0.343,1.19-0.43
			c0.44-0.086,0.88-0.13,1.319-0.13c0.533,0,1.033,0.06,1.5,0.18c0.467,0.12,0.871,0.313,1.211,0.58s0.606,0.606,0.8,1.02
			c0.192,0.414,0.29,0.914,0.29,1.5h-0.76c0-0.467-0.077-0.866-0.23-1.2c-0.153-0.333-0.367-0.603-0.64-0.81
			c-0.273-0.207-0.597-0.36-0.97-0.46c-0.374-0.1-0.773-0.15-1.201-0.15c-0.346,0-0.696,0.033-1.049,0.1
			c-0.354,0.066-0.67,0.18-0.951,0.34c-0.279,0.16-0.51,0.367-0.689,0.62s-0.27,0.56-0.27,0.92c0,0.413,0.1,0.747,0.3,1
			s0.463,0.456,0.79,0.61c0.326,0.152,0.693,0.276,1.1,0.369c0.406,0.094,0.816,0.188,1.23,0.28c0.506,0.094,0.982,0.204,1.43,0.33
			c0.447,0.127,0.833,0.3,1.16,0.521c0.326,0.22,0.583,0.503,0.77,0.85c0.188,0.347,0.28,0.787,0.28,1.32
			c0,0.56-0.127,1.02-0.38,1.379c-0.254,0.361-0.573,0.65-0.96,0.871c-0.387,0.22-0.817,0.373-1.29,0.459
			c-0.474,0.088-0.938,0.131-1.391,0.131c-0.586,0-1.129-0.077-1.629-0.23c-0.5-0.152-0.938-0.387-1.311-0.699
			c-0.373-0.313-0.667-0.697-0.88-1.15c-0.214-0.453-0.327-0.98-0.34-1.58H256.012z"/>
		<path fill="#FFFFFF" d="M266.193,17.569h0.06c0.08-0.253,0.213-0.533,0.399-0.84c0.188-0.307,0.434-0.59,0.74-0.85
			c0.307-0.26,0.677-0.477,1.11-0.65c0.433-0.173,0.93-0.26,1.489-0.26c0.787,0,1.471,0.147,2.051,0.44
			c0.58,0.293,1.061,0.687,1.439,1.18c0.381,0.493,0.664,1.067,0.851,1.72s0.28,1.34,0.28,2.06c0,0.787-0.094,1.507-0.281,2.16
			s-0.471,1.217-0.852,1.69c-0.381,0.473-0.863,0.843-1.443,1.109c-0.582,0.267-1.267,0.4-2.055,0.4
			c-0.855,0-1.618-0.188-2.286-0.561s-1.155-0.979-1.464-1.82h-0.039v5.82h-0.74V15.209h0.74V17.569z M269.982,25.069
			c0.668,0,1.246-0.127,1.734-0.38s0.889-0.593,1.203-1.021c0.314-0.426,0.549-0.923,0.702-1.49c0.153-0.566,0.231-1.17,0.231-1.81
			c0-0.587-0.074-1.163-0.221-1.729c-0.148-0.566-0.375-1.074-0.683-1.521c-0.308-0.446-0.705-0.807-1.192-1.08
			c-0.488-0.273-1.08-0.41-1.775-0.41c-0.682,0-1.264,0.133-1.744,0.4c-0.481,0.267-0.873,0.62-1.174,1.06s-0.518,0.943-0.651,1.509
			c-0.134,0.567-0.2,1.158-0.2,1.771c0,0.614,0.061,1.204,0.18,1.771c0.121,0.566,0.324,1.066,0.612,1.5
			c0.287,0.434,0.675,0.779,1.163,1.039C268.656,24.939,269.26,25.069,269.982,25.069z"/>
		<path fill="#FFFFFF" d="M275.911,20.348c0-0.732,0.104-1.422,0.311-2.069c0.207-0.646,0.51-1.217,0.91-1.71
			c0.399-0.493,0.893-0.883,1.479-1.17s1.261-0.43,2.021-0.43s1.433,0.144,2.02,0.43s1.08,0.677,1.48,1.17
			c0.399,0.493,0.703,1.063,0.91,1.71c0.206,0.647,0.31,1.337,0.31,2.069c0,0.734-0.104,1.428-0.31,2.08
			c-0.207,0.654-0.511,1.225-0.91,1.711c-0.4,0.486-0.894,0.873-1.48,1.16c-0.587,0.286-1.26,0.43-2.02,0.43
			s-1.434-0.144-2.021-0.43c-0.587-0.287-1.08-0.674-1.479-1.16c-0.4-0.486-0.703-1.057-0.91-1.711
			C276.015,21.776,275.911,21.083,275.911,20.348z M276.671,20.348c0,0.614,0.087,1.204,0.261,1.771
			c0.173,0.567,0.427,1.07,0.76,1.511c0.333,0.439,0.747,0.789,1.24,1.049c0.493,0.261,1.06,0.391,1.7,0.391
			c0.64,0,1.206-0.13,1.699-0.391c0.494-0.26,0.907-0.609,1.24-1.049c0.334-0.44,0.587-0.943,0.76-1.511
			c0.174-0.566,0.26-1.156,0.26-1.771c0-0.612-0.086-1.203-0.26-1.77c-0.173-0.566-0.426-1.07-0.76-1.51
			c-0.333-0.44-0.746-0.79-1.24-1.05c-0.493-0.26-1.06-0.39-1.699-0.39c-0.641,0-1.207,0.13-1.7,0.39
			c-0.493,0.26-0.907,0.61-1.24,1.05s-0.587,0.943-0.76,1.51C276.758,19.145,276.671,19.736,276.671,20.348z"/>
		<path fill="#FFFFFF" d="M287.892,17.489h0.06c0.093-0.333,0.263-0.646,0.511-0.94c0.246-0.293,0.546-0.546,0.899-0.76
			c0.353-0.213,0.747-0.376,1.18-0.49s0.884-0.163,1.351-0.15v0.76c-0.4-0.053-0.857-0.013-1.371,0.12
			c-0.513,0.133-1.003,0.427-1.469,0.88c-0.188,0.2-0.351,0.394-0.49,0.58c-0.141,0.188-0.258,0.394-0.35,0.62
			c-0.094,0.227-0.168,0.479-0.221,0.76s-0.087,0.614-0.1,1v5.62h-0.76v-10.28h0.76V17.489z"/>
		<path fill="#FFFFFF" d="M296.991,15.869h-2.24v7.181c0,0.413,0.047,0.739,0.141,0.979c0.093,0.239,0.236,0.423,0.43,0.55
			s0.427,0.203,0.7,0.23c0.272,0.026,0.59,0.033,0.95,0.02v0.66c-0.387,0.026-0.764,0.023-1.131-0.01
			c-0.366-0.033-0.689-0.133-0.97-0.301c-0.28-0.166-0.503-0.416-0.67-0.75c-0.167-0.332-0.237-0.793-0.21-1.379v-7.181h-1.9v-0.66
			h1.9v-3.2h0.76v3.2h2.24V15.869z"/>
		<path fill="#FFFFFF" d="M305.211,23.449h-0.04c-0.12,0.308-0.293,0.597-0.52,0.87s-0.504,0.517-0.83,0.73
			c-0.327,0.213-0.697,0.379-1.11,0.5c-0.413,0.119-0.866,0.18-1.36,0.18c-1.094,0-1.939-0.237-2.539-0.711
			c-0.601-0.473-0.9-1.203-0.9-2.189c0-0.6,0.119-1.09,0.359-1.47s0.543-0.681,0.91-0.899c0.367-0.221,0.773-0.377,1.221-0.471
			c0.446-0.094,0.876-0.16,1.289-0.2l1.181-0.1c0.546-0.04,0.977-0.104,1.29-0.19c0.312-0.086,0.55-0.207,0.71-0.359
			c0.159-0.153,0.26-0.351,0.3-0.59c0.04-0.24,0.061-0.541,0.061-0.9c0-0.28-0.054-0.54-0.16-0.78c-0.107-0.24-0.273-0.453-0.5-0.64
			c-0.227-0.187-0.521-0.333-0.881-0.44c-0.359-0.106-0.799-0.16-1.319-0.16c-0.92,0-1.663,0.227-2.229,0.68
			c-0.567,0.454-0.877,1.14-0.931,2.06h-0.76c0.053-1.133,0.417-1.983,1.09-2.55c0.673-0.566,1.63-0.85,2.87-0.85
			s2.143,0.244,2.71,0.73c0.566,0.487,0.851,1.124,0.851,1.91v5.979c0,0.147,0.002,0.294,0.01,0.44
			c0.006,0.147,0.029,0.28,0.069,0.399c0.04,0.121,0.106,0.217,0.2,0.291c0.094,0.072,0.227,0.109,0.4,0.109
			c0.133,0,0.32-0.02,0.56-0.061v0.641c-0.2,0.054-0.407,0.08-0.62,0.08c-0.307,0-0.55-0.04-0.73-0.12
			c-0.18-0.08-0.316-0.187-0.409-0.319c-0.094-0.134-0.157-0.291-0.19-0.471s-0.05-0.377-0.05-0.59V23.449z M305.211,19.649
			c-0.187,0.227-0.47,0.38-0.851,0.46c-0.379,0.08-0.803,0.14-1.27,0.18l-1.279,0.12c-0.374,0.04-0.748,0.098-1.121,0.17
			c-0.373,0.074-0.709,0.197-1.01,0.37c-0.3,0.173-0.543,0.41-0.729,0.71c-0.187,0.301-0.28,0.689-0.28,1.17
			c0,0.76,0.24,1.324,0.721,1.689c0.479,0.367,1.139,0.551,1.979,0.551c0.866,0,1.554-0.156,2.06-0.471
			c0.507-0.312,0.894-0.672,1.16-1.08c0.267-0.406,0.437-0.799,0.51-1.18c0.074-0.379,0.11-0.637,0.11-0.77V19.649z"/>
		<path fill="#FFFFFF" d="M312.171,15.869h-2.24v7.181c0,0.413,0.047,0.739,0.141,0.979c0.093,0.239,0.236,0.423,0.43,0.55
			s0.427,0.203,0.7,0.23c0.272,0.026,0.59,0.033,0.95,0.02v0.66c-0.387,0.026-0.764,0.023-1.131-0.01
			c-0.366-0.033-0.689-0.133-0.97-0.301c-0.28-0.166-0.503-0.416-0.67-0.75c-0.167-0.332-0.237-0.793-0.21-1.379v-7.181h-1.9v-0.66
			h1.9v-3.2h0.76v3.2h2.24V15.869z"/>
		<path fill="#FFFFFF" d="M313.751,13.269v-2.06h0.76v2.06H313.751z M313.751,25.489v-10.28h0.76v10.28H313.751z"/>
		<path fill="#FFFFFF" d="M316.45,20.348c0-0.732,0.104-1.422,0.311-2.069c0.207-0.646,0.51-1.217,0.91-1.71
			c0.399-0.493,0.893-0.883,1.479-1.17s1.261-0.43,2.021-0.43s1.433,0.144,2.02,0.43s1.08,0.677,1.48,1.17
			c0.399,0.493,0.703,1.063,0.91,1.71c0.206,0.647,0.31,1.337,0.31,2.069c0,0.734-0.104,1.428-0.31,2.08
			c-0.207,0.654-0.511,1.225-0.91,1.711c-0.4,0.486-0.894,0.873-1.48,1.16c-0.587,0.286-1.26,0.43-2.02,0.43
			s-1.434-0.144-2.021-0.43c-0.587-0.287-1.08-0.674-1.479-1.16c-0.4-0.486-0.703-1.057-0.91-1.711
			C316.554,21.776,316.45,21.083,316.45,20.348z M317.21,20.348c0,0.614,0.087,1.204,0.261,1.771c0.173,0.567,0.427,1.07,0.76,1.511
			c0.333,0.439,0.747,0.789,1.24,1.049c0.493,0.261,1.06,0.391,1.7,0.391c0.64,0,1.206-0.13,1.699-0.391
			c0.494-0.26,0.907-0.609,1.24-1.049c0.334-0.44,0.587-0.943,0.76-1.511c0.174-0.566,0.26-1.156,0.26-1.771
			c0-0.612-0.086-1.203-0.26-1.77c-0.173-0.566-0.426-1.07-0.76-1.51c-0.333-0.44-0.746-0.79-1.24-1.05
			c-0.493-0.26-1.06-0.39-1.699-0.39c-0.641,0-1.207,0.13-1.7,0.39c-0.493,0.26-0.907,0.61-1.24,1.05s-0.587,0.943-0.76,1.51
			C317.297,19.145,317.21,19.736,317.21,20.348z"/>
		<path fill="#FFFFFF" d="M327.671,15.209h0.76v2.2h0.039c0.134-0.387,0.324-0.73,0.57-1.03c0.246-0.3,0.533-0.557,0.86-0.77
			s0.683-0.373,1.069-0.48s0.781-0.16,1.181-0.16c0.601,0,1.11,0.073,1.53,0.22c0.42,0.146,0.763,0.34,1.029,0.58
			c0.268,0.24,0.477,0.51,0.631,0.81c0.152,0.3,0.263,0.604,0.33,0.91c0.066,0.307,0.105,0.604,0.119,0.891
			c0.014,0.286,0.02,0.536,0.02,0.75v6.359h-0.76v-6.5c0-0.253-0.02-0.573-0.06-0.96s-0.157-0.757-0.351-1.11
			c-0.193-0.354-0.486-0.657-0.879-0.91c-0.395-0.253-0.938-0.38-1.631-0.38c-0.586,0-1.106,0.107-1.56,0.32
			c-0.454,0.213-0.84,0.51-1.16,0.89c-0.319,0.38-0.563,0.833-0.729,1.36c-0.168,0.526-0.25,1.104-0.25,1.729v5.561h-0.76V15.209z"
			/>
	</g>
</g>
</svg>
