<?xml version="1.0" encoding="utf-8"?>
<!-- Generator: Adobe Illustrator 16.0.0, SVG Export Plug-In . SVG Version: 6.00 Build 0)  -->
<!DOCTYPE svg PUBLIC "-//W3C//DTD SVG 1.0//EN" "http://www.w3.org/TR/2001/REC-SVG-20010904/DTD/svg10.dtd">
<svg version="1.0" id="Layer_1" xmlns="http://www.w3.org/2000/svg" xmlns:xlink="http://www.w3.org/1999/xlink" x="0px" y="0px"
	 width="370.803px" height="34.306px" viewBox="0 0 370.803 34.306" enable-background="new 0 0 370.803 34.306"
	 xml:space="preserve">
<g>
	<g>
		<path fill="#FFFFFF" d="M12.067,24.41v-7.728c0-0.981-0.272-1.786-0.816-2.415c-0.544-0.628-1.338-0.943-2.381-0.943
			c-1.242,0-2.2,0.429-2.875,1.288s-1.012,2.032-1.012,3.519c0,0.828,0.092,1.522,0.276,2.082s0.421,1.012,0.713,1.357
			c0.292,0.345,0.617,0.59,0.978,0.736c0.36,0.146,0.717,0.218,1.07,0.218c0.306,0,0.59-0.019,0.851-0.057s0.521-0.119,0.782-0.242
			l0.46,1.863c-0.292,0.153-0.625,0.272-1,0.356c-0.376,0.084-0.801,0.126-1.276,0.126c-0.69,0-1.357-0.126-2.001-0.379
			c-0.644-0.253-1.215-0.644-1.713-1.173c-0.499-0.529-0.894-1.2-1.185-2.012C2.645,20.193,2.5,19.235,2.5,18.131
			c0-0.966,0.134-1.867,0.402-2.703c0.268-0.835,0.667-1.56,1.196-2.173c0.529-0.613,1.188-1.096,1.978-1.449
			c0.79-0.353,1.698-0.529,2.726-0.529c0.951,0,1.786,0.142,2.507,0.425c0.72,0.284,1.322,0.671,1.805,1.162
			s0.843,1.066,1.081,1.725s0.356,1.365,0.356,2.116v7.705H12.067z"/>
		<path fill="#FFFFFF" d="M23.039,24.41v-8.28c0-1.871-0.805-2.806-2.415-2.806c-0.706,0-1.384,0.13-2.036,0.391
			c-0.652,0.261-1.223,0.567-1.713,0.92l-0.644-1.817c0.537-0.399,1.219-0.755,2.047-1.07c0.828-0.314,1.687-0.471,2.576-0.471
			c1.533,0,2.694,0.437,3.484,1.311c0.79,0.874,1.185,2.085,1.185,3.634v8.188H23.039z"/>
		<path fill="#FFFFFF" d="M28.42,21.489c0.537,0.322,1.115,0.59,1.736,0.805c0.621,0.215,1.276,0.322,1.967,0.322
			c1.134,0,2.02-0.383,2.656-1.15s0.955-1.917,0.955-3.45c0-1.625-0.318-2.813-0.955-3.565c-0.636-0.751-1.522-1.127-2.656-1.127
			c-0.736,0-1.396,0.107-1.978,0.322c-0.583,0.215-1.166,0.514-1.748,0.897l-0.575-1.909c0.628-0.398,1.334-0.725,2.116-0.978
			c0.782-0.253,1.587-0.379,2.415-0.379c1.886,0,3.335,0.575,4.347,1.725c1.012,1.15,1.518,2.768,1.518,4.853
			c0,2.254-0.521,3.953-1.564,5.095c-1.043,1.143-2.515,1.713-4.416,1.713c-1.779,0-3.243-0.398-4.393-1.196L28.42,21.489z"/>
		<path fill="#FFFFFF" d="M43.347,19.855c0,0.981,0.199,1.687,0.598,2.116c0.398,0.429,1.004,0.644,1.817,0.644
			c0.721,0,1.399-0.226,2.036-0.679c0.636-0.452,1.107-1.008,1.415-1.667v-8.74h2.484v12.88h-2.254l-0.23-1.725
			c-0.399,0.537-0.932,1-1.599,1.392s-1.483,0.586-2.449,0.586c-1.396,0-2.461-0.391-3.197-1.173
			c-0.736-0.782-1.104-1.97-1.104-3.565V11.53h2.484V19.855z"/>
		<path fill="#FFFFFF" d="M50.729,8.31c-0.26,0-0.463,0.062-0.609,0.184c-0.146,0.123-0.219,0.33-0.219,0.621v0.713h-2.553V8.77
			c0-0.782,0.238-1.392,0.713-1.828c0.476-0.437,1.173-0.656,2.093-0.656h2.599V8.31H50.729z"/>
		<path fill="#FFFFFF" d="M55.721,24.41V10.449c0-0.659-0.096-1.234-0.288-1.725c-0.192-0.491-0.422-0.909-0.69-1.253
			c-0.269-0.345-0.544-0.621-0.828-0.828S53.39,6.293,53.19,6.217l-0.046-0.598c0.491-0.843,1.227-1.514,2.208-2.013
			c0.981-0.498,2.108-0.747,3.381-0.747c0.951,0,1.733,0.069,2.346,0.207c0.613,0.138,1.173,0.307,1.679,0.506l-0.391,2.07
			c-0.537-0.276-1.097-0.471-1.679-0.586c-0.583-0.115-1.181-0.172-1.794-0.172c-0.736,0-1.373,0.096-1.909,0.288
			s-0.943,0.441-1.219,0.747c0.782,0.445,1.388,1.07,1.817,1.875c0.429,0.805,0.644,1.752,0.644,2.841V24.41H55.721z"/>
		<path fill="#FFFFFF" d="M70.602,24.41l-1.748-5.658c-0.414-1.303-1.143-1.97-2.185-2.001l-2.553,2.162v5.497h-2.484V11.53h2.484
			v4.715l5.658-4.715h3.22l-4.6,3.795c0.797,0.169,1.415,0.514,1.852,1.035s0.778,1.165,1.023,1.932l1.932,6.118H70.602z"/>
		<path fill="#FFFFFF" d="M83.113,24.41v-5.911H80.1c-0.966,0-1.736,0.165-2.312,0.495c-0.575,0.33-0.862,0.886-0.862,1.667
			c0,0.66,0.203,1.158,0.609,1.495c0.406,0.337,0.9,0.506,1.483,0.506c0.307,0,0.625-0.035,0.955-0.104
			c0.33-0.069,0.64-0.165,0.932-0.288l0.391,1.909c-0.736,0.307-1.579,0.46-2.53,0.46c-0.598,0-1.158-0.081-1.679-0.242
			c-0.521-0.161-0.974-0.406-1.357-0.736c-0.383-0.33-0.687-0.744-0.908-1.242c-0.223-0.499-0.333-1.077-0.333-1.737
			c0-2.791,1.947-4.186,5.842-4.186h2.783V16.13c0-0.874-0.223-1.572-0.667-2.093c-0.445-0.521-1.196-0.782-2.254-0.782
			c-0.92,0-1.744,0.138-2.472,0.414c-0.729,0.276-1.384,0.614-1.967,1.012l-0.805-1.725c0.276-0.199,0.602-0.402,0.978-0.609
			c0.375-0.207,0.793-0.387,1.253-0.541s0.955-0.28,1.483-0.379s1.084-0.149,1.667-0.149c1.671,0,2.963,0.437,3.875,1.311
			c0.912,0.874,1.369,2.047,1.369,3.519v8.303H83.113z"/>
		<path fill="#FFFFFF" d="M97.787,24.41v-7.728c0-0.981-0.272-1.786-0.816-2.415c-0.544-0.628-1.338-0.943-2.381-0.943
			c-1.242,0-2.2,0.429-2.875,1.288s-1.012,2.032-1.012,3.519c0,0.828,0.092,1.522,0.276,2.082s0.421,1.012,0.713,1.357
			c0.292,0.345,0.617,0.59,0.978,0.736c0.36,0.146,0.717,0.218,1.07,0.218c0.306,0,0.59-0.019,0.851-0.057s0.521-0.119,0.782-0.242
			l0.46,1.863c-0.292,0.153-0.625,0.272-1,0.356c-0.376,0.084-0.801,0.126-1.276,0.126c-0.69,0-1.357-0.126-2.001-0.379
			c-0.644-0.253-1.215-0.644-1.713-1.173c-0.499-0.529-0.894-1.2-1.185-2.012c-0.292-0.812-0.437-1.771-0.437-2.875
			c0-0.966,0.134-1.867,0.402-2.703c0.268-0.835,0.667-1.56,1.196-2.173c0.529-0.613,1.188-1.096,1.978-1.449
			c0.79-0.353,1.698-0.529,2.726-0.529c0.951,0,1.786,0.142,2.507,0.425c0.72,0.284,1.322,0.671,1.805,1.162
			s0.843,1.066,1.081,1.725s0.356,1.365,0.356,2.116v7.705H97.787z"/>
		<path fill="#FFFFFF" d="M105.952,11.53v12.88h-2.484V11.53H105.952z"/>
		<path fill="#FFFFFF" d="M111.587,19.028c-0.337,0-0.506,0.184-0.506,0.552v0.345c0,1.794,1.027,2.691,3.082,2.691
			c1.15,0,2.058-0.375,2.725-1.127c0.667-0.751,1-1.955,1-3.611c0-1.472-0.345-2.599-1.035-3.381
			c-0.69-0.782-1.618-1.173-2.783-1.173c-0.966,0-1.833,0.153-2.599,0.46s-1.441,0.683-2.024,1.127l-0.805-1.84
			c0.291-0.23,0.628-0.452,1.012-0.667s0.809-0.406,1.276-0.575c0.468-0.168,0.974-0.303,1.518-0.402s1.116-0.149,1.714-0.149
			c0.966,0,1.832,0.149,2.599,0.448s1.418,0.736,1.955,1.311s0.947,1.276,1.23,2.104s0.426,1.771,0.426,2.829
			c0,2.224-0.533,3.895-1.599,5.014c-1.066,1.119-2.557,1.679-4.474,1.679c-1.917,0-3.339-0.417-4.267-1.253
			c-0.928-0.835-1.391-1.997-1.391-3.484v-0.529c0-1.61,0.782-2.415,2.346-2.415h2.507v2.047H111.587z"/>
		<path fill="#FFFFFF" d="M131.39,24.41v-8.05c0-1.012-0.264-1.771-0.793-2.277c-0.529-0.506-1.276-0.759-2.242-0.759
			c-0.384,0-0.751,0.046-1.104,0.138c-0.353,0.092-0.679,0.223-0.978,0.391c-0.299,0.169-0.56,0.365-0.782,0.586
			c-0.223,0.223-0.387,0.457-0.495,0.702l1.84,1.61c-0.445,0.184-0.779,0.445-1,0.782c-0.223,0.337-0.333,0.774-0.333,1.311v5.566
			h-2.484v-5.428c0-0.46,0.111-0.885,0.333-1.276s0.518-0.693,0.886-0.908l-1.863-1.564c0.138-0.506,0.387-0.997,0.748-1.472
			c0.36-0.475,0.801-0.897,1.323-1.265c0.521-0.368,1.115-0.663,1.782-0.885s1.384-0.333,2.151-0.333
			c0.889,0,1.679,0.126,2.369,0.379s1.265,0.602,1.725,1.046c0.46,0.445,0.809,0.978,1.046,1.599s0.356,1.307,0.356,2.059v8.05
			H131.39z"/>
		<path fill="#FFFFFF" d="M144.891,24.41v-5.911h-3.013c-0.966,0-1.736,0.165-2.312,0.495c-0.575,0.33-0.862,0.886-0.862,1.667
			c0,0.66,0.203,1.158,0.609,1.495c0.406,0.337,0.9,0.506,1.483,0.506c0.307,0,0.625-0.035,0.955-0.104
			c0.33-0.069,0.64-0.165,0.932-0.288l0.391,1.909c-0.736,0.307-1.579,0.46-2.53,0.46c-0.598,0-1.158-0.081-1.679-0.242
			c-0.521-0.161-0.974-0.406-1.357-0.736c-0.383-0.33-0.687-0.744-0.908-1.242c-0.223-0.499-0.333-1.077-0.333-1.737
			c0-2.791,1.947-4.186,5.842-4.186h2.783V16.13c0-0.414-0.054-0.794-0.161-1.139c-0.107-0.345-0.276-0.647-0.506-0.909
			c-0.23-0.26-0.529-0.463-0.897-0.609c-0.368-0.146-0.812-0.218-1.334-0.218c-0.935,0-1.767,0.138-2.495,0.414
			c-0.729,0.276-1.384,0.614-1.967,1.012l-0.805-1.725c0.276-0.214,0.609-0.421,1-0.621c0.391-0.199,0.816-0.379,1.276-0.541
			c0.46-0.161,0.951-0.287,1.472-0.379c0.521-0.092,1.05-0.138,1.587-0.138c0.889,0,1.648,0.146,2.277,0.437l0.897-1.081h2.76
			l-1.84,2.231c0.398,0.414,0.698,0.897,0.897,1.449c0.199,0.552,0.299,1.15,0.299,1.794v8.303H144.891z"/>
		<path fill="#FFFFFF" d="M155.931,24.41v-8.28c0-1.871-0.805-2.806-2.415-2.806c-0.706,0-1.384,0.13-2.036,0.391
			c-0.652,0.261-1.223,0.567-1.713,0.92l-0.644-1.817c0.537-0.399,1.219-0.755,2.047-1.07c0.828-0.314,1.687-0.471,2.576-0.471
			c1.533,0,2.694,0.437,3.484,1.311c0.79,0.874,1.185,2.085,1.185,3.634v8.188H155.931z"/>
		<path fill="#FFFFFF" d="M165.292,22.639c0.92,0,1.622-0.149,2.104-0.449c0.483-0.299,0.725-0.716,0.725-1.253
			c0-0.291-0.088-0.548-0.265-0.771c-0.176-0.222-0.411-0.421-0.702-0.598c-0.292-0.176-0.613-0.326-0.966-0.449
			c-0.353-0.123-0.713-0.245-1.081-0.368c-0.583-0.184-1.127-0.383-1.633-0.598c-0.506-0.215-0.943-0.475-1.311-0.782
			c-0.368-0.307-0.66-0.674-0.874-1.104c-0.215-0.429-0.322-0.951-0.322-1.564c0-0.506,0.115-0.97,0.345-1.392
			c0.23-0.421,0.556-0.782,0.978-1.081c0.421-0.299,0.931-0.532,1.529-0.701c0.598-0.168,1.257-0.253,1.978-0.253
			c0.843,0,1.625,0.092,2.346,0.276c0.72,0.184,1.372,0.429,1.955,0.736l-0.644,1.84c-0.537-0.292-1.089-0.499-1.656-0.621
			s-1.181-0.184-1.84-0.184c-0.782,0-1.407,0.123-1.875,0.368c-0.468,0.245-0.702,0.59-0.702,1.035c0,0.261,0.073,0.487,0.219,0.679
			c0.146,0.192,0.341,0.364,0.586,0.518c0.245,0.153,0.537,0.295,0.874,0.425c0.337,0.13,0.705,0.257,1.104,0.379
			c0.69,0.23,1.303,0.468,1.84,0.713c0.537,0.246,0.993,0.533,1.369,0.863c0.375,0.33,0.663,0.717,0.862,1.162
			s0.299,0.966,0.299,1.564c0,1.073-0.418,1.947-1.254,2.622s-2.112,1.012-3.829,1.012c-1.81,0-3.282-0.33-4.416-0.989l0.598-1.909
			c0.521,0.261,1.093,0.472,1.714,0.632C163.969,22.558,164.617,22.639,165.292,22.639z"/>
		<path fill="#FFFFFF" d="M184.887,6.332h0.46v22.978h-0.46V6.332z"/>
		<path fill="#FFFFFF" d="M199.969,10.13h0.88v6.48h9.12v-6.48h0.88v14.28h-0.88v-7.04h-9.12v7.04h-0.88V10.13z"/>
		<path fill="#FFFFFF" d="M220.049,22.37h-0.04c-0.12,0.307-0.293,0.597-0.52,0.87s-0.504,0.517-0.83,0.73
			c-0.327,0.213-0.697,0.38-1.11,0.5s-0.866,0.18-1.36,0.18c-1.094,0-1.939-0.237-2.539-0.71c-0.601-0.473-0.9-1.203-0.9-2.19
			c0-0.6,0.119-1.09,0.359-1.47s0.543-0.68,0.91-0.9c0.367-0.22,0.773-0.377,1.221-0.47c0.446-0.093,0.876-0.16,1.289-0.2l1.181-0.1
			c0.546-0.04,0.977-0.104,1.29-0.19c0.312-0.086,0.55-0.207,0.71-0.36c0.159-0.153,0.26-0.35,0.3-0.59
			c0.04-0.24,0.061-0.54,0.061-0.9c0-0.28-0.054-0.54-0.16-0.78c-0.107-0.24-0.273-0.453-0.5-0.64
			c-0.227-0.187-0.521-0.333-0.881-0.44c-0.359-0.106-0.799-0.16-1.319-0.16c-0.92,0-1.663,0.227-2.229,0.68
			c-0.567,0.454-0.877,1.14-0.931,2.06h-0.76c0.053-1.133,0.417-1.983,1.09-2.55c0.673-0.566,1.63-0.85,2.87-0.85
			s2.143,0.244,2.71,0.73c0.566,0.487,0.851,1.124,0.851,1.91v5.98c0,0.147,0.002,0.293,0.01,0.44c0.006,0.147,0.029,0.28,0.069,0.4
			s0.106,0.217,0.2,0.29s0.227,0.11,0.4,0.11c0.133,0,0.32-0.02,0.56-0.06v0.64c-0.2,0.054-0.407,0.08-0.62,0.08
			c-0.307,0-0.55-0.04-0.73-0.12c-0.18-0.08-0.316-0.187-0.409-0.32c-0.094-0.133-0.157-0.29-0.19-0.47
			c-0.033-0.18-0.05-0.376-0.05-0.59V22.37z M220.049,18.57c-0.187,0.227-0.47,0.38-0.851,0.46c-0.379,0.08-0.803,0.14-1.27,0.18
			l-1.279,0.12c-0.374,0.04-0.748,0.097-1.121,0.17c-0.373,0.074-0.709,0.197-1.01,0.37c-0.3,0.173-0.543,0.41-0.729,0.71
			c-0.187,0.3-0.28,0.69-0.28,1.17c0,0.76,0.24,1.324,0.721,1.69c0.479,0.367,1.139,0.55,1.979,0.55c0.866,0,1.554-0.157,2.06-0.47
			c0.507-0.313,0.894-0.673,1.16-1.08c0.267-0.406,0.437-0.8,0.51-1.18c0.074-0.38,0.11-0.637,0.11-0.77V18.57z"/>
		<path fill="#FFFFFF" d="M223.229,14.13h0.76v2.2h0.039c0.134-0.387,0.324-0.73,0.57-1.03c0.246-0.3,0.533-0.557,0.86-0.77
			s0.683-0.373,1.069-0.48s0.781-0.16,1.181-0.16c0.601,0,1.11,0.073,1.53,0.22c0.42,0.146,0.763,0.34,1.029,0.58
			c0.268,0.24,0.477,0.51,0.631,0.81c0.152,0.3,0.263,0.604,0.33,0.91c0.066,0.307,0.105,0.604,0.119,0.89s0.02,0.537,0.02,0.75
			v6.36h-0.76v-6.5c0-0.253-0.02-0.573-0.06-0.96s-0.157-0.757-0.351-1.11c-0.193-0.354-0.486-0.657-0.879-0.91
			c-0.395-0.253-0.938-0.38-1.631-0.38c-0.586,0-1.106,0.107-1.56,0.32c-0.454,0.213-0.84,0.51-1.16,0.89
			c-0.319,0.38-0.563,0.833-0.729,1.36c-0.168,0.527-0.25,1.104-0.25,1.73v5.56h-0.76V14.13z"/>
		<path fill="#FFFFFF" d="M241.549,22.209h-0.04c-0.427,0.813-0.96,1.424-1.6,1.83c-0.641,0.407-1.42,0.61-2.34,0.61
			c-0.773,0-1.44-0.147-2-0.44c-0.561-0.293-1.021-0.687-1.381-1.18c-0.359-0.493-0.627-1.063-0.8-1.71s-0.26-1.323-0.26-2.03
			c0-0.76,0.093-1.47,0.28-2.13c0.186-0.66,0.47-1.23,0.85-1.71s0.856-0.86,1.43-1.14c0.573-0.28,1.247-0.42,2.021-0.42
			c0.413,0,0.819,0.057,1.22,0.17c0.4,0.114,0.77,0.277,1.109,0.49c0.341,0.213,0.637,0.48,0.891,0.8s0.447,0.68,0.58,1.08h0.04
			v-6.3h0.76v14.28h-0.76V22.209z M237.729,23.99c0.652,0,1.216-0.133,1.689-0.4c0.473-0.267,0.866-0.62,1.18-1.06
			s0.547-0.943,0.7-1.51c0.153-0.566,0.229-1.143,0.229-1.73c0-0.6-0.076-1.183-0.229-1.75c-0.153-0.566-0.384-1.073-0.69-1.52
			c-0.307-0.446-0.703-0.803-1.189-1.07s-1.057-0.4-1.71-0.4c-0.681,0-1.261,0.13-1.74,0.39c-0.479,0.26-0.877,0.61-1.19,1.05
			c-0.312,0.44-0.539,0.947-0.68,1.52c-0.14,0.573-0.21,1.167-0.21,1.78c0,0.6,0.077,1.184,0.229,1.75
			c0.154,0.567,0.387,1.07,0.701,1.51c0.312,0.44,0.709,0.79,1.189,1.05C236.489,23.86,237.062,23.99,237.729,23.99z"/>
		<path fill="#FFFFFF" d="M244.249,19.27c0-0.733,0.104-1.423,0.311-2.07c0.206-0.646,0.51-1.217,0.909-1.71s0.894-0.883,1.479-1.17
			c0.588-0.287,1.261-0.43,2.021-0.43c0.761,0,1.433,0.144,2.021,0.43c0.586,0.287,1.08,0.677,1.479,1.17s0.703,1.063,0.91,1.71
			c0.206,0.647,0.31,1.337,0.31,2.07c0,0.733-0.104,1.427-0.31,2.08c-0.207,0.653-0.511,1.224-0.91,1.71
			c-0.399,0.487-0.894,0.874-1.479,1.16c-0.588,0.287-1.26,0.43-2.021,0.43c-0.76,0-1.433-0.144-2.021-0.43
			c-0.586-0.287-1.08-0.673-1.479-1.16c-0.399-0.486-0.703-1.057-0.909-1.71C244.353,20.697,244.249,20.003,244.249,19.27z
			 M245.009,19.27c0,0.614,0.086,1.204,0.26,1.77c0.174,0.567,0.427,1.07,0.76,1.51c0.334,0.44,0.747,0.79,1.24,1.05
			c0.494,0.26,1.061,0.39,1.7,0.39s1.206-0.13,1.7-0.39c0.493-0.26,0.906-0.61,1.24-1.05c0.333-0.44,0.586-0.943,0.76-1.51
			c0.173-0.566,0.26-1.156,0.26-1.77c0-0.613-0.087-1.203-0.26-1.77c-0.174-0.566-0.427-1.07-0.76-1.51
			c-0.334-0.44-0.747-0.79-1.24-1.05c-0.494-0.26-1.061-0.39-1.7-0.39s-1.206,0.13-1.7,0.39c-0.493,0.26-0.906,0.61-1.24,1.05
			c-0.333,0.44-0.586,0.943-0.76,1.51C245.095,18.066,245.009,18.657,245.009,19.27z"/>
		<path fill="#FFFFFF" d="M263.608,24.41h-0.76v-2.2h-0.04c-0.134,0.387-0.323,0.73-0.569,1.03c-0.248,0.3-0.534,0.557-0.861,0.77
			c-0.326,0.213-0.683,0.374-1.069,0.48s-0.78,0.16-1.181,0.16c-0.6,0-1.109-0.074-1.529-0.22s-0.764-0.34-1.029-0.58
			c-0.268-0.24-0.478-0.51-0.631-0.81c-0.153-0.3-0.264-0.603-0.33-0.91s-0.106-0.604-0.119-0.89
			c-0.014-0.287-0.021-0.537-0.021-0.75v-6.36h0.76v6.5c0,0.267,0.021,0.59,0.06,0.97c0.041,0.38,0.157,0.747,0.351,1.1
			c0.192,0.354,0.483,0.657,0.87,0.91s0.934,0.38,1.64,0.38c0.573,0,1.091-0.106,1.55-0.32c0.461-0.213,0.851-0.51,1.17-0.89
			c0.32-0.38,0.563-0.833,0.73-1.36c0.166-0.526,0.25-1.103,0.25-1.73v-5.56h0.76V24.41z"/>
		<path fill="#FFFFFF" d="M269.628,14.79h-2.239v7.18c0,0.414,0.046,0.74,0.14,0.98c0.094,0.24,0.236,0.423,0.43,0.55
			c0.193,0.127,0.428,0.204,0.701,0.23c0.272,0.027,0.59,0.034,0.949,0.02v0.66c-0.387,0.026-0.764,0.023-1.13-0.01
			c-0.366-0.033-0.69-0.133-0.97-0.3c-0.28-0.167-0.504-0.417-0.67-0.75c-0.167-0.333-0.237-0.793-0.211-1.38v-7.18h-1.899v-0.66
			h1.899v-3.2h0.761v3.2h2.239V14.79z"/>
		<path fill="#FFFFFF" d="M271.388,20.99c0.027,0.48,0.134,0.903,0.32,1.27s0.43,0.68,0.73,0.94c0.3,0.26,0.65,0.457,1.05,0.59
			c0.399,0.134,0.833,0.2,1.3,0.2c0.333,0,0.689-0.03,1.07-0.09c0.38-0.06,0.732-0.17,1.06-0.33c0.327-0.16,0.597-0.383,0.81-0.67
			c0.214-0.287,0.32-0.65,0.32-1.09c0-0.573-0.173-1.006-0.52-1.3c-0.348-0.293-0.783-0.52-1.311-0.68
			c-0.526-0.16-1.093-0.29-1.699-0.39c-0.607-0.1-1.174-0.25-1.7-0.45c-0.526-0.2-0.964-0.483-1.31-0.85
			c-0.348-0.367-0.521-0.903-0.521-1.61c0-0.507,0.113-0.93,0.34-1.27c0.227-0.34,0.517-0.61,0.87-0.81s0.75-0.343,1.189-0.43
			c0.44-0.086,0.881-0.13,1.32-0.13c0.533,0,1.033,0.06,1.5,0.18c0.467,0.12,0.87,0.313,1.21,0.58c0.341,0.267,0.606,0.606,0.8,1.02
			c0.193,0.414,0.291,0.914,0.291,1.5h-0.761c0-0.466-0.077-0.866-0.229-1.2c-0.154-0.333-0.367-0.603-0.641-0.81
			c-0.273-0.207-0.597-0.36-0.97-0.46c-0.374-0.1-0.773-0.15-1.2-0.15c-0.347,0-0.697,0.033-1.05,0.1
			c-0.354,0.066-0.67,0.18-0.95,0.34c-0.279,0.16-0.51,0.367-0.689,0.62s-0.271,0.56-0.271,0.92c0,0.413,0.101,0.747,0.3,1
			c0.2,0.253,0.463,0.457,0.791,0.61c0.326,0.153,0.692,0.277,1.1,0.37c0.406,0.093,0.816,0.187,1.229,0.28
			c0.507,0.094,0.983,0.204,1.431,0.33c0.446,0.127,0.832,0.3,1.16,0.52c0.326,0.22,0.582,0.503,0.77,0.85
			c0.187,0.347,0.279,0.787,0.279,1.32c0,0.56-0.127,1.02-0.379,1.38c-0.254,0.36-0.574,0.65-0.961,0.87
			c-0.387,0.22-0.816,0.373-1.289,0.46c-0.475,0.087-0.938,0.13-1.391,0.13c-0.587,0-1.13-0.077-1.63-0.23
			c-0.5-0.153-0.937-0.386-1.31-0.7c-0.374-0.313-0.668-0.697-0.881-1.15s-0.326-0.98-0.34-1.58H271.388z"/>
		<path fill="#FFFFFF" d="M286.348,10.13h4.681c1.279,0,2.343,0.2,3.189,0.6c0.847,0.4,1.523,0.934,2.03,1.6
			c0.507,0.667,0.862,1.427,1.069,2.28c0.207,0.853,0.311,1.733,0.311,2.64c0,1.014-0.13,1.957-0.391,2.83
			c-0.26,0.874-0.663,1.63-1.209,2.27c-0.547,0.64-1.237,1.144-2.07,1.51c-0.834,0.367-1.824,0.55-2.971,0.55h-4.64V10.13z
			 M291.067,23.65c0.667,0,1.337-0.104,2.011-0.31c0.673-0.207,1.282-0.553,1.829-1.04s0.99-1.14,1.33-1.96
			c0.341-0.82,0.511-1.85,0.511-3.09c0-0.973-0.097-1.807-0.29-2.5c-0.193-0.693-0.447-1.276-0.76-1.75
			c-0.314-0.473-0.674-0.846-1.08-1.12c-0.407-0.273-0.827-0.483-1.26-0.63c-0.434-0.146-0.867-0.243-1.301-0.29
			c-0.434-0.046-0.823-0.07-1.17-0.07h-3.66v12.76H291.067z"/>
		<path fill="#FFFFFF" d="M299.067,19.27c0-0.733,0.104-1.423,0.311-2.07c0.207-0.646,0.51-1.217,0.91-1.71
			c0.399-0.493,0.893-0.883,1.479-1.17s1.261-0.43,2.021-0.43s1.433,0.144,2.02,0.43s1.08,0.677,1.48,1.17
			c0.399,0.493,0.703,1.063,0.91,1.71c0.206,0.647,0.31,1.337,0.31,2.07c0,0.733-0.104,1.427-0.31,2.08
			c-0.207,0.653-0.511,1.224-0.91,1.71c-0.4,0.487-0.894,0.874-1.48,1.16s-1.26,0.43-2.02,0.43s-1.434-0.144-2.021-0.43
			s-1.08-0.673-1.479-1.16c-0.4-0.486-0.703-1.057-0.91-1.71C299.171,20.697,299.067,20.003,299.067,19.27z M299.827,19.27
			c0,0.614,0.087,1.204,0.261,1.77c0.173,0.567,0.427,1.07,0.76,1.51s0.747,0.79,1.24,1.05c0.493,0.26,1.06,0.39,1.7,0.39
			c0.64,0,1.206-0.13,1.699-0.39c0.494-0.26,0.907-0.61,1.24-1.05c0.334-0.44,0.587-0.943,0.76-1.51
			c0.174-0.566,0.26-1.156,0.26-1.77c0-0.613-0.086-1.203-0.26-1.77c-0.173-0.566-0.426-1.07-0.76-1.51
			c-0.333-0.44-0.746-0.79-1.24-1.05c-0.493-0.26-1.06-0.39-1.699-0.39c-0.641,0-1.207,0.13-1.7,0.39
			c-0.493,0.26-0.907,0.61-1.24,1.05s-0.587,0.943-0.76,1.51C299.914,18.066,299.827,18.657,299.827,19.27z"/>
		<path fill="#FFFFFF" d="M312.848,23.53h0.04l2.8-9.4h1.021l2.819,9.4h0.04l2.88-9.4h0.841l-3.301,10.28h-0.939l-2.82-9.32h-0.04
			l-2.84,9.32h-0.96l-3.26-10.28h0.819L312.848,23.53z"/>
		<path fill="#FFFFFF" d="M324.368,14.13h0.76v2.2h0.039c0.134-0.387,0.324-0.73,0.57-1.03c0.246-0.3,0.533-0.557,0.86-0.77
			s0.683-0.373,1.069-0.48s0.781-0.16,1.181-0.16c0.601,0,1.11,0.073,1.53,0.22c0.42,0.146,0.763,0.34,1.029,0.58
			c0.268,0.24,0.477,0.51,0.631,0.81c0.152,0.3,0.263,0.604,0.33,0.91c0.066,0.307,0.105,0.604,0.119,0.89s0.02,0.537,0.02,0.75
			v6.36h-0.76v-6.5c0-0.253-0.02-0.573-0.06-0.96s-0.157-0.757-0.351-1.11c-0.193-0.354-0.486-0.657-0.879-0.91
			c-0.395-0.253-0.938-0.38-1.631-0.38c-0.586,0-1.106,0.107-1.56,0.32c-0.454,0.213-0.84,0.51-1.16,0.89
			c-0.319,0.38-0.563,0.833-0.729,1.36c-0.168,0.527-0.25,1.104-0.25,1.73v5.56h-0.76V14.13z"/>
		<path fill="#FFFFFF" d="M335.688,10.13v14.28h-0.761V10.13H335.688z"/>
		<path fill="#FFFFFF" d="M337.628,19.27c0-0.733,0.103-1.423,0.31-2.07c0.206-0.646,0.51-1.217,0.909-1.71
			c0.4-0.493,0.894-0.883,1.48-1.17s1.26-0.43,2.02-0.43c0.761,0,1.434,0.144,2.021,0.43s1.08,0.677,1.479,1.17
			c0.4,0.493,0.703,1.063,0.91,1.71c0.207,0.647,0.311,1.337,0.311,2.07c0,0.733-0.104,1.427-0.311,2.08
			c-0.207,0.653-0.51,1.224-0.91,1.71c-0.399,0.487-0.893,0.874-1.479,1.16s-1.26,0.43-2.021,0.43c-0.76,0-1.433-0.144-2.02-0.43
			s-1.08-0.673-1.48-1.16c-0.399-0.486-0.703-1.057-0.909-1.71C337.73,20.697,337.628,20.003,337.628,19.27z M338.388,19.27
			c0,0.614,0.086,1.204,0.26,1.77c0.173,0.567,0.426,1.07,0.76,1.51c0.333,0.44,0.746,0.79,1.24,1.05
			c0.493,0.26,1.061,0.39,1.699,0.39c0.641,0,1.207-0.13,1.701-0.39c0.492-0.26,0.906-0.61,1.239-1.05s0.587-0.943,0.761-1.51
			c0.172-0.566,0.26-1.156,0.26-1.77c0-0.613-0.088-1.203-0.26-1.77c-0.174-0.566-0.428-1.07-0.761-1.51s-0.747-0.79-1.239-1.05
			c-0.494-0.26-1.061-0.39-1.701-0.39c-0.639,0-1.206,0.13-1.699,0.39c-0.494,0.26-0.907,0.61-1.24,1.05
			c-0.334,0.44-0.587,0.943-0.76,1.51C338.474,18.066,338.388,18.657,338.388,19.27z"/>
		<path fill="#FFFFFF" d="M355.667,22.37h-0.04c-0.12,0.307-0.294,0.597-0.521,0.87s-0.503,0.517-0.83,0.73
			c-0.326,0.213-0.696,0.38-1.109,0.5c-0.414,0.12-0.867,0.18-1.359,0.18c-1.094,0-1.94-0.237-2.541-0.71
			c-0.6-0.473-0.899-1.203-0.899-2.19c0-0.6,0.12-1.09,0.36-1.47s0.543-0.68,0.91-0.9c0.365-0.22,0.772-0.377,1.219-0.47
			c0.447-0.093,0.877-0.16,1.291-0.2l1.18-0.1c0.547-0.04,0.977-0.104,1.29-0.19c0.313-0.086,0.55-0.207,0.71-0.36
			c0.16-0.153,0.26-0.35,0.3-0.59c0.04-0.24,0.06-0.54,0.06-0.9c0-0.28-0.053-0.54-0.16-0.78c-0.105-0.24-0.273-0.453-0.5-0.64
			c-0.227-0.187-0.52-0.333-0.879-0.44c-0.36-0.106-0.801-0.16-1.32-0.16c-0.92,0-1.664,0.227-2.23,0.68
			c-0.566,0.454-0.877,1.14-0.93,2.06h-0.76c0.053-1.133,0.416-1.983,1.09-2.55c0.674-0.566,1.63-0.85,2.87-0.85
			c1.239,0,2.144,0.244,2.71,0.73c0.566,0.487,0.85,1.124,0.85,1.91v5.98c0,0.147,0.004,0.293,0.01,0.44
			c0.008,0.147,0.031,0.28,0.07,0.4c0.04,0.12,0.107,0.217,0.2,0.29s0.227,0.11,0.399,0.11c0.134,0,0.32-0.02,0.561-0.06v0.64
			c-0.199,0.054-0.406,0.08-0.62,0.08c-0.307,0-0.55-0.04-0.729-0.12s-0.317-0.187-0.41-0.32c-0.094-0.133-0.157-0.29-0.189-0.47
			c-0.034-0.18-0.051-0.376-0.051-0.59V22.37z M355.667,18.57c-0.188,0.227-0.47,0.38-0.85,0.46c-0.381,0.08-0.804,0.14-1.271,0.18
			l-1.28,0.12c-0.373,0.04-0.746,0.097-1.119,0.17c-0.374,0.074-0.711,0.197-1.01,0.37c-0.301,0.173-0.544,0.41-0.73,0.71
			c-0.188,0.3-0.28,0.69-0.28,1.17c0,0.76,0.24,1.324,0.72,1.69c0.48,0.367,1.141,0.55,1.98,0.55c0.867,0,1.553-0.157,2.061-0.47
			c0.506-0.313,0.893-0.673,1.159-1.08c0.267-0.406,0.437-0.8,0.511-1.18c0.072-0.38,0.109-0.637,0.109-0.77V18.57z"/>
		<path fill="#FFFFFF" d="M366.787,22.209h-0.04c-0.427,0.813-0.96,1.424-1.6,1.83c-0.641,0.407-1.42,0.61-2.34,0.61
			c-0.773,0-1.44-0.147-2-0.44c-0.561-0.293-1.021-0.687-1.381-1.18c-0.359-0.493-0.627-1.063-0.8-1.71s-0.26-1.323-0.26-2.03
			c0-0.76,0.093-1.47,0.28-2.13c0.186-0.66,0.47-1.23,0.85-1.71s0.856-0.86,1.43-1.14c0.573-0.28,1.247-0.42,2.021-0.42
			c0.413,0,0.819,0.057,1.22,0.17c0.4,0.114,0.77,0.277,1.109,0.49c0.341,0.213,0.637,0.48,0.891,0.8s0.447,0.68,0.58,1.08h0.04
			v-6.3h0.76v14.28h-0.76V22.209z M362.968,23.99c0.652,0,1.216-0.133,1.689-0.4c0.473-0.267,0.866-0.62,1.18-1.06
			s0.547-0.943,0.7-1.51c0.153-0.566,0.229-1.143,0.229-1.73c0-0.6-0.076-1.183-0.229-1.75c-0.153-0.566-0.384-1.073-0.69-1.52
			c-0.307-0.446-0.703-0.803-1.189-1.07s-1.057-0.4-1.71-0.4c-0.681,0-1.261,0.13-1.74,0.39c-0.479,0.26-0.877,0.61-1.19,1.05
			c-0.312,0.44-0.539,0.947-0.68,1.52c-0.14,0.573-0.21,1.167-0.21,1.78c0,0.6,0.077,1.184,0.229,1.75
			c0.154,0.567,0.387,1.07,0.701,1.51c0.312,0.44,0.709,0.79,1.189,1.05C361.728,23.86,362.3,23.99,362.968,23.99z"/>
	</g>
</g>
</svg>
