<?xml version="1.0" encoding="utf-8"?>
<!-- Generator: Adobe Illustrator 16.0.0, SVG Export Plug-In . SVG Version: 6.00 Build 0)  -->
<!DOCTYPE svg PUBLIC "-//W3C//DTD SVG 1.1//EN" "http://www.w3.org/Graphics/SVG/1.1/DTD/svg11.dtd">
<svg version="1.1" id="Layer_1" xmlns="http://www.w3.org/2000/svg" xmlns:xlink="http://www.w3.org/1999/xlink" x="0px" y="0px"
	 width="258.5px" height="53.164px" viewBox="0 0 258.5 53.164" enable-background="new 0 0 258.5 53.164" xml:space="preserve">
<g enable-background="new    ">
	<path fill="#3C3C3B" d="M44.863,27.564v-7.292h-3.717c-1.192,0-2.144,0.203-2.853,0.61c-0.709,0.406-1.063,1.092-1.063,2.057
		c0,0.812,0.25,1.43,0.752,1.846c0.501,0.416,1.111,0.623,1.83,0.623c0.378,0,0.771-0.043,1.178-0.127
		c0.407-0.086,0.79-0.203,1.149-0.354l0.481,2.354c-0.907,0.379-1.947,0.567-3.121,0.567c-0.737,0-1.428-0.101-2.07-0.299
		c-0.644-0.198-1.201-0.501-1.674-0.907c-0.474-0.407-0.848-0.918-1.121-1.532c-0.274-0.614-0.411-1.329-0.411-2.143
		c0-3.442,2.401-5.164,7.207-5.164h3.433v-0.454c0-1.078-0.273-1.938-0.823-2.582c-0.549-0.643-1.476-0.965-2.78-0.965
		c-1.136,0-2.152,0.171-3.051,0.511c-0.897,0.341-1.707,0.757-2.426,1.249l-0.993-2.128c0.341-0.246,0.742-0.497,1.206-0.752
		c0.463-0.256,0.979-0.478,1.546-0.667c0.567-0.188,1.178-0.345,1.83-0.468s1.338-0.185,2.058-0.185c2.062,0,3.654,0.538,4.78,1.616
		s1.688,2.525,1.688,4.341v10.243L44.863,27.564L44.863,27.564z"/>
	<path fill="#3C3C3B" d="M54.851,27.564l-4.795-15.89h3.063l4.029,13.364h0.34c0.53,0,1.04-0.133,1.532-0.397
		s0.927-0.651,1.305-1.163c0.378-0.511,0.682-1.13,0.908-1.857c0.227-0.729,0.34-1.547,0.34-2.455c0-1.909-0.308-3.268-0.922-4.071
		c-0.615-0.804-1.386-1.205-2.312-1.205c-0.625,0-1.23,0.112-1.816,0.34l-0.454-2.325c0.34-0.172,0.752-0.304,1.234-0.397
		c0.481-0.095,0.949-0.142,1.403-0.142c0.852,0,1.642,0.174,2.369,0.523c0.729,0.352,1.357,0.861,1.888,1.531
		c0.528,0.673,0.939,1.49,1.233,2.455c0.293,0.965,0.44,2.062,0.44,3.291c0,1.306-0.186,2.475-0.554,3.504
		c-0.368,1.031-0.875,1.912-1.518,2.64c-0.643,0.729-1.404,1.287-2.284,1.674c-0.879,0.39-1.84,0.582-2.88,0.582L54.851,27.564
		L54.851,27.564z"/>
	<path fill="#3C3C3B" d="M78.486,17.349c0-1.191-0.213-2.066-0.639-2.624c-0.425-0.558-1.036-0.837-1.83-0.837
		c-1.021,0-1.973,0.27-2.853,0.809c-0.879,0.539-1.603,1.205-2.17,2v10.867h-3.063v-15.89h2.78l0.284,2.155
		c0.303-0.301,0.652-0.6,1.051-0.894c0.396-0.293,0.822-0.558,1.276-0.794s0.945-0.426,1.476-0.566
		c0.529-0.144,1.097-0.213,1.702-0.213c1.59,0,2.828,0.523,3.718,1.573c0.889,1.05,1.334,2.493,1.334,4.327v10.3h-3.064V17.349
		H78.486z"/>
	<path fill="#3C3C3B" d="M87.595,14.71c0,0.396,0.197,0.596,0.596,0.596h2.894v2.384h-3.489c-0.833,0-1.519-0.208-2.058-0.624
		s-0.809-1.126-0.809-2.128v-1.362h2.866V14.71z M87.595,22.457c0,0.396,0.197,0.596,0.596,0.596h2.894v2.384h-3.489
		c-0.833,0-1.519-0.208-2.058-0.624s-0.809-1.126-0.809-2.128v-1.362h2.866V22.457z"/>
	<path fill="#3C3C3B" d="M97.525,11.674v15.89h-3.064v-15.89H97.525z"/>
	<path fill="#3C3C3B" d="M108.308,27.876c-2.157,0-3.816-0.525-4.98-1.575c-1.163-1.05-1.745-2.604-1.745-4.667v-9.96h3.064v9.96
		c0,1.173,0.312,2.085,0.936,2.736c0.625,0.653,1.532,0.979,2.725,0.979c1.19,0,2.1-0.326,2.724-0.979
		c0.625-0.651,0.938-1.563,0.938-2.736v-9.96h3.063v9.96c0,2.062-0.582,3.617-1.745,4.667S110.464,27.876,108.308,27.876z"/>
	<path fill="#3C3C3B" d="M102.49,9.574V7.191h9.732v-2.64h2.78v5.022H102.49L102.49,9.574z"/>
	<path fill="#3C3C3B" d="M128.707,11.674h3.064v9.874c0,0.945-0.133,1.807-0.397,2.582s-0.681,1.443-1.249,2.001
		s-1.305,0.987-2.213,1.291c-0.908,0.302-2.005,0.454-3.292,0.454c-1.948,0-3.504-0.444-4.667-1.334
		c-1.163-0.889-1.745-2.186-1.745-3.887c0-0.928,0.25-1.723,0.752-2.385c0.501-0.662,1.167-1.097,2-1.306
		c-0.358-0.095-0.704-0.25-1.036-0.468c-0.33-0.217-0.623-0.487-0.879-0.81c-0.255-0.321-0.459-0.69-0.609-1.106
		c-0.151-0.416-0.228-0.869-0.228-1.361c0-0.529,0.095-1.021,0.284-1.477c0.188-0.453,0.463-0.851,0.822-1.19
		c0.359-0.341,0.8-0.604,1.32-0.795c0.52-0.188,1.11-0.283,1.772-0.283c0.624,0,1.172,0.052,1.646,0.156
		c0.474,0.104,0.89,0.231,1.25,0.383l-0.341,2.412c-0.265-0.114-0.553-0.208-0.866-0.284c-0.312-0.075-0.619-0.113-0.922-0.113
		c-0.662,0-1.164,0.151-1.504,0.454c-0.34,0.304-0.511,0.7-0.511,1.191c0,0.321,0.065,0.604,0.198,0.852
		c0.133,0.246,0.308,0.454,0.525,0.624c0.217,0.17,0.463,0.299,0.738,0.383c0.273,0.086,0.543,0.129,0.809,0.129h2.299l0.255,2.469
		h-2.101c-0.795,0-1.438,0.218-1.93,0.652c-0.492,0.436-0.738,1.021-0.738,1.758c0,0.455,0.096,0.856,0.284,1.207
		s0.44,0.644,0.752,0.879c0.312,0.236,0.681,0.416,1.106,0.539s0.875,0.186,1.349,0.186c1.343,0,2.345-0.336,3.007-1.008
		c0.662-0.671,0.993-1.612,0.993-2.823L128.707,11.674L128.707,11.674z"/>
	<path fill="#3C3C3B" d="M138.809,21.945c0,1.211,0.246,2.081,0.736,2.61c0.492,0.53,1.239,0.795,2.242,0.795
		c0.889,0,1.727-0.278,2.512-0.837c0.784-0.559,1.365-1.244,1.744-2.059v-10.78h3.064v15.89h-2.78l-0.284-2.128
		c-0.492,0.662-1.148,1.233-1.972,1.718c-0.823,0.482-1.83,0.723-3.022,0.723c-1.721,0-3.035-0.481-3.943-1.446
		s-1.362-2.431-1.362-4.397V11.674h3.063v10.271H138.809z"/>
	<path fill="#3C3C3B" d="M162.756,27.564v-7.292h-3.717c-1.191,0-2.143,0.203-2.852,0.61c-0.709,0.406-1.064,1.092-1.064,2.057
		c0,0.812,0.25,1.43,0.752,1.846c0.501,0.416,1.111,0.623,1.83,0.623c0.378,0,0.771-0.043,1.178-0.127
		c0.407-0.086,0.791-0.203,1.149-0.354l0.481,2.354c-0.908,0.379-1.947,0.567-3.121,0.567c-0.737,0-1.428-0.101-2.07-0.299
		s-1.201-0.501-1.674-0.907c-0.473-0.407-0.848-0.918-1.121-1.532c-0.274-0.614-0.411-1.329-0.411-2.143
		c0-3.442,2.401-5.164,7.207-5.164h3.433v-0.454c0-0.511-0.066-0.979-0.199-1.404c-0.133-0.425-0.34-0.799-0.623-1.121
		c-0.285-0.32-0.653-0.57-1.107-0.752c-0.454-0.179-1.002-0.27-1.646-0.27c-1.153,0-2.18,0.171-3.078,0.511
		c-0.898,0.341-1.707,0.757-2.426,1.249l-0.994-2.128c0.34-0.265,0.752-0.521,1.234-0.767c0.482-0.245,1.008-0.469,1.575-0.668
		c0.567-0.197,1.172-0.354,1.815-0.467s1.295-0.17,1.959-0.17c1.097,0,2.033,0.18,2.809,0.538l1.107-1.334h3.404l-2.27,2.753
		c0.492,0.51,0.859,1.106,1.105,1.787c0.246,0.682,0.369,1.419,0.369,2.213v10.243L162.756,27.564L162.756,27.564z"/>
	<path fill="#3C3C3B" d="M164.202,10c-0.416,0-0.81-0.074-1.177-0.227c-0.369-0.15-0.686-0.363-0.951-0.639
		c-0.266-0.274-0.479-0.592-0.639-0.95s-0.241-0.757-0.241-1.192c0-0.851,0.288-1.561,0.864-2.127
		c0.578-0.567,1.291-0.853,2.143-0.853s1.564,0.284,2.143,0.853c0.578,0.566,0.865,1.276,0.865,2.127
		c0,0.437-0.081,0.834-0.24,1.192c-0.16,0.358-0.375,0.676-0.64,0.95c-0.265,0.273-0.582,0.486-0.95,0.639
		C165.012,9.925,164.619,10,164.202,10z M164.202,8.156c0.321,0,0.597-0.117,0.823-0.354c0.227-0.236,0.341-0.515,0.341-0.837
		c0-0.321-0.114-0.596-0.341-0.822c-0.227-0.229-0.502-0.341-0.823-0.341s-0.591,0.112-0.81,0.341
		c-0.217,0.227-0.325,0.501-0.325,0.822c0,0.322,0.108,0.601,0.325,0.837C163.612,8.039,163.881,8.156,164.202,8.156z
		 M176.375,27.564V17.349c0-2.309-0.992-3.461-2.979-3.461c-0.871,0-1.709,0.16-2.512,0.48c-0.804,0.322-1.509,0.701-2.113,1.137
		l-0.795-2.242c0.662-0.491,1.504-0.932,2.525-1.318c1.021-0.388,2.081-0.582,3.178-0.582c1.892,0,3.324,0.539,4.299,1.617
		c0.974,1.078,1.461,2.572,1.461,4.482v10.102H176.375z"/>
	<path fill="#3C3C3B" d="M186.561,11.674v15.89h-3.063v-15.89H186.561z"/>
	<path fill="#3C3C3B" d="M195.131,25.379c1.135,0,2-0.185,2.596-0.554c0.597-0.369,0.895-0.885,0.895-1.547
		c0-0.359-0.109-0.677-0.327-0.951c-0.217-0.272-0.506-0.52-0.864-0.736c-0.359-0.217-0.756-0.401-1.191-0.555
		c-0.436-0.149-0.879-0.302-1.334-0.453c-0.719-0.228-1.391-0.473-2.014-0.737c-0.625-0.265-1.164-0.586-1.617-0.965
		c-0.454-0.378-0.813-0.832-1.078-1.361c-0.266-0.528-0.396-1.173-0.396-1.93c0-0.624,0.141-1.196,0.426-1.718
		c0.283-0.52,0.686-0.965,1.205-1.334c0.521-0.367,1.149-0.655,1.887-0.864c0.738-0.208,1.552-0.312,2.441-0.312
		c1.041,0,2.004,0.112,2.895,0.34c0.889,0.228,1.691,0.529,2.412,0.907l-0.795,2.271c-0.662-0.358-1.344-0.614-2.043-0.766
		c-0.7-0.151-1.457-0.228-2.271-0.228c-0.965,0-1.735,0.151-2.313,0.453c-0.576,0.303-0.864,0.729-0.864,1.276
		c0,0.321,0.089,0.602,0.271,0.838c0.18,0.235,0.42,0.449,0.723,0.639s0.662,0.363,1.078,0.523c0.416,0.162,0.871,0.317,1.362,0.469
		c0.853,0.283,1.608,0.578,2.271,0.88c0.662,0.303,1.226,0.657,1.689,1.063c0.463,0.407,0.817,0.885,1.063,1.434
		c0.245,0.549,0.368,1.191,0.368,1.93c0,1.324-0.516,2.402-1.547,3.234c-1.03,0.832-2.604,1.248-4.725,1.248
		c-2.232,0-4.048-0.406-5.447-1.221l0.738-2.354c0.643,0.32,1.348,0.581,2.114,0.779C193.498,25.279,194.297,25.379,195.131,25.379z
		"/>
	<path fill="#3C3C3B" d="M197.91,9.603c-0.491,0-0.926-0.127-1.305-0.383c-0.379-0.255-0.672-0.591-0.879-1.007
		c-0.172,0.435-0.469,0.799-0.896,1.092c-0.426,0.294-0.969,0.44-1.631,0.44c-1.045,0-1.883-0.304-2.515-0.908
		c-0.631-0.605-0.947-1.391-0.947-2.355c0-0.435,0.082-0.855,0.244-1.263c0.162-0.406,0.406-0.771,0.73-1.093
		c0.325-0.32,0.731-0.576,1.217-0.767c0.487-0.188,1.062-0.282,1.724-0.282h6.185v2.185h-6.1c-0.492,0-0.852,0.123-1.078,0.369
		c-0.227,0.245-0.341,0.538-0.341,0.879s0.108,0.634,0.327,0.88c0.218,0.246,0.506,0.369,0.865,0.369
		c0.358,0,0.662-0.118,0.907-0.354c0.245-0.236,0.397-0.517,0.454-0.839h1.588c0.076,0.267,0.223,0.474,0.44,0.625
		c0.217,0.151,0.516,0.228,0.894,0.228h2.072v2.185L197.91,9.603L197.91,9.603z"/>
	<path fill="#3C3C3B" d="M207.557,27.564l-1.476-5.986c-0.095-0.436-0.351-0.652-0.767-0.652h-1.077V18.4h1.674
		c0.774,0,1.392,0.147,1.845,0.44c0.454,0.293,0.784,0.864,0.993,1.716l1.078,4.482h0.34c0.492-0.019,0.966-0.17,1.419-0.453
		c0.454-0.283,0.86-0.676,1.221-1.178c0.358-0.502,0.643-1.11,0.852-1.83c0.208-0.719,0.312-1.541,0.312-2.469
		c0-1.835-0.39-3.164-1.164-3.986c-0.775-0.822-1.873-1.233-3.291-1.233c-0.984,0-1.953,0.18-2.908,0.539
		c-0.955,0.358-1.812,0.87-2.568,1.532l-0.936-2.271c0.793-0.643,1.748-1.191,2.865-1.646c1.115-0.454,2.325-0.68,3.631-0.68
		c2.44,0,4.289,0.686,5.549,2.057c1.258,1.371,1.887,3.277,1.887,5.718c0,1.211-0.182,2.331-0.539,3.362
		c-0.359,1.031-0.852,1.92-1.477,2.666c-0.623,0.748-1.361,1.334-2.213,1.76c-0.853,0.426-1.77,0.639-2.752,0.639H207.557z"/>
	<path fill="#3C3C3B" d="M222,27.876c-0.643,0-1.14-0.189-1.488-0.567c-0.352-0.379-0.524-0.833-0.524-1.362
		s0.174-0.988,0.524-1.375c0.35-0.389,0.846-0.582,1.488-0.582s1.141,0.193,1.49,0.582c0.35,0.387,0.523,0.846,0.523,1.375
		s-0.174,0.983-0.523,1.362C223.139,27.687,222.643,27.876,222,27.876z M223.078,22.145h-2.156l-0.482-9.165V8.44h3.121v4.54
		L223.078,22.145z"/>
</g>
<g>
	<g enable-background="new    ">
		<path fill="#3C3C3B" d="M4.302,47.748v-6.551h0.89v6.551H4.302z"/>
		<path fill="#3C3C3B" d="M8.231,47.748l-0.655-2.701c-0.039-0.18-0.146-0.271-0.316-0.271H6.816v-0.76h0.515
			c0.312,0,0.552,0.062,0.719,0.181c0.167,0.121,0.287,0.346,0.357,0.674l0.491,2.117h0.163c0.242,0,0.477-0.062,0.702-0.183
			c0.227-0.121,0.428-0.296,0.604-0.526c0.175-0.229,0.314-0.517,0.421-0.859c0.104-0.342,0.158-0.736,0.158-1.182
			c0-0.826-0.178-1.431-0.532-1.812c-0.354-0.382-0.867-0.573-1.538-0.573c-0.46,0-0.879,0.078-1.257,0.234
			c-0.378,0.154-0.711,0.351-1,0.584l-0.281-0.689c0.312-0.25,0.688-0.46,1.129-0.632c0.44-0.171,0.906-0.257,1.397-0.257
			s0.922,0.072,1.292,0.216c0.371,0.146,0.68,0.354,0.93,0.626c0.249,0.271,0.438,0.604,0.562,0.994
			c0.125,0.39,0.188,0.83,0.188,1.32c0,0.516-0.07,0.984-0.211,1.41c-0.14,0.426-0.337,0.793-0.59,1.104s-0.557,0.554-0.906,0.726
			c-0.351,0.172-0.737,0.258-1.158,0.258H8.231z"/>
		<path fill="#3C3C3B" d="M14.278,44.776c-0.109,0-0.199,0.037-0.27,0.111c-0.069,0.073-0.104,0.178-0.104,0.31v0.328
			c0,1.045,0.604,1.566,1.812,1.566c0.663,0,1.174-0.208,1.532-0.625s0.538-1.086,0.538-2.006c0-0.85-0.184-1.497-0.55-1.941
			c-0.367-0.443-0.881-0.667-1.543-0.667c-0.491,0-0.933,0.072-1.322,0.218c-0.39,0.144-0.729,0.324-1.019,0.543l-0.292-0.654
			c0.134-0.109,0.292-0.215,0.479-0.315c0.188-0.103,0.394-0.192,0.62-0.274c0.226-0.082,0.47-0.147,0.73-0.199
			c0.262-0.051,0.532-0.075,0.813-0.075c0.966,0,1.703,0.304,2.21,0.912s0.76,1.442,0.76,2.503c0,1.092-0.248,1.922-0.743,2.49
			s-1.229,0.854-2.205,0.854c-0.911,0-1.59-0.2-2.034-0.603c-0.445-0.402-0.667-0.978-0.667-1.726v-0.362
			c0-0.383,0.103-0.668,0.31-0.859c0.207-0.189,0.489-0.286,0.848-0.286h1.041v0.761h-0.944V44.776z"/>
		<path fill="#3C3C3B" d="M24.511,47.748v-4.129c0-0.576-0.151-1.016-0.456-1.315c-0.304-0.3-0.745-0.45-1.32-0.45
			c-0.46,0-0.864,0.104-1.21,0.311c-0.348,0.207-0.592,0.474-0.731,0.802l0.947,0.864c-0.444,0.203-0.667,0.555-0.667,1.054v2.864
			h-0.89v-2.735c0-0.25,0.058-0.479,0.17-0.69c0.113-0.211,0.274-0.365,0.485-0.468l-0.981-0.83
			c0.069-0.241,0.188-0.479,0.355-0.714c0.167-0.232,0.378-0.439,0.632-0.62c0.253-0.179,0.54-0.323,0.859-0.433
			c0.32-0.108,0.663-0.163,1.029-0.163c0.437,0,0.821,0.062,1.157,0.187c0.335,0.125,0.614,0.301,0.836,0.526
			c0.223,0.228,0.391,0.493,0.504,0.802c0.112,0.309,0.169,0.645,0.169,1.012v4.129h-0.889V47.748z"/>
		<path fill="#3C3C3B" d="M24.102,40.285c-0.74,0-1.11-0.33-1.11-0.994v-0.455h0.842v0.352c0,0.249,0.125,0.374,0.375,0.374h2.795
			v0.726h-2.901V40.285z"/>
		<path fill="#3C3C3B" d="M28.09,45.432c0,0.562,0.109,0.979,0.327,1.251c0.218,0.273,0.585,0.409,1.1,0.409
			c0.21,0,0.417-0.036,0.62-0.11s0.395-0.176,0.573-0.305s0.339-0.278,0.479-0.45c0.14-0.171,0.253-0.351,0.339-0.538v-4.49h0.889
			v6.549h-0.831l-0.058-1.028c-0.234,0.351-0.532,0.628-0.896,0.83c-0.362,0.202-0.801,0.305-1.314,0.305
			c-0.71,0-1.24-0.203-1.592-0.608c-0.351-0.404-0.525-1.006-0.525-1.801v-4.246h0.889V45.432z"/>
		<path fill="#3C3C3B" d="M33.996,46.531c0.265,0.164,0.558,0.299,0.877,0.403s0.667,0.157,1.041,0.157
			c0.616,0,1.104-0.21,1.468-0.631c0.363-0.422,0.544-1.076,0.544-1.965c0-0.896-0.171-1.562-0.515-1.994
			c-0.344-0.433-0.842-0.649-1.497-0.649c-0.405,0-0.762,0.056-1.07,0.164c-0.308,0.108-0.599,0.253-0.872,0.433l-0.21-0.714
			c0.289-0.179,0.626-0.331,1.013-0.456c0.386-0.123,0.785-0.187,1.198-0.187c0.929,0,1.634,0.294,2.117,0.883
			s0.726,1.409,0.726,2.462c0,1.122-0.251,1.973-0.755,2.551c-0.503,0.576-1.222,0.864-2.157,0.864
			c-0.444,0-0.838-0.053-1.182-0.157c-0.343-0.105-0.654-0.252-0.936-0.438L33.996,46.531z"/>
		<path fill="#3C3C3B" d="M37.2,40.285c-0.741,0-1.111-0.33-1.111-0.994v-0.455h0.842v0.352c0,0.249,0.125,0.374,0.375,0.374h2.795
			v0.726h-2.9V40.285z"/>
		<path fill="#3C3C3B" d="M41.189,45.432c0,0.562,0.108,0.979,0.326,1.251c0.219,0.273,0.585,0.409,1.101,0.409
			c0.21,0,0.417-0.036,0.62-0.11s0.394-0.176,0.572-0.305c0.18-0.129,0.34-0.278,0.479-0.45c0.14-0.171,0.253-0.351,0.339-0.538
			v-4.49h0.889v6.549h-0.831l-0.058-1.028c-0.234,0.351-0.532,0.628-0.895,0.83s-0.802,0.305-1.315,0.305
			c-0.71,0-1.24-0.203-1.591-0.608c-0.352-0.404-0.526-1.006-0.526-1.801v-4.246h0.89V45.432z"/>
		<path fill="#3C3C3B" d="M49.902,42.233c-0.156-0.097-0.312-0.196-0.469-0.298c-0.21,0.047-0.409,0.137-0.597,0.27
			c-0.187,0.133-0.349,0.307-0.485,0.521c-0.136,0.215-0.245,0.472-0.327,0.772c-0.082,0.3-0.123,0.642-0.123,1.022
			c0,0.46,0.053,0.851,0.157,1.169c0.105,0.32,0.242,0.581,0.41,0.784c0.167,0.202,0.358,0.351,0.573,0.444
			c0.215,0.093,0.435,0.14,0.661,0.14c0.164,0,0.306-0.013,0.427-0.035s0.244-0.062,0.368-0.116
			c0.031,0.116,0.061,0.233,0.088,0.352c0.027,0.117,0.053,0.234,0.076,0.351c-0.133,0.062-0.285,0.113-0.456,0.152
			c-0.172,0.039-0.359,0.06-0.562,0.06c-0.358,0-0.697-0.064-1.018-0.193s-0.599-0.327-0.836-0.598
			c-0.238-0.269-0.425-0.609-0.562-1.021c-0.137-0.414-0.204-0.908-0.204-1.485c0-0.476,0.058-0.907,0.175-1.299
			c0.117-0.39,0.281-0.729,0.491-1.022s0.46-0.533,0.749-0.72c0.287-0.188,0.604-0.315,0.946-0.386
			c0.164,0.124,0.328,0.247,0.491,0.368c0.163,0.12,0.328,0.239,0.491,0.355c0.171-0.116,0.339-0.235,0.503-0.355
			c0.164-0.121,0.331-0.244,0.503-0.368c0.491,0.109,0.873,0.335,1.146,0.678c0.273,0.344,0.409,0.801,0.409,1.368v4.608H52.04
			v-4.666c0-0.32-0.062-0.573-0.181-0.762c-0.121-0.187-0.294-0.318-0.521-0.396l-0.971,0.619
			C50.213,42.434,50.057,42.33,49.902,42.233z"/>
		<path fill="#3C3C3B" d="M47.971,40.285V39.56h4.972v0.725H47.971z"/>
		<path fill="#3C3C3B" d="M54.497,46.531c0.265,0.164,0.558,0.299,0.877,0.403s0.667,0.157,1.041,0.157
			c0.616,0,1.104-0.21,1.468-0.631c0.363-0.422,0.544-1.076,0.544-1.965c0-0.896-0.171-1.562-0.515-1.994
			c-0.344-0.433-0.842-0.649-1.497-0.649c-0.405,0-0.762,0.056-1.07,0.164c-0.308,0.108-0.599,0.253-0.872,0.433l-0.21-0.714
			c0.289-0.179,0.626-0.331,1.013-0.456c0.386-0.123,0.785-0.187,1.198-0.187c0.929,0,1.634,0.294,2.117,0.883
			s0.726,1.409,0.726,2.462c0,1.122-0.251,1.973-0.755,2.551c-0.503,0.576-1.222,0.864-2.157,0.864
			c-0.444,0-0.838-0.053-1.182-0.157c-0.343-0.105-0.654-0.252-0.936-0.438L54.497,46.531z"/>
		<path fill="#3C3C3B" d="M61.69,45.432c0,0.562,0.108,0.979,0.326,1.251c0.219,0.273,0.585,0.409,1.101,0.409
			c0.21,0,0.417-0.036,0.62-0.11s0.394-0.176,0.572-0.305c0.18-0.129,0.34-0.278,0.479-0.45c0.14-0.171,0.253-0.351,0.339-0.538
			v-4.49h0.889v6.549h-0.831l-0.058-1.028c-0.234,0.351-0.532,0.628-0.895,0.83s-0.802,0.305-1.315,0.305
			c-0.71,0-1.24-0.203-1.591-0.608c-0.352-0.404-0.526-1.006-0.526-1.801v-4.246h0.89V45.432z"/>
		<path fill="#3C3C3B" d="M68.485,43.419c-0.312,0-0.561-0.069-0.743-0.211c-0.185-0.139-0.275-0.373-0.275-0.7v-0.515h0.842v0.42
			c0,0.103,0.021,0.175,0.064,0.218c0.043,0.042,0.119,0.063,0.228,0.063h1.217v0.726L68.485,43.419L68.485,43.419z M68.485,46.707
			c-0.312,0-0.561-0.068-0.743-0.205c-0.185-0.137-0.275-0.368-0.275-0.695v-0.525h0.842v0.433c0,0.094,0.021,0.161,0.064,0.204
			s0.119,0.064,0.228,0.064h1.217v0.725H68.485L68.485,46.707z"/>
		<path fill="#3C3C3B" d="M74.356,47.748v-6.551h0.865v6.551H74.356z M76.648,47.748v-6.551h0.864v6.551H76.648z"/>
		<path fill="#3C3C3B" d="M83.349,47.748v-3.229h-1.661c-0.593,0-1.061,0.109-1.403,0.327c-0.343,0.219-0.515,0.573-0.515,1.063
			c0,0.414,0.126,0.717,0.381,0.912c0.254,0.195,0.556,0.293,0.905,0.293c0.18,0,0.357-0.019,0.532-0.054s0.33-0.083,0.462-0.146
			l0.152,0.725c-0.156,0.062-0.343,0.113-0.562,0.152c-0.219,0.039-0.439,0.059-0.667,0.059c-0.296,0-0.57-0.039-0.824-0.117
			c-0.255-0.078-0.475-0.197-0.661-0.355c-0.188-0.16-0.333-0.36-0.438-0.604c-0.104-0.24-0.158-0.525-0.158-0.854
			c0-0.688,0.238-1.219,0.713-1.598c0.476-0.377,1.201-0.566,2.176-0.566h1.566v-0.21c0-0.546-0.127-0.97-0.38-1.271
			c-0.253-0.3-0.688-0.449-1.304-0.449c-0.452,0-0.868,0.065-1.246,0.198c-0.378,0.134-0.708,0.296-0.988,0.491l-0.292-0.632
			c0.125-0.095,0.277-0.188,0.456-0.28c0.179-0.094,0.38-0.18,0.604-0.258c0.223-0.078,0.462-0.141,0.719-0.188
			s0.526-0.069,0.807-0.069c0.818,0,1.442,0.218,1.871,0.653c0.429,0.438,0.644,1.033,0.644,1.791v4.209h-0.887V47.748z"/>
		<path fill="#3C3C3B" d="M82.987,40.285c-0.203,0-0.344-0.06-0.421-0.181c-0.078-0.121-0.117-0.274-0.117-0.462v-0.234
			c0-0.086-0.015-0.146-0.041-0.182c-0.027-0.034-0.087-0.052-0.182-0.052h-0.607v-0.726h0.913c0.21,0,0.378,0.047,0.503,0.141
			s0.187,0.244,0.187,0.455v0.328c0,0.055,0.013,0.1,0.035,0.135c0.023,0.035,0.078,0.053,0.164,0.053h1.625v0.725H82.987z"/>
		<path fill="#3C3C3B" d="M85.793,46.531c0.265,0.164,0.558,0.299,0.877,0.403s0.667,0.157,1.041,0.157
			c0.616,0,1.105-0.21,1.469-0.631c0.363-0.422,0.543-1.076,0.543-1.965c0-0.896-0.17-1.562-0.514-1.994
			c-0.345-0.433-0.843-0.649-1.498-0.649c-0.405,0-0.762,0.056-1.07,0.164c-0.308,0.108-0.599,0.253-0.872,0.433l-0.21-0.714
			c0.289-0.179,0.626-0.331,1.013-0.456c0.386-0.123,0.786-0.187,1.198-0.187c0.929,0,1.634,0.294,2.117,0.883
			s0.726,1.409,0.726,2.462c0,1.122-0.251,1.973-0.754,2.551c-0.503,0.576-1.222,0.864-2.158,0.864
			c-0.444,0-0.838-0.053-1.182-0.157c-0.343-0.105-0.654-0.252-0.936-0.438L85.793,46.531z"/>
		<path fill="#3C3C3B" d="M93.057,44.776c-0.109,0-0.199,0.037-0.27,0.111c-0.07,0.073-0.105,0.178-0.105,0.31v0.328
			c0,1.045,0.604,1.566,1.812,1.566c0.663,0,1.174-0.208,1.532-0.625s0.538-1.086,0.538-2.006c0-0.85-0.184-1.497-0.551-1.941
			c-0.367-0.443-0.881-0.667-1.543-0.667c-0.49,0-0.932,0.072-1.321,0.218c-0.39,0.144-0.729,0.324-1.019,0.543l-0.291-0.654
			c0.133-0.109,0.291-0.215,0.479-0.315c0.188-0.103,0.395-0.192,0.619-0.274c0.227-0.082,0.471-0.147,0.732-0.199
			c0.26-0.051,0.531-0.075,0.812-0.075c0.966,0,1.703,0.304,2.21,0.912s0.76,1.442,0.76,2.503c0,1.092-0.248,1.922-0.743,2.49
			c-0.494,0.568-1.23,0.854-2.205,0.854c-0.912,0-1.59-0.2-2.035-0.603c-0.444-0.402-0.666-0.978-0.666-1.726v-0.362
			c0-0.383,0.103-0.668,0.31-0.859c0.207-0.189,0.489-0.286,0.849-0.286h1.04v0.761h-0.944V44.776z"/>
		<path fill="#3C3C3B" d="M103.01,41.197h0.889v4.152c0,0.382-0.051,0.727-0.152,1.035c-0.102,0.308-0.262,0.57-0.479,0.789
			c-0.219,0.219-0.498,0.386-0.836,0.503c-0.34,0.116-0.748,0.176-1.223,0.176c-0.803,0-1.437-0.178-1.9-0.532
			c-0.463-0.354-0.695-0.871-0.695-1.55c0-0.397,0.098-0.737,0.292-1.022c0.194-0.284,0.468-0.485,0.819-0.604
			c-0.328-0.085-0.596-0.253-0.801-0.503c-0.207-0.249-0.311-0.584-0.311-1.006c0-0.429,0.143-0.787,0.427-1.075
			c0.285-0.289,0.685-0.434,1.199-0.434c0.21,0,0.401,0.021,0.573,0.059c0.171,0.04,0.314,0.086,0.433,0.141
			c-0.016,0.125-0.032,0.248-0.053,0.369c-0.021,0.12-0.037,0.243-0.054,0.368c-0.078-0.039-0.187-0.078-0.326-0.116
			c-0.141-0.039-0.285-0.06-0.434-0.06c-0.304,0-0.531,0.08-0.684,0.239c-0.152,0.16-0.229,0.365-0.229,0.613
			c0,0.156,0.035,0.297,0.105,0.422s0.16,0.229,0.27,0.311c0.108,0.082,0.231,0.145,0.367,0.188
			c0.137,0.043,0.271,0.063,0.403,0.063h0.948c0.015,0.133,0.029,0.263,0.041,0.386c0.012,0.125,0.021,0.254,0.029,0.387h-0.865
			c-0.367,0-0.672,0.113-0.918,0.34s-0.369,0.521-0.369,0.889c0,0.234,0.049,0.438,0.146,0.607c0.096,0.173,0.225,0.313,0.385,0.428
			c0.16,0.113,0.346,0.197,0.557,0.252c0.21,0.054,0.429,0.081,0.654,0.081c0.608,0,1.06-0.149,1.352-0.45
			c0.292-0.3,0.439-0.734,0.439-1.304v-4.142H103.01z"/>
		<path fill="#3C3C3B" d="M103.032,40.285v-1.905h0.866v1.905H103.032z"/>
		<path fill="#3C3C3B" d="M108.471,47.748v-4.246c0-0.562-0.119-0.977-0.357-1.245s-0.594-0.403-1.07-0.403
			c-0.375,0-0.727,0.068-1.059,0.205c-0.332,0.136-0.61,0.294-0.836,0.475l-0.234-0.668c0.117-0.094,0.256-0.188,0.415-0.279
			c0.16-0.094,0.335-0.176,0.526-0.246s0.394-0.129,0.607-0.176c0.215-0.047,0.428-0.069,0.639-0.069c0.756,0,1.32,0.21,1.695,0.631
			c0.375,0.422,0.562,1.015,0.562,1.778v4.244H108.471L108.471,47.748z"/>
		<path fill="#3C3C3B" d="M115.16,47.748v-3.229h-1.661c-0.593,0-1.062,0.109-1.403,0.327c-0.344,0.219-0.515,0.573-0.515,1.063
			c0,0.414,0.126,0.717,0.38,0.912s0.557,0.293,0.906,0.293c0.18,0,0.357-0.019,0.532-0.054s0.329-0.083,0.462-0.146l0.152,0.725
			c-0.156,0.062-0.344,0.113-0.562,0.152s-0.439,0.059-0.667,0.059c-0.296,0-0.571-0.039-0.825-0.117s-0.474-0.197-0.66-0.355
			c-0.188-0.16-0.334-0.36-0.438-0.604c-0.104-0.24-0.158-0.525-0.158-0.854c0-0.688,0.238-1.219,0.713-1.598
			c0.476-0.377,1.201-0.566,2.175-0.566h1.567v-0.21c0-0.546-0.127-0.97-0.38-1.271c-0.253-0.3-0.688-0.449-1.305-0.449
			c-0.451,0-0.867,0.065-1.246,0.198c-0.377,0.134-0.707,0.296-0.987,0.491l-0.292-0.632c0.125-0.095,0.277-0.188,0.456-0.28
			c0.179-0.094,0.38-0.18,0.603-0.258s0.463-0.141,0.719-0.188c0.258-0.047,0.526-0.069,0.808-0.069
			c0.817,0,1.442,0.218,1.871,0.653c0.429,0.438,0.644,1.033,0.644,1.791v4.209h-0.887V47.748z"/>
		<path fill="#3C3C3B" d="M111.078,40.285V39.56h2.877v-1.1h0.737v1.123h0.608V38.46h0.748v1.824H111.078L111.078,40.285z"/>
		<path fill="#3C3C3B" d="M122.2,41.197h0.89v4.129c0,0.795-0.182,1.416-0.545,1.859c-0.361,0.443-0.922,0.667-1.678,0.667
			c-0.468,0-0.877-0.101-1.229-0.299c-0.351-0.198-0.643-0.478-0.877-0.836l-0.059,1.028h-0.831v-6.549h0.89v4.49
			c0.084,0.188,0.197,0.367,0.332,0.538c0.137,0.172,0.293,0.321,0.469,0.45s0.367,0.23,0.572,0.305
			c0.207,0.075,0.416,0.11,0.625,0.11c0.516,0,0.883-0.153,1.105-0.462s0.333-0.746,0.333-1.315v-4.116H122.2z"/>
		<path fill="#3C3C3B" d="M129.557,45.537c0,0.765-0.19,1.342-0.572,1.73c-0.383,0.391-0.986,0.585-1.812,0.585
			s-1.433-0.203-1.818-0.608c-0.387-0.404-0.579-0.938-0.579-1.603v-0.899c0-0.227,0.062-0.438,0.187-0.639
			c0.125-0.197,0.26-0.386,0.403-0.561c0.146-0.176,0.278-0.344,0.403-0.504c0.125-0.159,0.188-0.321,0.188-0.484v-0.293
			c0-0.202-0.105-0.305-0.316-0.305h-0.795v-0.76h0.89c0.39,0,0.665,0.09,0.823,0.27c0.16,0.18,0.24,0.425,0.24,0.736v0.34
			c0,0.218-0.06,0.423-0.181,0.613s-0.253,0.375-0.397,0.549c-0.145,0.177-0.276,0.349-0.397,0.516
			c-0.121,0.168-0.181,0.342-0.181,0.521v0.899c0,0.483,0.121,0.849,0.363,1.095c0.24,0.245,0.631,0.367,1.168,0.367
			c0.25,0,0.469-0.025,0.655-0.076c0.187-0.05,0.341-0.136,0.462-0.257s0.213-0.28,0.275-0.479c0.062-0.198,0.094-0.445,0.094-0.741
			v-1.218c0-0.334-0.074-0.58-0.223-0.735c-0.147-0.156-0.338-0.233-0.572-0.233h-0.234l-0.127-0.375l1.273-1.789h0.971
			l-1.311,1.707c0.328,0.055,0.597,0.211,0.808,0.469c0.211,0.257,0.315,0.572,0.315,0.947v1.215H129.557z"/>
		<path fill="#3C3C3B" d="M131.112,46.531c0.265,0.164,0.558,0.299,0.877,0.403s0.667,0.157,1.041,0.157
			c0.616,0,1.104-0.21,1.468-0.631c0.363-0.422,0.545-1.076,0.545-1.965c0-0.896-0.172-1.562-0.516-1.994
			c-0.344-0.433-0.842-0.649-1.497-0.649c-0.405,0-0.763,0.056-1.069,0.164c-0.309,0.108-0.6,0.253-0.873,0.433l-0.209-0.714
			c0.289-0.179,0.625-0.331,1.012-0.456c0.386-0.123,0.785-0.187,1.199-0.187c0.928,0,1.633,0.294,2.116,0.883
			s0.726,1.409,0.726,2.462c0,1.122-0.252,1.973-0.754,2.551c-0.504,0.576-1.223,0.864-2.158,0.864
			c-0.444,0-0.838-0.053-1.182-0.157c-0.343-0.105-0.654-0.252-0.936-0.438L131.112,46.531z"/>
		<path fill="#3C3C3B" d="M138.305,45.432c0,0.562,0.109,0.979,0.328,1.251c0.217,0.273,0.584,0.409,1.1,0.409
			c0.21,0,0.417-0.036,0.619-0.11c0.203-0.074,0.395-0.176,0.574-0.305c0.178-0.129,0.338-0.278,0.479-0.45
			c0.141-0.171,0.253-0.351,0.339-0.538v-4.49h0.89v6.549h-0.832l-0.058-1.028c-0.233,0.351-0.532,0.628-0.896,0.83
			c-0.361,0.202-0.801,0.305-1.314,0.305c-0.71,0-1.24-0.203-1.591-0.608c-0.351-0.404-0.526-1.006-0.526-1.801v-4.246h0.889V45.432
			L138.305,45.432z"/>
		<path fill="#3C3C3B" d="M144.491,47.748v-6.551h0.89v6.551H144.491z"/>
		<path fill="#3C3C3B" d="M150.783,41.526l1.182,3.603c0.069,0.219,0.135,0.461,0.198,0.726s0.121,0.589,0.175,0.972h0.023
			c0.016-0.391,0.039-0.717,0.07-0.978s0.065-0.505,0.104-0.731l0.62-3.918h0.9l-1.076,6.551h-0.982l-1.287-3.836
			c-0.07-0.203-0.131-0.444-0.181-0.727c-0.052-0.279-0.088-0.533-0.11-0.76h-0.023c-0.023,0.227-0.061,0.479-0.111,0.76
			s-0.111,0.521-0.182,0.727l-1.286,3.836h-0.981c-0.181-1.101-0.359-2.19-0.539-3.274s-0.358-2.176-0.537-3.274h0.899l0.62,3.918
			c0.039,0.227,0.074,0.471,0.105,0.73c0.03,0.261,0.055,0.587,0.069,0.977h0.022c0.056-0.381,0.113-0.705,0.176-0.971
			c0.062-0.265,0.129-0.507,0.199-0.727l1.181-3.602L150.783,41.526L150.783,41.526z"/>
		<path fill="#3C3C3B" d="M148.633,40.285V39.56h2.877v-1.1h0.736v1.123h0.607V38.46h0.75v1.824H148.633L148.633,40.285z"/>
		<path fill="#3C3C3B" d="M152.772,37.876v-1.532h0.831v1.532H152.772z"/>
		<path fill="#3C3C3B" d="M156.362,44.776c-0.108,0-0.199,0.037-0.269,0.111c-0.07,0.073-0.105,0.178-0.105,0.31v0.328
			c0,1.045,0.604,1.566,1.812,1.566c0.662,0,1.174-0.208,1.531-0.625c0.358-0.417,0.538-1.086,0.538-2.006
			c0-0.85-0.183-1.497-0.55-1.941c-0.367-0.443-0.881-0.667-1.543-0.667c-0.491,0-0.932,0.072-1.322,0.218
			c-0.39,0.144-0.729,0.324-1.018,0.543l-0.293-0.654c0.134-0.109,0.293-0.215,0.479-0.315c0.188-0.103,0.394-0.192,0.62-0.274
			s0.471-0.147,0.73-0.199c0.262-0.051,0.533-0.075,0.813-0.075c0.966,0,1.703,0.304,2.21,0.912c0.508,0.608,0.76,1.442,0.76,2.503
			c0,1.092-0.248,1.922-0.742,2.49c-0.496,0.568-1.23,0.854-2.205,0.854c-0.912,0-1.59-0.2-2.035-0.603s-0.667-0.978-0.667-1.726
			v-0.362c0-0.383,0.103-0.668,0.31-0.859c0.207-0.189,0.489-0.286,0.848-0.286h1.041v0.761h-0.944V44.776z"/>
		<path fill="#3C3C3B" d="M163.145,45.432c0,0.562,0.109,0.979,0.328,1.251c0.218,0.273,0.584,0.409,1.1,0.409
			c0.211,0,0.417-0.036,0.619-0.11c0.203-0.074,0.395-0.176,0.574-0.305c0.179-0.129,0.338-0.278,0.479-0.45
			c0.141-0.171,0.254-0.351,0.34-0.538v-4.49h0.889v6.549h-0.83l-0.059-1.028c-0.234,0.351-0.531,0.628-0.895,0.83
			s-0.803,0.305-1.316,0.305c-0.709,0-1.238-0.203-1.59-0.608c-0.352-0.404-0.525-1.006-0.525-1.801v-4.246h0.889v4.233H163.145z"/>
		<path fill="#3C3C3B" d="M173.647,41.197h0.89v4.129c0,0.795-0.182,1.416-0.545,1.859c-0.361,0.443-0.922,0.667-1.678,0.667
			c-0.469,0-0.877-0.101-1.229-0.299s-0.644-0.478-0.878-0.836l-0.059,1.028h-0.83v-6.549h0.889v4.49
			c0.087,0.188,0.197,0.367,0.335,0.538c0.135,0.172,0.291,0.321,0.467,0.45s0.367,0.23,0.573,0.305s0.414,0.11,0.625,0.11
			c0.515,0,0.884-0.153,1.104-0.462c0.224-0.309,0.334-0.746,0.334-1.315L173.647,41.197L173.647,41.197z"/>
		<path fill="#3C3C3B" d="M179.109,47.748v-4.246c0-0.562-0.119-0.977-0.357-1.245c-0.236-0.269-0.594-0.403-1.068-0.403
			c-0.375,0-0.729,0.068-1.06,0.205c-0.331,0.136-0.61,0.294-0.836,0.475l-0.233-0.668c0.117-0.094,0.254-0.188,0.414-0.279
			c0.16-0.094,0.336-0.176,0.527-0.246c0.189-0.07,0.393-0.129,0.607-0.176s0.427-0.069,0.638-0.069c0.756,0,1.321,0.21,1.696,0.631
			c0.373,0.422,0.561,1.015,0.561,1.778v4.244H179.109L179.109,47.748z"/>
		<path fill="#3C3C3B" d="M186.36,47.748v-3.931c0-0.28-0.035-0.542-0.104-0.782c-0.07-0.242-0.181-0.451-0.328-0.627
			s-0.334-0.312-0.556-0.408c-0.222-0.098-0.485-0.146-0.79-0.146c-0.365,0-0.688,0.064-0.965,0.193
			c-0.275,0.128-0.506,0.312-0.689,0.55c-0.184,0.237-0.321,0.522-0.416,0.854c-0.092,0.33-0.14,0.699-0.14,1.104
			c0,0.46,0.054,0.849,0.163,1.163c0.109,0.316,0.25,0.572,0.422,0.771c0.172,0.198,0.364,0.344,0.578,0.434
			c0.215,0.09,0.428,0.134,0.639,0.134c0.164,0,0.305-0.013,0.426-0.035s0.24-0.058,0.357-0.104l0.164,0.701
			c-0.133,0.062-0.283,0.111-0.451,0.146s-0.349,0.053-0.543,0.053c-0.344,0-0.673-0.063-0.988-0.193
			c-0.315-0.127-0.598-0.326-0.842-0.596c-0.246-0.27-0.443-0.607-0.592-1.018s-0.222-0.896-0.222-1.456
			c0-0.483,0.067-0.937,0.204-1.356s0.338-0.787,0.603-1.1s0.587-0.559,0.966-0.736c0.377-0.18,0.812-0.27,1.303-0.27
			c0.461,0,0.859,0.072,1.199,0.216c0.34,0.146,0.621,0.342,0.842,0.591c0.224,0.25,0.388,0.54,0.492,0.871
			c0.104,0.332,0.157,0.686,0.157,1.059v3.918H186.36L186.36,47.748z"/>
		<path fill="#3C3C3B" d="M185.998,40.285c-0.203,0-0.344-0.06-0.421-0.181c-0.078-0.121-0.116-0.274-0.116-0.462v-0.234
			c0-0.086-0.015-0.146-0.041-0.182c-0.027-0.034-0.088-0.052-0.182-0.052h-0.609v-0.726h0.913c0.21,0,0.378,0.047,0.503,0.141
			s0.188,0.244,0.188,0.455v0.328c0,0.055,0.012,0.1,0.034,0.135c0.023,0.035,0.078,0.053,0.164,0.053h1.625v0.725H185.998z"/>
		<path fill="#3C3C3B" d="M188.805,46.531c0.266,0.164,0.558,0.299,0.877,0.403c0.32,0.104,0.666,0.157,1.041,0.157
			c0.615,0,1.104-0.21,1.468-0.631c0.362-0.422,0.544-1.076,0.544-1.965c0-0.896-0.172-1.562-0.516-1.994
			c-0.342-0.433-0.842-0.649-1.496-0.649c-0.405,0-0.762,0.056-1.07,0.164s-0.598,0.253-0.871,0.433l-0.211-0.714
			c0.289-0.179,0.627-0.331,1.012-0.456c0.387-0.123,0.786-0.187,1.199-0.187c0.928,0,1.633,0.294,2.117,0.883
			c0.482,0.589,0.725,1.409,0.725,2.462c0,1.122-0.251,1.973-0.754,2.551c-0.503,0.576-1.223,0.864-2.158,0.864
			c-0.443,0-0.838-0.053-1.182-0.157c-0.344-0.105-0.654-0.252-0.936-0.438L188.805,46.531z"/>
		<path fill="#3C3C3B" d="M199.166,41.197h0.889v4.152c0,0.382-0.051,0.727-0.15,1.035c-0.102,0.308-0.262,0.57-0.479,0.789
			c-0.22,0.219-0.498,0.386-0.836,0.503c-0.341,0.116-0.748,0.176-1.224,0.176c-0.804,0-1.437-0.178-1.899-0.532
			c-0.463-0.354-0.695-0.871-0.695-1.55c0-0.397,0.097-0.737,0.291-1.022c0.195-0.284,0.469-0.485,0.818-0.604
			c-0.326-0.085-0.595-0.253-0.802-0.503c-0.206-0.249-0.31-0.584-0.31-1.006c0-0.429,0.143-0.787,0.427-1.075
			c0.285-0.289,0.685-0.434,1.198-0.434c0.212,0,0.402,0.021,0.574,0.059c0.17,0.04,0.314,0.086,0.433,0.141
			c-0.017,0.125-0.033,0.248-0.054,0.369c-0.02,0.12-0.037,0.243-0.053,0.368c-0.078-0.039-0.188-0.078-0.326-0.116
			c-0.142-0.039-0.285-0.06-0.434-0.06c-0.305,0-0.531,0.08-0.686,0.239c-0.15,0.16-0.228,0.365-0.228,0.613
			c0,0.156,0.035,0.297,0.104,0.422c0.07,0.125,0.16,0.229,0.27,0.311c0.107,0.082,0.23,0.145,0.368,0.188s0.271,0.063,0.403,0.063
			h0.947c0.016,0.133,0.028,0.263,0.041,0.386c0.012,0.125,0.021,0.254,0.028,0.387h-0.864c-0.367,0-0.674,0.113-0.918,0.34
			c-0.246,0.227-0.369,0.521-0.369,0.889c0,0.234,0.049,0.438,0.146,0.607c0.098,0.173,0.225,0.313,0.385,0.428
			c0.16,0.113,0.346,0.197,0.557,0.252c0.211,0.054,0.429,0.081,0.654,0.081c0.607,0,1.059-0.149,1.352-0.45
			c0.291-0.3,0.438-0.734,0.438-1.304v-4.142H199.166z"/>
		<path fill="#3C3C3B" d="M206.195,47.748v-4.129c0-0.576-0.152-1.016-0.456-1.315s-0.745-0.45-1.321-0.45
			c-0.461,0-0.863,0.104-1.211,0.311c-0.347,0.207-0.59,0.474-0.73,0.802l0.947,0.864c-0.443,0.203-0.666,0.555-0.666,1.054v2.864
			h-0.89v-2.735c0-0.25,0.058-0.479,0.17-0.69s0.274-0.365,0.485-0.468l-0.982-0.83c0.07-0.241,0.189-0.479,0.356-0.714
			c0.167-0.232,0.378-0.439,0.632-0.62c0.253-0.179,0.539-0.323,0.859-0.433c0.32-0.108,0.662-0.163,1.029-0.163
			c0.437,0,0.821,0.062,1.157,0.187c0.334,0.125,0.613,0.301,0.836,0.526c0.224,0.228,0.39,0.493,0.503,0.802
			c0.112,0.309,0.17,0.645,0.17,1.012v4.129h-0.889V47.748z"/>
		<path fill="#3C3C3B" d="M205.786,40.285c-0.741,0-1.11-0.33-1.11-0.994v-0.455h0.842v0.352c0,0.249,0.125,0.374,0.375,0.374h2.795
			v0.726h-2.901V40.285z"/>
		<path fill="#3C3C3B" d="M209.774,45.432c0,0.562,0.108,0.979,0.327,1.251c0.219,0.273,0.584,0.409,1.1,0.409
			c0.211,0,0.417-0.036,0.619-0.11c0.203-0.074,0.395-0.176,0.574-0.305c0.179-0.129,0.339-0.278,0.479-0.45
			c0.141-0.171,0.254-0.351,0.34-0.538v-4.49h0.889v6.549h-0.829l-0.06-1.028c-0.234,0.351-0.531,0.628-0.895,0.83
			s-0.803,0.305-1.316,0.305c-0.709,0-1.238-0.203-1.59-0.608c-0.352-0.404-0.527-1.006-0.527-1.801v-4.246h0.891L209.774,45.432
			L209.774,45.432z"/>
		<path fill="#3C3C3B" d="M215.961,47.748v-6.551h0.889v6.551H215.961z"/>
		<path fill="#3C3C3B" d="M222.744,41.197h0.889v4.152c0,0.382-0.051,0.727-0.151,1.035c-0.103,0.308-0.263,0.57-0.479,0.789
			c-0.219,0.219-0.498,0.386-0.837,0.503c-0.339,0.116-0.747,0.176-1.222,0.176c-0.805,0-1.438-0.178-1.9-0.532
			c-0.465-0.354-0.695-0.871-0.695-1.55c0-0.397,0.097-0.737,0.291-1.022c0.195-0.284,0.47-0.485,0.818-0.604
			c-0.326-0.085-0.594-0.253-0.801-0.503c-0.207-0.249-0.311-0.584-0.311-1.006c0-0.429,0.143-0.787,0.428-1.075
			c0.285-0.289,0.684-0.434,1.199-0.434c0.209,0,0.399,0.021,0.572,0.059c0.172,0.04,0.315,0.086,0.434,0.141
			c-0.016,0.125-0.033,0.248-0.053,0.369c-0.021,0.12-0.037,0.243-0.054,0.368c-0.077-0.039-0.188-0.078-0.327-0.116
			c-0.141-0.039-0.285-0.06-0.434-0.06c-0.305,0-0.532,0.08-0.686,0.239c-0.15,0.16-0.228,0.365-0.228,0.613
			c0,0.156,0.035,0.297,0.104,0.422s0.16,0.229,0.27,0.311s0.232,0.145,0.369,0.188c0.136,0.043,0.271,0.063,0.402,0.063h0.947
			c0.016,0.133,0.028,0.263,0.04,0.386c0.013,0.125,0.021,0.254,0.029,0.387h-0.865c-0.366,0-0.672,0.113-0.918,0.34
			c-0.245,0.227-0.368,0.521-0.368,0.889c0,0.234,0.049,0.438,0.146,0.607c0.097,0.173,0.226,0.313,0.386,0.428
			c0.16,0.113,0.347,0.197,0.556,0.252c0.211,0.054,0.43,0.081,0.655,0.081c0.606,0,1.06-0.149,1.351-0.45
			c0.293-0.3,0.438-0.734,0.438-1.304v-4.142H222.744z"/>
		<path fill="#3C3C3B" d="M226.393,44.776c-0.109,0-0.199,0.037-0.271,0.111c-0.069,0.073-0.104,0.178-0.104,0.31v0.328
			c0,1.045,0.604,1.566,1.812,1.566c0.663,0,1.174-0.208,1.532-0.625s0.538-1.086,0.538-2.006c0-0.85-0.184-1.497-0.551-1.941
			c-0.366-0.443-0.881-0.667-1.543-0.667c-0.491,0-0.932,0.072-1.321,0.218c-0.392,0.144-0.729,0.324-1.019,0.543l-0.293-0.654
			c0.133-0.109,0.293-0.215,0.48-0.315c0.188-0.103,0.395-0.192,0.619-0.274c0.227-0.082,0.471-0.147,0.73-0.199
			c0.26-0.051,0.532-0.075,0.813-0.075c0.966,0,1.702,0.304,2.209,0.912c0.508,0.608,0.761,1.442,0.761,2.503
			c0,1.092-0.247,1.922-0.742,2.49c-0.494,0.568-1.229,0.854-2.205,0.854c-0.912,0-1.591-0.2-2.033-0.603
			c-0.445-0.401-0.668-0.978-0.668-1.726v-0.362c0-0.383,0.104-0.668,0.311-0.859c0.207-0.189,0.489-0.286,0.848-0.286h1.041v0.761
			h-0.945V44.776z"/>
		<path fill="#3C3C3B" d="M232.93,43.419c-0.312,0-0.56-0.069-0.742-0.211c-0.184-0.139-0.274-0.373-0.274-0.7v-0.515h0.843v0.42
			c0,0.103,0.021,0.175,0.063,0.218c0.043,0.042,0.118,0.063,0.228,0.063h1.217v0.726L232.93,43.419L232.93,43.419z M232.93,46.707
			c-0.312,0-0.56-0.068-0.742-0.205c-0.184-0.137-0.274-0.368-0.274-0.695v-0.525h0.843v0.433c0,0.094,0.021,0.161,0.063,0.204
			s0.118,0.064,0.228,0.064h1.217v0.725H232.93L232.93,46.707z"/>
		<path fill="#3C3C3B" d="M239.538,50.085v-7.215c0-0.297-0.053-0.537-0.157-0.721c-0.104-0.183-0.26-0.294-0.463-0.333l-0.971,0.69
			l-0.994-0.69c-0.227,0.039-0.406,0.13-0.543,0.271c-0.137,0.14-0.205,0.314-0.205,0.525c0,0.258,0.072,0.454,0.217,0.59
			c0.145,0.138,0.34,0.205,0.59,0.205c0.062,0,0.123-0.004,0.183-0.012s0.119-0.02,0.183-0.035l0.104,0.668
			c-0.086,0.03-0.18,0.053-0.28,0.063c-0.103,0.011-0.194,0.017-0.28,0.017c-0.188,0-0.369-0.025-0.543-0.08
			c-0.177-0.056-0.334-0.144-0.476-0.265s-0.253-0.276-0.339-0.468c-0.086-0.19-0.129-0.42-0.129-0.684
			c0-0.22,0.043-0.416,0.129-0.592s0.201-0.329,0.351-0.462s0.318-0.24,0.511-0.321c0.189-0.082,0.387-0.139,0.59-0.17l0.924,0.713
			l0.947-0.713c0.515,0.039,0.899,0.233,1.158,0.586c0.258,0.35,0.385,0.778,0.385,1.285v7.146H239.538L239.538,50.085z"/>
		<path fill="#3C3C3B" d="M249.268,47.748v-3.229h-1.66c-0.592,0-1.061,0.109-1.403,0.327c-0.343,0.219-0.515,0.573-0.515,1.063
			c0,0.414,0.127,0.717,0.381,0.912c0.253,0.195,0.555,0.293,0.906,0.293c0.179,0,0.355-0.019,0.531-0.054s0.33-0.083,0.463-0.146
			l0.151,0.725c-0.155,0.062-0.344,0.113-0.562,0.152c-0.219,0.039-0.439,0.059-0.666,0.059c-0.297,0-0.571-0.039-0.824-0.117
			c-0.254-0.078-0.475-0.197-0.661-0.355c-0.188-0.16-0.333-0.36-0.438-0.604c-0.104-0.24-0.157-0.525-0.157-0.854
			c0-0.688,0.237-1.219,0.713-1.598c0.478-0.377,1.2-0.566,2.176-0.566h1.567v-0.21c0-0.546-0.127-0.97-0.381-1.271
			c-0.254-0.3-0.688-0.449-1.305-0.449c-0.451,0-0.867,0.065-1.244,0.198c-0.379,0.134-0.709,0.296-0.988,0.491l-0.293-0.632
			c0.125-0.095,0.277-0.188,0.455-0.28c0.181-0.094,0.381-0.18,0.604-0.258c0.222-0.078,0.461-0.141,0.72-0.188
			c0.258-0.047,0.525-0.069,0.807-0.069c0.818,0,1.443,0.218,1.871,0.653c0.43,0.438,0.644,1.033,0.644,1.791v4.209h-0.892V47.748z"
			/>
		<path fill="#3C3C3B" d="M249.291,40.285v-1.905h0.866v1.905H249.291z"/>
		<path fill="#3C3C3B" d="M252.602,43.419c-0.312,0-0.561-0.069-0.742-0.211c-0.184-0.139-0.275-0.373-0.275-0.7v-0.515h0.842v0.42
			c0,0.103,0.021,0.175,0.064,0.218c0.043,0.042,0.119,0.063,0.229,0.063h1.217v0.726L252.602,43.419L252.602,43.419z
			 M252.602,46.707c-0.312,0-0.561-0.068-0.742-0.205c-0.184-0.137-0.275-0.368-0.275-0.695v-0.525h0.842v0.433
			c0,0.094,0.021,0.161,0.064,0.204s0.119,0.064,0.229,0.064h1.217v0.725H252.602L252.602,46.707z"/>
	</g>
</g>
</svg>
